<svg width="1080" height="1920" viewBox="0 0 1080 1920" fill="none" xmlns="http://www.w3.org/2000/svg">
<rect width="1080" height="1920" fill="#121212"/>
<path d="M487 21H587V1654H487V21Z" fill="#4C4C4C"/>
<path d="M811.5 1703.5V1878.5H477.5V1703.5H811.5Z" fill="#312E29" stroke="black"/>
<path d="M618.233 1790.73C618.233 1792.28 617.949 1793.62 617.381 1794.73C616.813 1795.85 616.034 1796.7 615.044 1797.3C614.059 1797.9 612.939 1798.2 611.685 1798.2C610.425 1798.2 609.301 1797.9 608.311 1797.3C607.326 1796.7 606.55 1795.84 605.982 1794.73C605.413 1793.61 605.129 1792.28 605.129 1790.73C605.129 1789.17 605.413 1787.84 605.982 1786.73C606.55 1785.61 607.326 1784.75 608.311 1784.16C609.301 1783.56 610.425 1783.26 611.685 1783.26C612.939 1783.26 614.059 1783.56 615.044 1784.16C616.034 1784.75 616.813 1785.61 617.381 1786.73C617.949 1787.84 618.233 1789.17 618.233 1790.73ZM616.06 1790.73C616.06 1789.54 615.868 1788.55 615.484 1787.74C615.106 1786.92 614.585 1786.31 613.922 1785.89C613.264 1785.47 612.518 1785.26 611.685 1785.26C610.847 1785.26 610.098 1785.47 609.44 1785.89C608.782 1786.31 608.261 1786.92 607.878 1787.74C607.499 1788.55 607.31 1789.54 607.31 1790.73C607.31 1791.91 607.499 1792.91 607.878 1793.72C608.261 1794.53 608.782 1795.15 609.44 1795.57C610.098 1795.99 610.847 1796.2 611.685 1796.2C612.518 1796.2 613.264 1795.99 613.922 1795.57C614.585 1795.15 615.106 1794.53 615.484 1793.72C615.868 1792.91 616.06 1791.91 616.06 1790.73ZM620.969 1798V1783.45H629.989V1785.34H623.164V1789.78H629.343V1791.66H623.164V1798H620.969ZM632.688 1798V1783.45H641.708V1785.34H634.882V1789.78H641.061V1791.66H634.882V1798H632.688ZM646.601 1783.45V1798H644.407V1783.45H646.601ZM661.878 1788.18H659.662C659.577 1787.71 659.418 1787.29 659.186 1786.93C658.954 1786.57 658.67 1786.27 658.334 1786.02C657.998 1785.77 657.622 1785.58 657.205 1785.45C656.793 1785.32 656.355 1785.26 655.891 1785.26C655.053 1785.26 654.302 1785.47 653.64 1785.89C652.981 1786.31 652.461 1786.93 652.077 1787.74C651.698 1788.56 651.509 1789.55 651.509 1790.73C651.509 1791.91 651.698 1792.91 652.077 1793.72C652.461 1794.54 652.984 1795.15 653.647 1795.57C654.31 1795.99 655.055 1796.2 655.884 1796.2C656.343 1796.2 656.779 1796.13 657.191 1796.01C657.607 1795.88 657.984 1795.7 658.32 1795.45C658.656 1795.2 658.94 1794.9 659.172 1794.55C659.409 1794.19 659.572 1793.78 659.662 1793.31L661.878 1793.32C661.76 1794.03 661.53 1794.69 661.189 1795.29C660.853 1795.89 660.42 1796.41 659.89 1796.84C659.364 1797.27 658.763 1797.61 658.086 1797.84C657.408 1798.08 656.67 1798.2 655.87 1798.2C654.61 1798.2 653.488 1797.9 652.503 1797.3C651.518 1796.7 650.742 1795.84 650.174 1794.73C649.61 1793.61 649.328 1792.28 649.328 1790.73C649.328 1789.17 649.613 1787.84 650.181 1786.73C650.749 1785.61 651.525 1784.75 652.51 1784.16C653.495 1783.56 654.615 1783.26 655.87 1783.26C656.641 1783.26 657.361 1783.37 658.029 1783.59C658.701 1783.81 659.305 1784.13 659.84 1784.56C660.375 1784.98 660.818 1785.49 661.168 1786.1C661.518 1786.71 661.755 1787.4 661.878 1788.18ZM664.504 1798V1783.45H673.624V1785.34H666.699V1789.78H673.148V1791.66H666.699V1796.11H673.709V1798H664.504ZM684.043 1783.45V1798H681.848V1783.45H684.043Z" fill="white"/>
<path d="M0 1571H812V1654H0V1571Z" fill="#4C4C4C"/>
<rect x="812" y="1571" width="91" height="308" fill="#4C4C4C"/>
<rect x="161" y="231" width="752" height="93" fill="#4C4C4C"/>
<rect x="815" y="324" width="98" height="301" fill="#4C4C4C"/>
<path d="M957.5 938.5V625.5H769.5V938.5H957.5Z" fill="#312E29" stroke="black"/>
<path d="M813.341 1069.5L900.5 1131.26V1258.5H587.5V1069.5H813.341Z" fill="#312E29" stroke="black"/>
<path d="M686.531 1160.28C686.455 1159.6 686.143 1159.08 685.594 1158.71C685.045 1158.34 684.353 1158.15 683.52 1158.15C682.923 1158.15 682.407 1158.25 681.972 1158.44C681.536 1158.62 681.197 1158.88 680.956 1159.2C680.719 1159.53 680.601 1159.89 680.601 1160.3C680.601 1160.65 680.681 1160.95 680.842 1161.2C681.008 1161.45 681.223 1161.66 681.489 1161.83C681.759 1162 682.047 1162.14 682.355 1162.25C682.663 1162.36 682.959 1162.45 683.243 1162.52L684.663 1162.89C685.127 1163 685.603 1163.16 686.091 1163.35C686.579 1163.54 687.031 1163.8 687.447 1164.12C687.864 1164.44 688.2 1164.83 688.456 1165.3C688.716 1165.77 688.847 1166.33 688.847 1166.98C688.847 1167.8 688.634 1168.54 688.207 1169.17C687.786 1169.81 687.173 1170.32 686.368 1170.69C685.568 1171.06 684.599 1171.24 683.463 1171.24C682.374 1171.24 681.432 1171.07 680.636 1170.72C679.841 1170.38 679.218 1169.89 678.768 1169.25C678.319 1168.61 678.07 1167.86 678.023 1166.98H680.224C680.267 1167.51 680.438 1167.94 680.736 1168.29C681.039 1168.64 681.425 1168.9 681.893 1169.07C682.367 1169.23 682.885 1169.32 683.449 1169.32C684.069 1169.32 684.621 1169.22 685.104 1169.03C685.591 1168.83 685.975 1168.55 686.254 1168.2C686.534 1167.85 686.673 1167.43 686.673 1166.96C686.673 1166.53 686.55 1166.18 686.304 1165.9C686.063 1165.63 685.733 1165.4 685.317 1165.22C684.905 1165.04 684.438 1164.88 683.918 1164.74L682.199 1164.27C681.034 1163.96 680.111 1163.49 679.429 1162.88C678.752 1162.26 678.413 1161.45 678.413 1160.43C678.413 1159.59 678.641 1158.86 679.095 1158.24C679.55 1157.61 680.165 1157.13 680.942 1156.78C681.718 1156.43 682.594 1156.26 683.57 1156.26C684.554 1156.26 685.423 1156.43 686.176 1156.77C686.934 1157.12 687.53 1157.6 687.966 1158.2C688.402 1158.8 688.629 1159.49 688.648 1160.28H686.531ZM691.469 1171V1156.45H700.588V1158.34H693.664V1162.78H700.113V1164.66H693.664V1169.11H700.674V1171H691.469ZM715.601 1161.18H713.385C713.3 1160.71 713.141 1160.29 712.909 1159.93C712.677 1159.57 712.393 1159.27 712.057 1159.02C711.721 1158.77 711.344 1158.58 710.928 1158.45C710.516 1158.32 710.078 1158.26 709.614 1158.26C708.776 1158.26 708.025 1158.47 707.362 1158.89C706.704 1159.31 706.183 1159.93 705.8 1160.74C705.421 1161.56 705.232 1162.55 705.232 1163.73C705.232 1164.91 705.421 1165.91 705.8 1166.72C706.183 1167.54 706.706 1168.15 707.369 1168.57C708.032 1168.99 708.778 1169.2 709.607 1169.2C710.066 1169.2 710.501 1169.13 710.913 1169.01C711.33 1168.88 711.706 1168.7 712.043 1168.45C712.379 1168.2 712.663 1167.9 712.895 1167.55C713.132 1167.19 713.295 1166.78 713.385 1166.31L715.601 1166.32C715.482 1167.03 715.253 1167.69 714.912 1168.29C714.576 1168.89 714.143 1169.41 713.612 1169.84C713.087 1170.27 712.485 1170.61 711.808 1170.84C711.131 1171.08 710.393 1171.2 709.592 1171.2C708.333 1171.2 707.211 1170.9 706.226 1170.3C705.241 1169.7 704.464 1168.84 703.896 1167.73C703.333 1166.61 703.051 1165.28 703.051 1163.73C703.051 1162.17 703.335 1160.84 703.903 1159.73C704.472 1158.61 705.248 1157.75 706.233 1157.16C707.218 1156.56 708.338 1156.26 709.592 1156.26C710.364 1156.26 711.084 1156.37 711.751 1156.59C712.424 1156.81 713.027 1157.13 713.562 1157.56C714.098 1157.98 714.54 1158.49 714.891 1159.1C715.241 1159.71 715.478 1160.4 715.601 1161.18ZM718.227 1171V1156.45H723.412C724.538 1156.45 725.474 1156.65 726.217 1157.04C726.965 1157.43 727.524 1157.96 727.893 1158.65C728.262 1159.33 728.447 1160.12 728.447 1161.01C728.447 1161.9 728.26 1162.69 727.886 1163.37C727.517 1164.04 726.958 1164.56 726.21 1164.93C725.467 1165.31 724.531 1165.5 723.404 1165.5H719.477V1163.61H723.206C723.916 1163.61 724.493 1163.5 724.939 1163.3C725.388 1163.1 725.717 1162.8 725.926 1162.41C726.134 1162.03 726.238 1161.56 726.238 1161.01C726.238 1160.46 726.132 1159.99 725.919 1159.59C725.71 1159.18 725.381 1158.88 724.931 1158.66C724.486 1158.45 723.902 1158.34 723.177 1158.34H720.422V1171H718.227ZM725.407 1164.44L729.001 1171H726.501L722.978 1164.44H725.407ZM731.118 1171V1156.45H740.237V1158.34H733.312V1162.78H739.761V1164.66H733.312V1169.11H740.322V1171H731.118ZM742.451 1158.34V1156.45H753.708V1158.34H749.17V1171H746.982V1158.34H742.451ZM755.706 1171H753.376L758.61 1156.45H761.146L766.38 1171H764.051L759.939 1159.1H759.825L755.706 1171ZM756.096 1165.3H763.653V1167.15H756.096V1165.3ZM768.481 1171V1156.45H773.665C774.792 1156.45 775.728 1156.65 776.471 1157.04C777.219 1157.43 777.778 1157.96 778.147 1158.65C778.516 1159.33 778.701 1160.12 778.701 1161.01C778.701 1161.9 778.514 1162.69 778.14 1163.37C777.771 1164.04 777.212 1164.56 776.464 1164.93C775.72 1165.31 774.785 1165.5 773.658 1165.5H769.731V1163.61H773.46C774.17 1163.61 774.747 1163.5 775.192 1163.3C775.642 1163.1 775.971 1162.8 776.18 1162.41C776.388 1162.03 776.492 1161.56 776.492 1161.01C776.492 1160.46 776.386 1159.99 776.173 1159.59C775.964 1159.18 775.635 1158.88 775.185 1158.66C774.74 1158.45 774.156 1158.34 773.431 1158.34H770.675V1171H768.481ZM775.661 1164.44L779.255 1171H776.755L773.232 1164.44H775.661ZM783.566 1156.45V1171H781.371V1156.45H783.566ZM787.991 1171H785.661L790.896 1156.45H793.431L798.665 1171H796.336L792.224 1159.1H792.11L787.991 1171ZM788.381 1165.3H795.938V1167.15H788.381V1165.3ZM798.33 1158.34V1156.45H809.587V1158.34H805.049V1171H802.861V1158.34H798.33Z" fill="white"/>
<path d="M899.5 1320.5V1453.24L820.341 1509.5H587.5V1320.5H899.5Z" fill="#312E29" stroke="black"/>
<path d="M714.233 1414.73C714.233 1416.28 713.949 1417.62 713.381 1418.73C712.813 1419.85 712.034 1420.7 711.044 1421.3C710.059 1421.9 708.939 1422.2 707.685 1422.2C706.425 1422.2 705.301 1421.9 704.311 1421.3C703.326 1420.7 702.55 1419.84 701.982 1418.73C701.413 1417.61 701.129 1416.28 701.129 1414.73C701.129 1413.17 701.413 1411.84 701.982 1410.73C702.55 1409.61 703.326 1408.75 704.311 1408.16C705.301 1407.56 706.425 1407.26 707.685 1407.26C708.939 1407.26 710.059 1407.56 711.044 1408.16C712.034 1408.75 712.813 1409.61 713.381 1410.73C713.949 1411.84 714.233 1413.17 714.233 1414.73ZM712.06 1414.73C712.06 1413.54 711.868 1412.55 711.484 1411.74C711.106 1410.92 710.585 1410.31 709.922 1409.89C709.264 1409.47 708.518 1409.26 707.685 1409.26C706.847 1409.26 706.098 1409.47 705.44 1409.89C704.782 1410.31 704.261 1410.92 703.878 1411.74C703.499 1412.55 703.31 1413.54 703.31 1414.73C703.31 1415.91 703.499 1416.91 703.878 1417.72C704.261 1418.53 704.782 1419.15 705.44 1419.57C706.098 1419.99 706.847 1420.2 707.685 1420.2C708.518 1420.2 709.264 1419.99 709.922 1419.57C710.585 1419.15 711.106 1418.53 711.484 1417.72C711.868 1416.91 712.06 1415.91 712.06 1414.73ZM716.969 1422V1407.45H725.989V1409.34H719.164V1413.78H725.343V1415.66H719.164V1422H716.969ZM728.688 1422V1407.45H737.708V1409.34H730.882V1413.78H737.061V1415.66H730.882V1422H728.688ZM742.601 1407.45V1422H740.407V1407.45H742.601ZM757.878 1412.18H755.662C755.577 1411.71 755.418 1411.29 755.186 1410.93C754.954 1410.57 754.67 1410.27 754.334 1410.02C753.998 1409.77 753.622 1409.58 753.205 1409.45C752.793 1409.32 752.355 1409.26 751.891 1409.26C751.053 1409.26 750.302 1409.47 749.64 1409.89C748.981 1410.31 748.461 1410.93 748.077 1411.74C747.698 1412.56 747.509 1413.55 747.509 1414.73C747.509 1415.91 747.698 1416.91 748.077 1417.72C748.461 1418.54 748.984 1419.15 749.647 1419.57C750.31 1419.99 751.055 1420.2 751.884 1420.2C752.343 1420.2 752.779 1420.13 753.191 1420.01C753.607 1419.88 753.984 1419.7 754.32 1419.45C754.656 1419.2 754.94 1418.9 755.172 1418.55C755.409 1418.19 755.572 1417.78 755.662 1417.31L757.878 1417.32C757.76 1418.03 757.53 1418.69 757.189 1419.29C756.853 1419.89 756.42 1420.41 755.89 1420.84C755.364 1421.27 754.763 1421.61 754.086 1421.84C753.408 1422.08 752.67 1422.2 751.87 1422.2C750.61 1422.2 749.488 1421.9 748.503 1421.3C747.518 1420.7 746.742 1419.84 746.174 1418.73C745.61 1417.61 745.328 1416.28 745.328 1414.73C745.328 1413.17 745.613 1411.84 746.181 1410.73C746.749 1409.61 747.525 1408.75 748.51 1408.16C749.495 1407.56 750.615 1407.26 751.87 1407.26C752.641 1407.26 753.361 1407.37 754.029 1407.59C754.701 1407.81 755.305 1408.13 755.84 1408.56C756.375 1408.98 756.818 1409.49 757.168 1410.1C757.518 1410.71 757.755 1411.4 757.878 1412.18ZM760.504 1422V1407.45H769.624V1409.34H762.699V1413.78H769.148V1415.66H762.699V1420.11H769.709V1422H760.504ZM780.043 1407.45V1422H777.848V1407.45H780.043ZM785.433 1407.45V1422H783.239V1407.45H785.433Z" fill="white"/>
<rect x="587.5" y="21.5" width="325" height="163" fill="#312E29" stroke="black"/>
<path d="M661.598 95.4545H664.261L668.892 106.761H669.062L673.693 95.4545H676.357V110H674.268V99.4744H674.134L669.844 109.979H668.111L663.821 99.4673H663.686V110H661.598V95.4545ZM679.547 110V95.4545H688.667V97.3438H681.742V101.776H688.191V103.658H681.742V108.111H688.752V110H679.547ZM703.338 95.4545V110H701.321L693.928 99.3324H693.793V110H691.598V95.4545H693.629L701.03 106.136H701.165V95.4545H703.338ZM708.194 95.4545V96.8182C708.194 97.2206 708.118 97.6444 707.967 98.0895C707.82 98.5298 707.612 98.9536 707.342 99.3608C707.072 99.768 706.755 100.118 706.39 100.412L705.339 99.6591C705.618 99.2519 705.86 98.8187 706.064 98.3594C706.272 97.9001 706.376 97.3935 706.376 96.8395V95.4545H708.194ZM718.457 99.2756C718.381 98.6032 718.069 98.0824 717.52 97.7131C716.97 97.339 716.279 97.152 715.446 97.152C714.849 97.152 714.333 97.2467 713.897 97.4361C713.462 97.6207 713.123 97.8764 712.882 98.2031C712.645 98.5251 712.527 98.892 712.527 99.304C712.527 99.6496 712.607 99.9479 712.768 100.199C712.934 100.45 713.149 100.661 713.414 100.831C713.684 100.997 713.973 101.136 714.281 101.25C714.589 101.359 714.885 101.449 715.169 101.52L716.589 101.889C717.053 102.003 717.529 102.157 718.017 102.351C718.504 102.545 718.957 102.801 719.373 103.118C719.79 103.435 720.126 103.828 720.382 104.297C720.642 104.766 720.772 105.327 720.772 105.98C720.772 106.804 720.559 107.536 720.133 108.175C719.712 108.814 719.099 109.318 718.294 109.688C717.493 110.057 716.525 110.241 715.389 110.241C714.3 110.241 713.358 110.069 712.562 109.723C711.767 109.377 711.144 108.887 710.694 108.253C710.244 107.614 709.996 106.856 709.949 105.98H712.15C712.193 106.506 712.363 106.944 712.662 107.294C712.965 107.64 713.35 107.898 713.819 108.068C714.293 108.234 714.811 108.317 715.375 108.317C715.995 108.317 716.547 108.22 717.029 108.026C717.517 107.827 717.901 107.552 718.18 107.202C718.459 106.847 718.599 106.432 718.599 105.959C718.599 105.528 718.476 105.175 718.23 104.901C717.988 104.626 717.659 104.399 717.243 104.219C716.831 104.039 716.364 103.88 715.843 103.743L714.125 103.274C712.96 102.957 712.037 102.491 711.355 101.875C710.678 101.259 710.339 100.445 710.339 99.4318C710.339 98.5937 710.566 97.8622 711.021 97.2372C711.475 96.6122 712.091 96.1269 712.868 95.7812C713.644 95.4309 714.52 95.2557 715.495 95.2557C716.48 95.2557 717.349 95.4285 718.102 95.7741C718.859 96.1198 719.456 96.5956 719.892 97.2017C720.327 97.803 720.555 98.4943 720.574 99.2756H718.457ZM728.688 110V95.4545H733.873C734.999 95.4545 735.935 95.6487 736.678 96.0369C737.426 96.4252 737.985 96.9626 738.354 97.6491C738.723 98.331 738.908 99.1193 738.908 100.014C738.908 100.904 738.721 101.688 738.347 102.365C737.978 103.037 737.419 103.561 736.671 103.935C735.927 104.309 734.992 104.496 733.865 104.496H729.938V102.607H733.667C734.377 102.607 734.954 102.505 735.4 102.301C735.849 102.098 736.178 101.802 736.387 101.413C736.595 101.025 736.699 100.559 736.699 100.014C736.699 99.465 736.593 98.9891 736.38 98.5866C736.171 98.1842 735.842 97.8764 735.392 97.6634C734.947 97.4455 734.363 97.3366 733.638 97.3366H730.882V110H728.688ZM735.868 103.438L739.462 110H736.962L733.439 103.438H735.868ZM741.578 110V95.4545H750.698V97.3438H743.773V101.776H750.222V103.658H743.773V108.111H750.783V110H741.578ZM761.562 99.2756C761.487 98.6032 761.174 98.0824 760.625 97.7131C760.076 97.339 759.384 97.152 758.551 97.152C757.955 97.152 757.438 97.2467 757.003 97.4361C756.567 97.6207 756.229 97.8764 755.987 98.2031C755.75 98.5251 755.632 98.892 755.632 99.304C755.632 99.6496 755.713 99.9479 755.874 100.199C756.039 100.45 756.255 100.661 756.52 100.831C756.79 100.997 757.079 101.136 757.386 101.25C757.694 101.359 757.99 101.449 758.274 101.52L759.695 101.889C760.159 102.003 760.634 102.157 761.122 102.351C761.61 102.545 762.062 102.801 762.479 103.118C762.895 103.435 763.232 103.828 763.487 104.297C763.748 104.766 763.878 105.327 763.878 105.98C763.878 106.804 763.665 107.536 763.239 108.175C762.817 108.814 762.204 109.318 761.399 109.688C760.599 110.057 759.631 110.241 758.494 110.241C757.405 110.241 756.463 110.069 755.668 109.723C754.872 109.377 754.25 108.887 753.8 108.253C753.35 107.614 753.101 106.856 753.054 105.98H755.256C755.298 106.506 755.469 106.944 755.767 107.294C756.07 107.64 756.456 107.898 756.925 108.068C757.398 108.234 757.917 108.317 758.48 108.317C759.1 108.317 759.652 108.22 760.135 108.026C760.623 107.827 761.006 107.552 761.286 107.202C761.565 106.847 761.705 106.432 761.705 105.959C761.705 105.528 761.581 105.175 761.335 104.901C761.094 104.626 760.765 104.399 760.348 104.219C759.936 104.039 759.47 103.88 758.949 103.743L757.23 103.274C756.065 102.957 755.142 102.491 754.46 101.875C753.783 101.259 753.445 100.445 753.445 99.4318C753.445 98.5937 753.672 97.8622 754.126 97.2372C754.581 96.6122 755.196 96.1269 755.973 95.7812C756.75 95.4309 757.625 95.2557 758.601 95.2557C759.586 95.2557 760.455 95.4285 761.207 95.7741C761.965 96.1198 762.562 96.5956 762.997 97.2017C763.433 97.803 763.66 98.4943 763.679 99.2756H761.562ZM765.783 97.3438V95.4545H777.04V97.3438H772.502V110H770.314V97.3438H765.783ZM779.528 110V95.4545H784.712C785.839 95.4545 786.774 95.6487 787.518 96.0369C788.266 96.4252 788.825 96.9626 789.194 97.6491C789.563 98.331 789.748 99.1193 789.748 100.014C789.748 100.904 789.561 101.688 789.187 102.365C788.817 103.037 788.259 103.561 787.511 103.935C786.767 104.309 785.832 104.496 784.705 104.496H780.778V102.607H784.506C785.217 102.607 785.794 102.505 786.239 102.301C786.689 102.098 787.018 101.802 787.227 101.413C787.435 101.025 787.539 100.559 787.539 100.014C787.539 99.465 787.433 98.9891 787.219 98.5866C787.011 98.1842 786.682 97.8764 786.232 97.6634C785.787 97.4455 785.202 97.3366 784.478 97.3366H781.722V110H779.528ZM786.708 103.438L790.302 110H787.802L784.279 103.438H786.708ZM805.053 102.727C805.053 104.28 804.769 105.616 804.201 106.733C803.633 107.846 802.854 108.703 801.864 109.304C800.879 109.901 799.76 110.199 798.505 110.199C797.246 110.199 796.121 109.901 795.131 109.304C794.147 108.703 793.37 107.843 792.802 106.726C792.234 105.608 791.95 104.276 791.95 102.727C791.95 101.174 792.234 99.8414 792.802 98.7287C793.37 97.6113 794.147 96.7543 795.131 96.1577C796.121 95.5563 797.246 95.2557 798.505 95.2557C799.76 95.2557 800.879 95.5563 801.864 96.1577C802.854 96.7543 803.633 97.6113 804.201 98.7287C804.769 99.8414 805.053 101.174 805.053 102.727ZM802.88 102.727C802.88 101.544 802.688 100.547 802.305 99.7372C801.926 98.9228 801.405 98.3073 800.742 97.8906C800.084 97.4692 799.338 97.2585 798.505 97.2585C797.667 97.2585 796.919 97.4692 796.261 97.8906C795.603 98.3073 795.082 98.9228 794.698 99.7372C794.319 100.547 794.13 101.544 794.13 102.727C794.13 103.911 794.319 104.91 794.698 105.724C795.082 106.534 795.603 107.15 796.261 107.571C796.919 107.988 797.667 108.196 798.505 108.196C799.338 108.196 800.084 107.988 800.742 107.571C801.405 107.15 801.926 106.534 802.305 105.724C802.688 104.91 802.88 103.911 802.88 102.727ZM820.424 102.727C820.424 104.28 820.14 105.616 819.572 106.733C819.004 107.846 818.225 108.703 817.235 109.304C816.251 109.901 815.131 110.199 813.876 110.199C812.617 110.199 811.492 109.901 810.502 109.304C809.518 108.703 808.741 107.843 808.173 106.726C807.605 105.608 807.321 104.276 807.321 102.727C807.321 101.174 807.605 99.8414 808.173 98.7287C808.741 97.6113 809.518 96.7543 810.502 96.1577C811.492 95.5563 812.617 95.2557 813.876 95.2557C815.131 95.2557 816.251 95.5563 817.235 96.1577C818.225 96.7543 819.004 97.6113 819.572 98.7287C820.14 99.8414 820.424 101.174 820.424 102.727ZM818.251 102.727C818.251 101.544 818.059 100.547 817.676 99.7372C817.297 98.9228 816.776 98.3073 816.113 97.8906C815.455 97.4692 814.709 97.2585 813.876 97.2585C813.038 97.2585 812.29 97.4692 811.632 97.8906C810.974 98.3073 810.453 98.9228 810.069 99.7372C809.69 100.547 809.501 101.544 809.501 102.727C809.501 103.911 809.69 104.91 810.069 105.724C810.453 106.534 810.974 107.15 811.632 107.571C812.29 107.988 813.038 108.196 813.876 108.196C814.709 108.196 815.455 107.988 816.113 107.571C816.776 107.15 817.297 106.534 817.676 105.724C818.059 104.91 818.251 103.911 818.251 102.727ZM823.161 95.4545H825.824L830.455 106.761H830.625L835.256 95.4545H837.919V110H835.831V99.4744H835.696L831.406 109.979H829.673L825.384 99.4673H825.249V110H823.161V95.4545Z" fill="white"/>
<path d="M486.5 21.5V184.5H161.5V21.5H486.5Z" fill="#312E29" stroke="black"/>
<rect x="161" y="858" width="426" height="100" fill="#4C4C4C"/>
<rect x="161.5" y="544.5" width="188" height="313" fill="#312E29" stroke="black"/>
<path d="M344.5 958.5V1271.5H161.5V958.5H344.5Z" fill="#312E29" stroke="black"/>
<rect x="161.5" y="324.5" width="188" height="149" fill="#312E29" stroke="black"/>
<rect x="587.5" y="436.5" width="188" height="149" fill="#312E29" stroke="black"/>
<path d="M292.137 1373.5L344.5 1466.13V1570.5H161.5V1373.5H292.137Z" fill="#312E29" stroke="black"/>
<path d="M221.446 110L217.412 95.4545H219.72L222.554 106.719H222.689L225.636 95.4545H227.923L230.871 106.726H231.006L233.832 95.4545H236.148L232.107 110H229.898L226.837 99.1051H226.723L223.662 110H221.446ZM250.061 102.727C250.061 104.28 249.777 105.616 249.209 106.733C248.641 107.846 247.862 108.703 246.872 109.304C245.887 109.901 244.768 110.199 243.513 110.199C242.253 110.199 241.129 109.901 240.139 109.304C239.154 108.703 238.378 107.843 237.81 106.726C237.241 105.608 236.957 104.276 236.957 102.727C236.957 101.174 237.241 99.8414 237.81 98.7287C238.378 97.6113 239.154 96.7543 240.139 96.1577C241.129 95.5563 242.253 95.2557 243.513 95.2557C244.768 95.2557 245.887 95.5563 246.872 96.1577C247.862 96.7543 248.641 97.6113 249.209 98.7287C249.777 99.8414 250.061 101.174 250.061 102.727ZM247.888 102.727C247.888 101.544 247.696 100.547 247.312 99.7372C246.934 98.9228 246.413 98.3073 245.75 97.8906C245.092 97.4692 244.346 97.2585 243.513 97.2585C242.675 97.2585 241.927 97.4692 241.268 97.8906C240.61 98.3073 240.089 98.9228 239.706 99.7372C239.327 100.547 239.138 101.544 239.138 102.727C239.138 103.911 239.327 104.91 239.706 105.724C240.089 106.534 240.61 107.15 241.268 107.571C241.927 107.988 242.675 108.196 243.513 108.196C244.346 108.196 245.092 107.988 245.75 107.571C246.413 107.15 246.934 106.534 247.312 105.724C247.696 104.91 247.888 103.911 247.888 102.727ZM252.797 95.4545H255.461L260.091 106.761H260.262L264.892 95.4545H267.556V110H265.468V99.4744H265.333L261.043 109.979H259.31L255.02 99.4673H254.885V110H252.797V95.4545ZM270.746 110V95.4545H279.866V97.3438H272.941V101.776H279.39V103.658H272.941V108.111H279.951V110H270.746ZM294.537 95.4545V110H292.52L285.127 99.3324H284.992V110H282.797V95.4545H284.828L292.229 106.136H292.364V95.4545H294.537ZM299.393 95.4545V96.8182C299.393 97.2206 299.318 97.6444 299.166 98.0895C299.019 98.5298 298.811 98.9536 298.541 99.3608C298.271 99.768 297.954 100.118 297.589 100.412L296.538 99.6591C296.818 99.2519 297.059 98.8187 297.263 98.3594C297.471 97.9001 297.575 97.3935 297.575 96.8395V95.4545H299.393ZM309.656 99.2756C309.58 98.6032 309.268 98.0824 308.719 97.7131C308.17 97.339 307.478 97.152 306.645 97.152C306.048 97.152 305.532 97.2467 305.097 97.4361C304.661 97.6207 304.322 97.8764 304.081 98.2031C303.844 98.5251 303.726 98.892 303.726 99.304C303.726 99.6496 303.806 99.9479 303.967 100.199C304.133 100.45 304.348 100.661 304.614 100.831C304.884 100.997 305.172 101.136 305.48 101.25C305.788 101.359 306.084 101.449 306.368 101.52L307.788 101.889C308.252 102.003 308.728 102.157 309.216 102.351C309.704 102.545 310.156 102.801 310.572 103.118C310.989 103.435 311.325 103.828 311.581 104.297C311.841 104.766 311.972 105.327 311.972 105.98C311.972 106.804 311.759 107.536 311.332 108.175C310.911 108.814 310.298 109.318 309.493 109.688C308.693 110.057 307.724 110.241 306.588 110.241C305.499 110.241 304.557 110.069 303.761 109.723C302.966 109.377 302.343 108.887 301.893 108.253C301.444 107.614 301.195 106.856 301.148 105.98H303.349C303.392 106.506 303.563 106.944 303.861 107.294C304.164 107.64 304.55 107.898 305.018 108.068C305.492 108.234 306.01 108.317 306.574 108.317C307.194 108.317 307.746 108.22 308.229 108.026C308.716 107.827 309.1 107.552 309.379 107.202C309.659 106.847 309.798 106.432 309.798 105.959C309.798 105.528 309.675 105.175 309.429 104.901C309.188 104.626 308.858 104.399 308.442 104.219C308.03 104.039 307.563 103.88 307.043 103.743L305.324 103.274C304.159 102.957 303.236 102.491 302.554 101.875C301.877 101.259 301.538 100.445 301.538 99.4318C301.538 98.5937 301.766 97.8622 302.22 97.2372C302.675 96.6122 303.29 96.1269 304.067 95.7812C304.843 95.4309 305.719 95.2557 306.695 95.2557C307.679 95.2557 308.548 95.4285 309.301 95.7741C310.059 96.1198 310.655 96.5956 311.091 97.2017C311.527 97.803 311.754 98.4943 311.773 99.2756H309.656ZM319.887 110V95.4545H325.072C326.199 95.4545 327.134 95.6487 327.877 96.0369C328.625 96.4252 329.184 96.9626 329.553 97.6491C329.923 98.331 330.107 99.1193 330.107 100.014C330.107 100.904 329.92 101.688 329.546 102.365C329.177 103.037 328.618 103.561 327.87 103.935C327.127 104.309 326.192 104.496 325.065 104.496H321.137V102.607H324.866C325.576 102.607 326.154 102.505 326.599 102.301C327.049 102.098 327.378 101.802 327.586 101.413C327.794 101.025 327.898 100.559 327.898 100.014C327.898 99.465 327.792 98.9891 327.579 98.5866C327.371 98.1842 327.041 97.8764 326.592 97.6634C326.147 97.4455 325.562 97.3366 324.837 97.3366H322.082V110H319.887ZM327.067 103.438L330.661 110H328.161L324.638 103.438H327.067ZM332.778 110V95.4545H341.897V97.3438H334.972V101.776H341.421V103.658H334.972V108.111H341.982V110H332.778ZM352.762 99.2756C352.686 98.6032 352.373 98.0824 351.824 97.7131C351.275 97.339 350.584 97.152 349.75 97.152C349.154 97.152 348.638 97.2467 348.202 97.4361C347.766 97.6207 347.428 97.8764 347.186 98.2031C346.95 98.5251 346.831 98.892 346.831 99.304C346.831 99.6496 346.912 99.9479 347.073 100.199C347.239 100.45 347.454 100.661 347.719 100.831C347.989 100.997 348.278 101.136 348.586 101.25C348.893 101.359 349.189 101.449 349.473 101.52L350.894 101.889C351.358 102.003 351.834 102.157 352.321 102.351C352.809 102.545 353.261 102.801 353.678 103.118C354.095 103.435 354.431 103.828 354.686 104.297C354.947 104.766 355.077 105.327 355.077 105.98C355.077 106.804 354.864 107.536 354.438 108.175C354.016 108.814 353.403 109.318 352.598 109.688C351.798 110.057 350.83 110.241 349.694 110.241C348.605 110.241 347.662 110.069 346.867 109.723C346.071 109.377 345.449 108.887 344.999 108.253C344.549 107.614 344.301 106.856 344.253 105.98H346.455C346.498 106.506 346.668 106.944 346.966 107.294C347.269 107.64 347.655 107.898 348.124 108.068C348.597 108.234 349.116 108.317 349.679 108.317C350.3 108.317 350.851 108.22 351.334 108.026C351.822 107.827 352.205 107.552 352.485 107.202C352.764 106.847 352.904 106.432 352.904 105.959C352.904 105.528 352.781 105.175 352.534 104.901C352.293 104.626 351.964 104.399 351.547 104.219C351.135 104.039 350.669 103.88 350.148 103.743L348.429 103.274C347.265 102.957 346.341 102.491 345.659 101.875C344.982 101.259 344.644 100.445 344.644 99.4318C344.644 98.5937 344.871 97.8622 345.326 97.2372C345.78 96.6122 346.396 96.1269 347.172 95.7812C347.949 95.4309 348.825 95.2557 349.8 95.2557C350.785 95.2557 351.654 95.4285 352.407 95.7741C353.164 96.1198 353.761 96.5956 354.196 97.2017C354.632 97.803 354.859 98.4943 354.878 99.2756H352.762ZM356.982 97.3438V95.4545H368.239V97.3438H363.701V110H361.513V97.3438H356.982ZM370.727 110V95.4545H375.912C377.038 95.4545 377.974 95.6487 378.717 96.0369C379.465 96.4252 380.024 96.9626 380.393 97.6491C380.762 98.331 380.947 99.1193 380.947 100.014C380.947 100.904 380.76 101.688 380.386 102.365C380.017 103.037 379.458 103.561 378.71 103.935C377.967 104.309 377.031 104.496 375.904 104.496H371.977V102.607H375.706C376.416 102.607 376.993 102.505 377.439 102.301C377.888 102.098 378.217 101.802 378.426 101.413C378.634 101.025 378.738 100.559 378.738 100.014C378.738 99.465 378.632 98.9891 378.419 98.5866C378.21 98.1842 377.881 97.8764 377.431 97.6634C376.986 97.4455 376.402 97.3366 375.677 97.3366H372.922V110H370.727ZM377.907 103.438L381.501 110H379.001L375.478 103.438H377.907ZM396.252 102.727C396.252 104.28 395.968 105.616 395.4 106.733C394.832 107.846 394.053 108.703 393.064 109.304C392.079 109.901 390.959 110.199 389.704 110.199C388.445 110.199 387.32 109.901 386.331 109.304C385.346 108.703 384.569 107.843 384.001 106.726C383.433 105.608 383.149 104.276 383.149 102.727C383.149 101.174 383.433 99.8414 384.001 98.7287C384.569 97.6113 385.346 96.7543 386.331 96.1577C387.32 95.5563 388.445 95.2557 389.704 95.2557C390.959 95.2557 392.079 95.5563 393.064 96.1577C394.053 96.7543 394.832 97.6113 395.4 98.7287C395.968 99.8414 396.252 101.174 396.252 102.727ZM394.079 102.727C394.079 101.544 393.887 100.547 393.504 99.7372C393.125 98.9228 392.604 98.3073 391.941 97.8906C391.283 97.4692 390.538 97.2585 389.704 97.2585C388.866 97.2585 388.118 97.4692 387.46 97.8906C386.802 98.3073 386.281 98.9228 385.897 99.7372C385.519 100.547 385.329 101.544 385.329 102.727C385.329 103.911 385.519 104.91 385.897 105.724C386.281 106.534 386.802 107.15 387.46 107.571C388.118 107.988 388.866 108.196 389.704 108.196C390.538 108.196 391.283 107.988 391.941 107.571C392.604 107.15 393.125 106.534 393.504 105.724C393.887 104.91 394.079 103.911 394.079 102.727ZM411.624 102.727C411.624 104.28 411.339 105.616 410.771 106.733C410.203 107.846 409.424 108.703 408.435 109.304C407.45 109.901 406.33 110.199 405.075 110.199C403.816 110.199 402.691 109.901 401.702 109.304C400.717 108.703 399.94 107.843 399.372 106.726C398.804 105.608 398.52 104.276 398.52 102.727C398.52 101.174 398.804 99.8414 399.372 98.7287C399.94 97.6113 400.717 96.7543 401.702 96.1577C402.691 95.5563 403.816 95.2557 405.075 95.2557C406.33 95.2557 407.45 95.5563 408.435 96.1577C409.424 96.7543 410.203 97.6113 410.771 98.7287C411.339 99.8414 411.624 101.174 411.624 102.727ZM409.45 102.727C409.45 101.544 409.259 100.547 408.875 99.7372C408.496 98.9228 407.975 98.3073 407.312 97.8906C406.654 97.4692 405.909 97.2585 405.075 97.2585C404.237 97.2585 403.489 97.4692 402.831 97.8906C402.173 98.3073 401.652 98.9228 401.268 99.7372C400.89 100.547 400.7 101.544 400.7 102.727C400.7 103.911 400.89 104.91 401.268 105.724C401.652 106.534 402.173 107.15 402.831 107.571C403.489 107.988 404.237 108.196 405.075 108.196C405.909 108.196 406.654 107.988 407.312 107.571C407.975 107.15 408.496 106.534 408.875 105.724C409.259 104.91 409.45 103.911 409.45 102.727ZM414.36 95.4545H417.023L421.654 106.761H421.824L426.455 95.4545H429.118V110H427.03V99.4744H426.895L422.605 109.979H420.873L416.583 99.4673H416.448V110H414.36V95.4545Z" fill="white"/>
<path d="M212.531 395.276C212.455 394.603 212.143 394.082 211.594 393.713C211.045 393.339 210.353 393.152 209.52 393.152C208.923 393.152 208.407 393.247 207.972 393.436C207.536 393.621 207.197 393.876 206.956 394.203C206.719 394.525 206.601 394.892 206.601 395.304C206.601 395.65 206.681 395.948 206.842 396.199C207.008 396.45 207.223 396.661 207.489 396.831C207.759 396.997 208.047 397.136 208.355 397.25C208.663 397.359 208.959 397.449 209.243 397.52L210.663 397.889C211.127 398.003 211.603 398.157 212.091 398.351C212.579 398.545 213.031 398.801 213.447 399.118C213.864 399.435 214.2 399.828 214.456 400.297C214.716 400.766 214.847 401.327 214.847 401.98C214.847 402.804 214.634 403.536 214.207 404.175C213.786 404.814 213.173 405.318 212.368 405.688C211.568 406.057 210.599 406.241 209.463 406.241C208.374 406.241 207.432 406.069 206.636 405.723C205.841 405.377 205.218 404.887 204.768 404.253C204.319 403.614 204.07 402.856 204.023 401.98H206.224C206.267 402.506 206.438 402.944 206.736 403.294C207.039 403.64 207.425 403.898 207.893 404.068C208.367 404.234 208.885 404.317 209.449 404.317C210.069 404.317 210.621 404.22 211.104 404.026C211.591 403.827 211.975 403.552 212.254 403.202C212.534 402.847 212.673 402.432 212.673 401.959C212.673 401.528 212.55 401.175 212.304 400.901C212.063 400.626 211.733 400.399 211.317 400.219C210.905 400.039 210.438 399.88 209.918 399.743L208.199 399.274C207.034 398.957 206.111 398.491 205.429 397.875C204.752 397.259 204.413 396.445 204.413 395.432C204.413 394.594 204.641 393.862 205.095 393.237C205.55 392.612 206.165 392.127 206.942 391.781C207.718 391.431 208.594 391.256 209.57 391.256C210.554 391.256 211.423 391.429 212.176 391.774C212.934 392.12 213.53 392.596 213.966 393.202C214.402 393.803 214.629 394.494 214.648 395.276H212.531ZM216.752 393.344V391.455H228.009V393.344H223.471V406H221.283V393.344H216.752ZM242.506 398.727C242.506 400.28 242.222 401.616 241.654 402.733C241.086 403.846 240.307 404.703 239.317 405.304C238.333 405.901 237.213 406.199 235.958 406.199C234.699 406.199 233.574 405.901 232.585 405.304C231.6 404.703 230.823 403.843 230.255 402.726C229.687 401.608 229.403 400.276 229.403 398.727C229.403 397.174 229.687 395.841 230.255 394.729C230.823 393.611 231.6 392.754 232.585 392.158C233.574 391.556 234.699 391.256 235.958 391.256C237.213 391.256 238.333 391.556 239.317 392.158C240.307 392.754 241.086 393.611 241.654 394.729C242.222 395.841 242.506 397.174 242.506 398.727ZM240.333 398.727C240.333 397.544 240.141 396.547 239.758 395.737C239.379 394.923 238.858 394.307 238.195 393.891C237.537 393.469 236.791 393.259 235.958 393.259C235.12 393.259 234.372 393.469 233.714 393.891C233.056 394.307 232.535 394.923 232.151 395.737C231.772 396.547 231.583 397.544 231.583 398.727C231.583 399.911 231.772 400.91 232.151 401.724C232.535 402.534 233.056 403.15 233.714 403.571C234.372 403.988 235.12 404.196 235.958 404.196C236.791 404.196 237.537 403.988 238.195 403.571C238.858 403.15 239.379 402.534 239.758 401.724C240.141 400.91 240.333 399.911 240.333 398.727ZM245.243 406V391.455H250.427C251.554 391.455 252.489 391.649 253.233 392.037C253.981 392.425 254.539 392.963 254.909 393.649C255.278 394.331 255.463 395.119 255.463 396.014C255.463 396.904 255.276 397.688 254.902 398.365C254.532 399.037 253.974 399.561 253.225 399.935C252.482 400.309 251.547 400.496 250.42 400.496H246.493V398.607H250.221C250.931 398.607 251.509 398.505 251.954 398.301C252.404 398.098 252.733 397.802 252.941 397.413C253.15 397.025 253.254 396.559 253.254 396.014C253.254 395.465 253.147 394.989 252.934 394.587C252.726 394.184 252.397 393.876 251.947 393.663C251.502 393.446 250.917 393.337 250.193 393.337H247.437V406H245.243ZM252.423 399.438L256.017 406H253.517L249.994 399.438H252.423ZM259.362 406H257.032L262.267 391.455H264.802L270.037 406H267.707L263.595 394.097H263.481L259.362 406ZM259.752 400.304H267.309V402.151H259.752V400.304ZM281.297 396.05C281.16 395.619 280.975 395.233 280.743 394.892C280.516 394.546 280.244 394.253 279.926 394.011C279.609 393.765 279.247 393.578 278.84 393.45C278.437 393.322 277.995 393.259 277.512 393.259C276.693 393.259 275.954 393.469 275.296 393.891C274.638 394.312 274.117 394.93 273.733 395.744C273.355 396.554 273.165 397.546 273.165 398.72C273.165 399.899 273.357 400.896 273.74 401.71C274.124 402.525 274.65 403.143 275.317 403.564C275.985 403.985 276.745 404.196 277.597 404.196C278.388 404.196 279.077 404.035 279.664 403.713C280.256 403.391 280.712 402.937 281.034 402.349C281.361 401.758 281.525 401.062 281.525 400.261L282.093 400.368H277.931V398.557H283.648V400.212C283.648 401.433 283.388 402.494 282.867 403.393C282.351 404.288 281.636 404.98 280.722 405.467C279.813 405.955 278.771 406.199 277.597 406.199C276.281 406.199 275.125 405.896 274.131 405.29C273.141 404.684 272.37 403.824 271.816 402.712C271.262 401.594 270.985 400.268 270.985 398.734C270.985 397.574 271.146 396.533 271.468 395.609C271.79 394.686 272.242 393.902 272.824 393.259C273.411 392.61 274.1 392.115 274.891 391.774C275.686 391.429 276.555 391.256 277.498 391.256C278.283 391.256 279.015 391.372 279.692 391.604C280.374 391.836 280.98 392.165 281.51 392.591C282.045 393.017 282.488 393.524 282.838 394.111C283.189 394.693 283.426 395.339 283.549 396.05H281.297ZM286.434 406V391.455H295.553V393.344H288.629V397.776H295.077V399.658H288.629V404.111H295.638V406H286.434ZM305.972 391.455V406H303.778V391.455H305.972Z" fill="white"/>
<path d="M636.531 507.276C636.455 506.603 636.143 506.082 635.594 505.713C635.045 505.339 634.353 505.152 633.52 505.152C632.923 505.152 632.407 505.247 631.972 505.436C631.536 505.621 631.197 505.876 630.956 506.203C630.719 506.525 630.601 506.892 630.601 507.304C630.601 507.65 630.681 507.948 630.842 508.199C631.008 508.45 631.223 508.661 631.489 508.831C631.759 508.997 632.047 509.136 632.355 509.25C632.663 509.359 632.959 509.449 633.243 509.52L634.663 509.889C635.127 510.003 635.603 510.157 636.091 510.351C636.579 510.545 637.031 510.801 637.447 511.118C637.864 511.435 638.2 511.828 638.456 512.297C638.716 512.766 638.847 513.327 638.847 513.98C638.847 514.804 638.634 515.536 638.207 516.175C637.786 516.814 637.173 517.318 636.368 517.688C635.568 518.057 634.599 518.241 633.463 518.241C632.374 518.241 631.432 518.069 630.636 517.723C629.841 517.377 629.218 516.887 628.768 516.253C628.319 515.614 628.07 514.856 628.023 513.98H630.224C630.267 514.506 630.438 514.944 630.736 515.294C631.039 515.64 631.425 515.898 631.893 516.068C632.367 516.234 632.885 516.317 633.449 516.317C634.069 516.317 634.621 516.22 635.104 516.026C635.591 515.827 635.975 515.552 636.254 515.202C636.534 514.847 636.673 514.432 636.673 513.959C636.673 513.528 636.55 513.175 636.304 512.901C636.063 512.626 635.733 512.399 635.317 512.219C634.905 512.039 634.438 511.88 633.918 511.743L632.199 511.274C631.034 510.957 630.111 510.491 629.429 509.875C628.752 509.259 628.413 508.445 628.413 507.432C628.413 506.594 628.641 505.862 629.095 505.237C629.55 504.612 630.165 504.127 630.942 503.781C631.718 503.431 632.594 503.256 633.57 503.256C634.554 503.256 635.423 503.429 636.176 503.774C636.934 504.12 637.53 504.596 637.966 505.202C638.402 505.803 638.629 506.494 638.648 507.276H636.531ZM640.752 505.344V503.455H652.009V505.344H647.471V518H645.283V505.344H640.752ZM666.506 510.727C666.506 512.28 666.222 513.616 665.654 514.733C665.086 515.846 664.307 516.703 663.317 517.304C662.333 517.901 661.213 518.199 659.958 518.199C658.699 518.199 657.574 517.901 656.585 517.304C655.6 516.703 654.823 515.843 654.255 514.726C653.687 513.608 653.403 512.276 653.403 510.727C653.403 509.174 653.687 507.841 654.255 506.729C654.823 505.611 655.6 504.754 656.585 504.158C657.574 503.556 658.699 503.256 659.958 503.256C661.213 503.256 662.333 503.556 663.317 504.158C664.307 504.754 665.086 505.611 665.654 506.729C666.222 507.841 666.506 509.174 666.506 510.727ZM664.333 510.727C664.333 509.544 664.141 508.547 663.758 507.737C663.379 506.923 662.858 506.307 662.195 505.891C661.537 505.469 660.791 505.259 659.958 505.259C659.12 505.259 658.372 505.469 657.714 505.891C657.056 506.307 656.535 506.923 656.151 507.737C655.772 508.547 655.583 509.544 655.583 510.727C655.583 511.911 655.772 512.91 656.151 513.724C656.535 514.534 657.056 515.15 657.714 515.571C658.372 515.988 659.12 516.196 659.958 516.196C660.791 516.196 661.537 515.988 662.195 515.571C662.858 515.15 663.379 514.534 663.758 513.724C664.141 512.91 664.333 511.911 664.333 510.727ZM669.243 518V503.455H674.427C675.554 503.455 676.489 503.649 677.233 504.037C677.981 504.425 678.539 504.963 678.909 505.649C679.278 506.331 679.463 507.119 679.463 508.014C679.463 508.904 679.276 509.688 678.902 510.365C678.532 511.037 677.974 511.561 677.225 511.935C676.482 512.309 675.547 512.496 674.42 512.496H670.493V510.607H674.221C674.931 510.607 675.509 510.505 675.954 510.301C676.404 510.098 676.733 509.802 676.941 509.413C677.15 509.025 677.254 508.559 677.254 508.014C677.254 507.465 677.147 506.989 676.934 506.587C676.726 506.184 676.397 505.876 675.947 505.663C675.502 505.446 674.917 505.337 674.193 505.337H671.437V518H669.243ZM676.423 511.438L680.017 518H677.517L673.994 511.438H676.423ZM683.362 518H681.032L686.267 503.455H688.802L694.037 518H691.707L687.595 506.097H687.481L683.362 518ZM683.752 512.304H691.309V514.151H683.752V512.304ZM705.297 508.05C705.16 507.619 704.975 507.233 704.743 506.892C704.516 506.546 704.244 506.253 703.926 506.011C703.609 505.765 703.247 505.578 702.84 505.45C702.437 505.322 701.995 505.259 701.512 505.259C700.693 505.259 699.954 505.469 699.296 505.891C698.638 506.312 698.117 506.93 697.733 507.744C697.355 508.554 697.165 509.546 697.165 510.72C697.165 511.899 697.357 512.896 697.74 513.71C698.124 514.525 698.65 515.143 699.317 515.564C699.985 515.985 700.745 516.196 701.597 516.196C702.388 516.196 703.077 516.035 703.664 515.713C704.256 515.391 704.712 514.937 705.034 514.349C705.361 513.758 705.525 513.062 705.525 512.261L706.093 512.368H701.931V510.557H707.648V512.212C707.648 513.433 707.388 514.494 706.867 515.393C706.351 516.288 705.636 516.98 704.722 517.467C703.813 517.955 702.771 518.199 701.597 518.199C700.281 518.199 699.125 517.896 698.131 517.29C697.141 516.684 696.37 515.824 695.816 514.712C695.262 513.594 694.985 512.268 694.985 510.734C694.985 509.574 695.146 508.533 695.468 507.609C695.79 506.686 696.242 505.902 696.824 505.259C697.411 504.61 698.1 504.115 698.891 503.774C699.686 503.429 700.555 503.256 701.498 503.256C702.283 503.256 703.015 503.372 703.692 503.604C704.374 503.836 704.98 504.165 705.51 504.591C706.045 505.017 706.488 505.524 706.838 506.111C707.189 506.693 707.426 507.339 707.549 508.05H705.297ZM710.434 518V503.455H719.553V505.344H712.629V509.776H719.077V511.658H712.629V516.111H719.638V518H710.434ZM729.972 503.455V518H727.778V503.455H729.972ZM735.363 503.455V518H733.168V503.455H735.363Z" fill="white"/>
<path d="M211.679 1469.18H209.463C209.378 1468.71 209.219 1468.29 208.987 1467.93C208.755 1467.57 208.471 1467.27 208.135 1467.02C207.799 1466.77 207.422 1466.58 207.006 1466.45C206.594 1466.32 206.156 1466.26 205.692 1466.26C204.854 1466.26 204.103 1466.47 203.44 1466.89C202.782 1467.31 202.261 1467.93 201.878 1468.74C201.499 1469.56 201.31 1470.55 201.31 1471.73C201.31 1472.91 201.499 1473.91 201.878 1474.72C202.261 1475.54 202.785 1476.15 203.447 1476.57C204.11 1476.99 204.856 1477.2 205.685 1477.2C206.144 1477.2 206.58 1477.13 206.991 1477.01C207.408 1476.88 207.785 1476.7 208.121 1476.45C208.457 1476.2 208.741 1475.9 208.973 1475.55C209.21 1475.19 209.373 1474.78 209.463 1474.31L211.679 1474.32C211.561 1475.03 211.331 1475.69 210.99 1476.29C210.654 1476.89 210.221 1477.41 209.69 1477.84C209.165 1478.27 208.563 1478.61 207.886 1478.84C207.209 1479.08 206.471 1479.2 205.67 1479.2C204.411 1479.2 203.289 1478.9 202.304 1478.3C201.319 1477.7 200.543 1476.84 199.974 1475.73C199.411 1474.61 199.129 1473.28 199.129 1471.73C199.129 1470.17 199.413 1468.84 199.982 1467.73C200.55 1466.61 201.326 1465.75 202.311 1465.16C203.296 1464.56 204.416 1464.26 205.67 1464.26C206.442 1464.26 207.162 1464.37 207.83 1464.59C208.502 1464.81 209.106 1465.13 209.641 1465.56C210.176 1465.98 210.618 1466.49 210.969 1467.1C211.319 1467.71 211.556 1468.4 211.679 1469.18ZM215.436 1479H213.107L218.341 1464.45H220.876L226.111 1479H223.781L219.669 1467.1H219.555L215.436 1479ZM215.827 1473.3H223.384V1475.15H215.827V1473.3ZM228.211 1479V1464.45H237.231V1466.34H230.406V1470.78H236.585V1472.66H230.406V1479H228.211ZM239.93 1479V1464.45H249.049V1466.34H242.125V1470.78H248.574V1472.66H242.125V1477.11H249.135V1479H239.93ZM251.263 1466.34V1464.45H262.521V1466.34H257.982V1479H255.795V1466.34H251.263ZM264.518 1479H262.189L267.423 1464.45H269.958L275.193 1479H272.863L268.751 1467.1H268.637L264.518 1479ZM264.909 1473.3H272.466V1475.15H264.909V1473.3ZM277.293 1479V1464.45H282.478C283.605 1464.45 284.54 1464.65 285.283 1465.04C286.031 1465.43 286.59 1465.96 286.96 1466.65C287.329 1467.33 287.513 1468.12 287.513 1469.01C287.513 1469.9 287.326 1470.69 286.952 1471.37C286.583 1472.04 286.024 1472.56 285.276 1472.93C284.533 1473.31 283.598 1473.5 282.471 1473.5H278.543V1471.61H282.272C282.982 1471.61 283.56 1471.5 284.005 1471.3C284.455 1471.1 284.784 1470.8 284.992 1470.41C285.201 1470.03 285.305 1469.56 285.305 1469.01C285.305 1468.46 285.198 1467.99 284.985 1467.59C284.777 1467.18 284.448 1466.88 283.998 1466.66C283.553 1466.45 282.968 1466.34 282.244 1466.34H279.488V1479H277.293ZM284.474 1472.44L288.067 1479H285.567L282.045 1472.44H284.474ZM292.379 1464.45V1479H290.184V1464.45H292.379ZM296.803 1479H294.474L299.708 1464.45H302.244L307.478 1479H305.148L301.036 1467.1H300.923L296.803 1479ZM297.194 1473.3H304.751V1475.15H297.194V1473.3Z" fill="white"/>
<path d="M220.233 1114.73C220.233 1116.28 219.949 1117.62 219.381 1118.73C218.813 1119.85 218.034 1120.7 217.044 1121.3C216.059 1121.9 214.939 1122.2 213.685 1122.2C212.425 1122.2 211.301 1121.9 210.311 1121.3C209.326 1120.7 208.55 1119.84 207.982 1118.73C207.413 1117.61 207.129 1116.28 207.129 1114.73C207.129 1113.17 207.413 1111.84 207.982 1110.73C208.55 1109.61 209.326 1108.75 210.311 1108.16C211.301 1107.56 212.425 1107.26 213.685 1107.26C214.939 1107.26 216.059 1107.56 217.044 1108.16C218.034 1108.75 218.813 1109.61 219.381 1110.73C219.949 1111.84 220.233 1113.17 220.233 1114.73ZM218.06 1114.73C218.06 1113.54 217.868 1112.55 217.484 1111.74C217.106 1110.92 216.585 1110.31 215.922 1109.89C215.264 1109.47 214.518 1109.26 213.685 1109.26C212.847 1109.26 212.098 1109.47 211.44 1109.89C210.782 1110.31 210.261 1110.92 209.878 1111.74C209.499 1112.55 209.31 1113.54 209.31 1114.73C209.31 1115.91 209.499 1116.91 209.878 1117.72C210.261 1118.53 210.782 1119.15 211.44 1119.57C212.098 1119.99 212.847 1120.2 213.685 1120.2C214.518 1120.2 215.264 1119.99 215.922 1119.57C216.585 1119.15 217.106 1118.53 217.484 1117.72C217.868 1116.91 218.06 1115.91 218.06 1114.73ZM222.969 1122V1107.45H231.989V1109.34H225.164V1113.78H231.343V1115.66H225.164V1122H222.969ZM234.688 1122V1107.45H243.708V1109.34H236.882V1113.78H243.061V1115.66H236.882V1122H234.688ZM248.601 1107.45V1122H246.407V1107.45H248.601ZM263.878 1112.18H261.662C261.577 1111.71 261.418 1111.29 261.186 1110.93C260.954 1110.57 260.67 1110.27 260.334 1110.02C259.998 1109.77 259.622 1109.58 259.205 1109.45C258.793 1109.32 258.355 1109.26 257.891 1109.26C257.053 1109.26 256.302 1109.47 255.64 1109.89C254.981 1110.31 254.461 1110.93 254.077 1111.74C253.698 1112.56 253.509 1113.55 253.509 1114.73C253.509 1115.91 253.698 1116.91 254.077 1117.72C254.461 1118.54 254.984 1119.15 255.647 1119.57C256.31 1119.99 257.055 1120.2 257.884 1120.2C258.343 1120.2 258.779 1120.13 259.191 1120.01C259.607 1119.88 259.984 1119.7 260.32 1119.45C260.656 1119.2 260.94 1118.9 261.172 1118.55C261.409 1118.19 261.572 1117.78 261.662 1117.31L263.878 1117.32C263.76 1118.03 263.53 1118.69 263.189 1119.29C262.853 1119.89 262.42 1120.41 261.89 1120.84C261.364 1121.27 260.763 1121.61 260.086 1121.84C259.408 1122.08 258.67 1122.2 257.87 1122.2C256.61 1122.2 255.488 1121.9 254.503 1121.3C253.518 1120.7 252.742 1119.84 252.174 1118.73C251.61 1117.61 251.328 1116.28 251.328 1114.73C251.328 1113.17 251.613 1111.84 252.181 1110.73C252.749 1109.61 253.525 1108.75 254.51 1108.16C255.495 1107.56 256.615 1107.26 257.87 1107.26C258.641 1107.26 259.361 1107.37 260.029 1107.59C260.701 1107.81 261.305 1108.13 261.84 1108.56C262.375 1108.98 262.818 1109.49 263.168 1110.1C263.518 1110.71 263.755 1111.4 263.878 1112.18ZM266.504 1122V1107.45H275.624V1109.34H268.699V1113.78H275.148V1115.66H268.699V1120.11H275.709V1122H266.504ZM286.043 1107.45V1122H283.848V1107.45H286.043ZM291.433 1107.45V1122H289.239V1107.45H291.433ZM296.824 1107.45V1122H294.629V1107.45H296.824Z" fill="white"/>
<path d="M222.233 700.727C222.233 702.28 221.949 703.616 221.381 704.733C220.813 705.846 220.034 706.703 219.044 707.304C218.059 707.901 216.939 708.199 215.685 708.199C214.425 708.199 213.301 707.901 212.311 707.304C211.326 706.703 210.55 705.843 209.982 704.726C209.413 703.608 209.129 702.276 209.129 700.727C209.129 699.174 209.413 697.841 209.982 696.729C210.55 695.611 211.326 694.754 212.311 694.158C213.301 693.556 214.425 693.256 215.685 693.256C216.939 693.256 218.059 693.556 219.044 694.158C220.034 694.754 220.813 695.611 221.381 696.729C221.949 697.841 222.233 699.174 222.233 700.727ZM220.06 700.727C220.06 699.544 219.868 698.547 219.484 697.737C219.106 696.923 218.585 696.307 217.922 695.891C217.264 695.469 216.518 695.259 215.685 695.259C214.847 695.259 214.098 695.469 213.44 695.891C212.782 696.307 212.261 696.923 211.878 697.737C211.499 698.547 211.31 699.544 211.31 700.727C211.31 701.911 211.499 702.91 211.878 703.724C212.261 704.534 212.782 705.15 213.44 705.571C214.098 705.988 214.847 706.196 215.685 706.196C216.518 706.196 217.264 705.988 217.922 705.571C218.585 705.15 219.106 704.534 219.484 703.724C219.868 702.91 220.06 701.911 220.06 700.727ZM224.969 708V693.455H233.989V695.344H227.164V699.776H233.343V701.658H227.164V708H224.969ZM236.688 708V693.455H245.708V695.344H238.882V699.776H245.061V701.658H238.882V708H236.688ZM250.601 693.455V708H248.407V693.455H250.601ZM265.878 698.185H263.662C263.577 697.711 263.418 697.295 263.186 696.935C262.954 696.575 262.67 696.269 262.334 696.018C261.998 695.768 261.622 695.578 261.205 695.45C260.793 695.322 260.355 695.259 259.891 695.259C259.053 695.259 258.302 695.469 257.64 695.891C256.981 696.312 256.461 696.93 256.077 697.744C255.698 698.559 255.509 699.553 255.509 700.727C255.509 701.911 255.698 702.91 256.077 703.724C256.461 704.539 256.984 705.154 257.647 705.571C258.31 705.988 259.055 706.196 259.884 706.196C260.343 706.196 260.779 706.134 261.191 706.011C261.607 705.884 261.984 705.696 262.32 705.45C262.656 705.204 262.94 704.903 263.172 704.548C263.409 704.188 263.572 703.777 263.662 703.312L265.878 703.32C265.76 704.035 265.53 704.693 265.189 705.294C264.853 705.891 264.42 706.407 263.89 706.842C263.364 707.273 262.763 707.607 262.086 707.844C261.408 708.08 260.67 708.199 259.87 708.199C258.61 708.199 257.488 707.901 256.503 707.304C255.518 706.703 254.742 705.843 254.174 704.726C253.61 703.608 253.328 702.276 253.328 700.727C253.328 699.174 253.613 697.841 254.181 696.729C254.749 695.611 255.525 694.754 256.51 694.158C257.495 693.556 258.615 693.256 259.87 693.256C260.641 693.256 261.361 693.367 262.029 693.589C262.701 693.807 263.305 694.129 263.84 694.555C264.375 694.977 264.818 695.493 265.168 696.104C265.518 696.71 265.755 697.403 265.878 698.185ZM268.504 708V693.455H277.624V695.344H270.699V699.776H277.148V701.658H270.699V706.111H277.709V708H268.504ZM288.043 693.455V708H285.848V693.455H288.043ZM292.51 693.455L296.558 705.301H296.722L300.77 693.455H303.142L297.908 708H295.372L290.138 693.455H292.51Z" fill="white"/>
<path d="M832.827 777H830.497L835.732 762.455H838.267L843.501 777H841.172L837.06 765.097H836.946L832.827 777ZM833.217 771.304H840.774V773.151H833.217V771.304ZM850.311 777H845.602V762.455H850.46C851.885 762.455 853.109 762.746 854.132 763.328C855.154 763.906 855.938 764.737 856.483 765.821C857.032 766.901 857.306 768.196 857.306 769.706C857.306 771.221 857.029 772.523 856.475 773.612C855.926 774.701 855.131 775.539 854.089 776.126C853.047 776.709 851.788 777 850.311 777ZM847.797 775.082H850.19C851.298 775.082 852.219 774.874 852.953 774.457C853.687 774.036 854.236 773.428 854.6 772.632C854.965 771.832 855.147 770.857 855.147 769.706C855.147 768.565 854.965 767.597 854.6 766.801C854.241 766.006 853.703 765.402 852.988 764.99C852.273 764.578 851.386 764.372 850.325 764.372H847.797V775.082ZM860.036 762.455H862.699L867.33 773.761H867.5L872.131 762.455H874.794V777H872.706V766.474H872.571L868.281 776.979H866.548L862.259 766.467H862.124V777H860.036V762.455ZM880.179 762.455V777H877.985V762.455H880.179ZM895.115 762.455V777H893.098L885.705 766.332H885.57V777H883.375V762.455H885.407L892.807 773.136H892.942V762.455H895.115ZM831.598 801V786.455H836.783C837.91 786.455 838.845 786.649 839.588 787.037C840.336 787.425 840.895 787.963 841.264 788.649C841.634 789.331 841.818 790.119 841.818 791.014C841.818 791.904 841.631 792.688 841.257 793.365C840.888 794.037 840.329 794.561 839.581 794.935C838.838 795.309 837.902 795.496 836.776 795.496H832.848V793.607H836.577C837.287 793.607 837.865 793.505 838.31 793.301C838.759 793.098 839.089 792.802 839.297 792.413C839.505 792.025 839.609 791.559 839.609 791.014C839.609 790.465 839.503 789.989 839.29 789.587C839.081 789.184 838.752 788.876 838.303 788.663C837.857 788.446 837.273 788.337 836.548 788.337H833.793V801H831.598ZM838.778 794.438L842.372 801H839.872L836.349 794.438H838.778ZM857.124 793.727C857.124 795.28 856.839 796.616 856.271 797.733C855.703 798.846 854.924 799.703 853.935 800.304C852.95 800.901 851.83 801.199 850.575 801.199C849.316 801.199 848.191 800.901 847.202 800.304C846.217 799.703 845.44 798.843 844.872 797.726C844.304 796.608 844.02 795.276 844.02 793.727C844.02 792.174 844.304 790.841 844.872 789.729C845.44 788.611 846.217 787.754 847.202 787.158C848.191 786.556 849.316 786.256 850.575 786.256C851.83 786.256 852.95 786.556 853.935 787.158C854.924 787.754 855.703 788.611 856.271 789.729C856.839 790.841 857.124 792.174 857.124 793.727ZM854.95 793.727C854.95 792.544 854.759 791.547 854.375 790.737C853.996 789.923 853.475 789.307 852.812 788.891C852.154 788.469 851.409 788.259 850.575 788.259C849.737 788.259 848.989 788.469 848.331 788.891C847.673 789.307 847.152 789.923 846.768 790.737C846.39 791.547 846.2 792.544 846.2 793.727C846.2 794.911 846.39 795.91 846.768 796.724C847.152 797.534 847.673 798.15 848.331 798.571C848.989 798.988 849.737 799.196 850.575 799.196C851.409 799.196 852.154 798.988 852.812 798.571C853.475 798.15 853.996 797.534 854.375 796.724C854.759 795.91 854.95 794.911 854.95 793.727ZM872.495 793.727C872.495 795.28 872.211 796.616 871.642 797.733C871.074 798.846 870.295 799.703 869.306 800.304C868.321 800.901 867.201 801.199 865.946 801.199C864.687 801.199 863.562 800.901 862.573 800.304C861.588 799.703 860.811 798.843 860.243 797.726C859.675 796.608 859.391 795.276 859.391 793.727C859.391 792.174 859.675 790.841 860.243 789.729C860.811 788.611 861.588 787.754 862.573 787.158C863.562 786.556 864.687 786.256 865.946 786.256C867.201 786.256 868.321 786.556 869.306 787.158C870.295 787.754 871.074 788.611 871.642 789.729C872.211 790.841 872.495 792.174 872.495 793.727ZM870.321 793.727C870.321 792.544 870.13 791.547 869.746 790.737C869.367 789.923 868.846 789.307 868.184 788.891C867.525 788.469 866.78 788.259 865.946 788.259C865.108 788.259 864.36 788.469 863.702 788.891C863.044 789.307 862.523 789.923 862.14 790.737C861.761 791.547 861.571 792.544 861.571 793.727C861.571 794.911 861.761 795.91 862.14 796.724C862.523 797.534 863.044 798.15 863.702 798.571C864.36 798.988 865.108 799.196 865.946 799.196C866.78 799.196 867.525 798.988 868.184 798.571C868.846 798.15 869.367 797.534 869.746 796.724C870.13 795.91 870.321 794.911 870.321 793.727ZM875.231 786.455H877.894L882.525 797.761H882.695L887.326 786.455H889.989V801H887.901V790.474H887.766L883.477 800.979H881.744L877.454 790.467H877.319V801H875.231V786.455Z" fill="white"/>
</svg>
