<svg width="1080" height="1920" viewBox="0 0 1080 1920" fill="none" xmlns="http://www.w3.org/2000/svg">
<rect width="1080" height="1920" fill="white"/>
<path d="M487 31C487 25.4772 491.477 21 497 21H577C582.523 21 587 25.4772 587 31V1644C587 1649.52 582.523 1654 577 1654H497C491.477 1654 487 1649.52 487 1644V31Z" fill="#D9D9D9"/>
<path d="M161 1581C161 1575.48 165.477 1571 171 1571H821C826.523 1571 831 1575.48 831 1581V1644C831 1649.52 826.523 1654 821 1654H171C165.477 1654 161 1649.52 161 1644V1581Z" fill="#D9D9D9"/>
<rect x="812" y="1571" width="91" height="258" rx="10" fill="#D9D9D9"/>
<rect x="161" y="231" width="752" height="93" rx="10" fill="#D9D9D9"/>
<rect x="487" y="21" width="237" height="93" rx="10" fill="#D9D9D9"/>
<rect x="161" y="231" width="98" height="262" rx="10" fill="#D9D9D9"/>
<path d="M597 1069.5H810.316C812.284 1069.5 814.203 1070.11 815.809 1071.25L896.492 1128.42C899.006 1130.2 900.5 1133.09 900.5 1136.17V1249C900.5 1254.25 896.247 1258.5 891 1258.5H597C591.753 1258.5 587.5 1254.25 587.5 1249V1079C587.5 1073.75 591.753 1069.5 597 1069.5Z" fill="#FFEDC5" stroke="black"/>
<path d="M698.869 1156.45L702.918 1168.3H703.081L707.129 1156.45H709.501L704.267 1171H701.732L696.497 1156.45H698.869ZM713.797 1156.45V1171H711.602V1156.45H713.797ZM718.221 1171.13C717.833 1171.13 717.499 1171 717.22 1170.72C716.94 1170.44 716.801 1170.11 716.801 1169.71C716.801 1169.33 716.94 1168.99 717.22 1168.72C717.499 1168.44 717.833 1168.3 718.221 1168.3C718.609 1168.3 718.943 1168.44 719.223 1168.72C719.502 1168.99 719.642 1169.33 719.642 1169.71C719.642 1169.97 719.575 1170.21 719.443 1170.43C719.315 1170.64 719.145 1170.82 718.931 1170.94C718.718 1171.07 718.482 1171.13 718.221 1171.13ZM729.91 1156.45V1171H727.715V1156.45H729.91ZM733.106 1171V1156.45H738.29C739.417 1156.45 740.353 1156.65 741.096 1157.04C741.844 1157.43 742.403 1157.96 742.772 1158.65C743.141 1159.33 743.326 1160.12 743.326 1161.01C743.326 1161.9 743.139 1162.69 742.765 1163.37C742.396 1164.04 741.837 1164.56 741.089 1164.93C740.345 1165.31 739.41 1165.5 738.283 1165.5H734.356V1163.61H738.085C738.795 1163.61 739.372 1163.5 739.817 1163.3C740.267 1163.1 740.596 1162.8 740.805 1162.41C741.013 1162.03 741.117 1161.56 741.117 1161.01C741.117 1160.46 741.011 1159.99 740.798 1159.59C740.589 1159.18 740.26 1158.88 739.81 1158.66C739.365 1158.45 738.781 1158.34 738.056 1158.34H735.3V1171H733.106ZM740.286 1164.44L743.88 1171H741.38L737.857 1164.44H740.286ZM758.631 1163.73C758.631 1165.28 758.347 1166.62 757.779 1167.73C757.211 1168.85 756.432 1169.7 755.442 1170.3C754.458 1170.9 753.338 1171.2 752.083 1171.2C750.824 1171.2 749.699 1170.9 748.71 1170.3C747.725 1169.7 746.948 1168.84 746.38 1167.73C745.812 1166.61 745.528 1165.28 745.528 1163.73C745.528 1162.17 745.812 1160.84 746.38 1159.73C746.948 1158.61 747.725 1157.75 748.71 1157.16C749.699 1156.56 750.824 1156.26 752.083 1156.26C753.338 1156.26 754.458 1156.56 755.442 1157.16C756.432 1157.75 757.211 1158.61 757.779 1159.73C758.347 1160.84 758.631 1162.17 758.631 1163.73ZM756.458 1163.73C756.458 1162.54 756.266 1161.55 755.883 1160.74C755.504 1159.92 754.983 1159.31 754.32 1158.89C753.662 1158.47 752.916 1158.26 752.083 1158.26C751.245 1158.26 750.497 1158.47 749.839 1158.89C749.181 1159.31 748.66 1159.92 748.276 1160.74C747.897 1161.55 747.708 1162.54 747.708 1163.73C747.708 1164.91 747.897 1165.91 748.276 1166.72C748.66 1167.53 749.181 1168.15 749.839 1168.57C750.497 1168.99 751.245 1169.2 752.083 1169.2C752.916 1169.2 753.662 1168.99 754.32 1168.57C754.983 1168.15 755.504 1167.53 755.883 1166.72C756.266 1165.91 756.458 1164.91 756.458 1163.73ZM766.076 1171H761.368V1156.45H766.225C767.651 1156.45 768.875 1156.75 769.897 1157.33C770.92 1157.91 771.704 1158.74 772.248 1159.82C772.797 1160.9 773.072 1162.2 773.072 1163.71C773.072 1165.22 772.795 1166.52 772.241 1167.61C771.692 1168.7 770.896 1169.54 769.855 1170.13C768.813 1170.71 767.554 1171 766.076 1171ZM763.562 1169.08H765.956C767.064 1169.08 767.984 1168.87 768.718 1168.46C769.452 1168.04 770.002 1167.43 770.366 1166.63C770.731 1165.83 770.913 1164.86 770.913 1163.71C770.913 1162.56 770.731 1161.6 770.366 1160.8C770.006 1160.01 769.469 1159.4 768.754 1158.99C768.039 1158.58 767.151 1158.37 766.091 1158.37H763.562V1169.08ZM776.307 1171H773.978L779.212 1156.45H781.748L786.982 1171H784.652L780.54 1159.1H780.426L776.307 1171ZM776.698 1165.3H784.255V1167.15H776.698V1165.3Z" fill="black"/>
<path d="M778 1881.5H445.728C439.018 1881.5 434.423 1874.73 436.897 1868.5L477.658 1765.79L519.63 1660.48C521.07 1656.87 524.566 1654.5 528.455 1654.5H778C783.247 1654.5 787.5 1658.75 787.5 1664V1872L787.487 1872.49C787.233 1877.51 783.083 1881.5 778 1881.5Z" fill="#FFEDC5" stroke="black"/>
<path d="M565.338 1759.45V1774H563.321L555.928 1763.33H555.793V1774H553.598V1759.45H555.629L563.03 1770.14H563.165V1759.45H565.338ZM569.768 1774H567.439L572.673 1759.45H575.208L580.443 1774H578.113L574.001 1762.1H573.887L569.768 1774ZM570.159 1768.3H577.716V1770.15H570.159V1768.3ZM591.703 1764.05C591.566 1763.62 591.382 1763.23 591.15 1762.89C590.922 1762.55 590.65 1762.25 590.333 1762.01C590.016 1761.77 589.653 1761.58 589.246 1761.45C588.844 1761.32 588.401 1761.26 587.918 1761.26C587.099 1761.26 586.36 1761.47 585.702 1761.89C585.044 1762.31 584.523 1762.93 584.14 1763.74C583.761 1764.55 583.571 1765.55 583.571 1766.72C583.571 1767.9 583.763 1768.9 584.147 1769.71C584.53 1770.52 585.056 1771.14 585.723 1771.56C586.391 1771.99 587.151 1772.2 588.003 1772.2C588.794 1772.2 589.483 1772.04 590.07 1771.71C590.662 1771.39 591.119 1770.94 591.441 1770.35C591.767 1769.76 591.931 1769.06 591.931 1768.26L592.499 1768.37H588.337V1766.56H594.054V1768.21C594.054 1769.43 593.794 1770.49 593.273 1771.39C592.757 1772.29 592.042 1772.98 591.128 1773.47C590.219 1773.96 589.177 1774.2 588.003 1774.2C586.687 1774.2 585.532 1773.9 584.537 1773.29C583.548 1772.68 582.776 1771.82 582.222 1770.71C581.668 1769.59 581.391 1768.27 581.391 1766.73C581.391 1765.57 581.552 1764.53 581.874 1763.61C582.196 1762.69 582.648 1761.9 583.23 1761.26C583.818 1760.61 584.507 1760.12 585.297 1759.77C586.093 1759.43 586.962 1759.26 587.904 1759.26C588.69 1759.26 589.421 1759.37 590.098 1759.6C590.78 1759.84 591.386 1760.16 591.917 1760.59C592.452 1761.02 592.894 1761.52 593.245 1762.11C593.595 1762.69 593.832 1763.34 593.955 1764.05H591.703ZM595.23 1759.45H597.723L601.522 1766.07H601.679L605.478 1759.45H607.971L602.694 1768.29V1774H600.507V1768.29L595.23 1759.45ZM614.619 1761.34V1759.45H625.876V1761.34H621.338V1774H619.15V1761.34H614.619ZM627.874 1774H625.544L630.778 1759.45H633.314L638.548 1774H636.219L632.107 1762.1H631.993L627.874 1774ZM628.264 1768.3H635.821V1770.15H628.264V1768.3ZM631.169 1758L632.831 1754.72H635.068L632.866 1758H631.169ZM640.649 1774V1759.45H645.833C646.96 1759.45 647.895 1759.65 648.639 1760.04C649.387 1760.43 649.946 1760.96 650.315 1761.65C650.684 1762.33 650.869 1763.12 650.869 1764.01C650.869 1764.9 650.682 1765.69 650.308 1766.37C649.939 1767.04 649.38 1767.56 648.632 1767.93C647.888 1768.31 646.953 1768.5 645.826 1768.5H641.899V1766.61H645.627C646.338 1766.61 646.915 1766.5 647.36 1766.3C647.81 1766.1 648.139 1765.8 648.348 1765.41C648.556 1765.03 648.66 1764.56 648.66 1764.01C648.66 1763.46 648.554 1762.99 648.341 1762.59C648.132 1762.18 647.803 1761.88 647.353 1761.66C646.908 1761.45 646.324 1761.34 645.599 1761.34H642.843V1774H640.649ZM647.829 1767.44L651.423 1774H648.923L645.4 1767.44H647.829ZM663.383 1764.05C663.246 1763.62 663.061 1763.23 662.829 1762.89C662.602 1762.55 662.33 1762.25 662.012 1762.01C661.695 1761.77 661.333 1761.58 660.926 1761.45C660.523 1761.32 660.081 1761.26 659.598 1761.26C658.779 1761.26 658.04 1761.47 657.382 1761.89C656.724 1762.31 656.203 1762.93 655.819 1763.74C655.44 1764.55 655.251 1765.55 655.251 1766.72C655.251 1767.9 655.443 1768.9 655.826 1769.71C656.21 1770.52 656.735 1771.14 657.403 1771.56C658.071 1771.99 658.831 1772.2 659.683 1772.2C660.474 1772.2 661.163 1772.04 661.75 1771.71C662.342 1771.39 662.798 1770.94 663.12 1770.35C663.447 1769.76 663.61 1769.06 663.61 1768.26L664.179 1768.37H660.017V1766.56H665.734V1768.21C665.734 1769.43 665.474 1770.49 664.953 1771.39C664.437 1772.29 663.722 1772.98 662.808 1773.47C661.899 1773.96 660.857 1774.2 659.683 1774.2C658.367 1774.2 657.211 1773.9 656.217 1773.29C655.227 1772.68 654.456 1771.82 653.902 1770.71C653.348 1769.59 653.071 1768.27 653.071 1766.73C653.071 1765.57 653.232 1764.53 653.554 1763.61C653.876 1762.69 654.328 1761.9 654.91 1761.26C655.497 1760.61 656.186 1760.12 656.977 1759.77C657.772 1759.43 658.641 1759.26 659.583 1759.26C660.369 1759.26 661.101 1759.37 661.778 1759.6C662.46 1759.84 663.066 1760.16 663.596 1760.59C664.131 1761.02 664.574 1761.52 664.924 1762.11C665.275 1762.69 665.511 1763.34 665.635 1764.05H663.383ZM666.909 1759.45H669.402L673.202 1766.07H673.358L677.158 1759.45H679.651L674.374 1768.29V1774H672.186V1768.29L666.909 1759.45ZM681.467 1774H679.138L684.372 1759.45H686.908L692.142 1774H689.812L685.7 1762.1H685.587L681.467 1774ZM681.858 1768.3H689.415V1770.15H681.858V1768.3ZM694.243 1774V1759.45H696.437V1772.11H703.028V1774H694.243ZM717.6 1766.73C717.6 1768.28 717.316 1769.62 716.748 1770.73C716.18 1771.85 715.401 1772.7 714.411 1773.3C713.426 1773.9 712.307 1774.2 711.052 1774.2C709.792 1774.2 708.668 1773.9 707.678 1773.3C706.693 1772.7 705.917 1771.84 705.349 1770.73C704.781 1769.61 704.496 1768.28 704.496 1766.73C704.496 1765.17 704.781 1763.84 705.349 1762.73C705.917 1761.61 706.693 1760.75 707.678 1760.16C708.668 1759.56 709.792 1759.26 711.052 1759.26C712.307 1759.26 713.426 1759.56 714.411 1760.16C715.401 1760.75 716.18 1761.61 716.748 1762.73C717.316 1763.84 717.6 1765.17 717.6 1766.73ZM715.427 1766.73C715.427 1765.54 715.235 1764.55 714.852 1763.74C714.473 1762.92 713.952 1762.31 713.289 1761.89C712.631 1761.47 711.885 1761.26 711.052 1761.26C710.214 1761.26 709.466 1761.47 708.808 1761.89C708.149 1762.31 707.629 1762.92 707.245 1763.74C706.866 1764.55 706.677 1765.54 706.677 1766.73C706.677 1767.91 706.866 1768.91 707.245 1769.72C707.629 1770.53 708.149 1771.15 708.808 1771.57C709.466 1771.99 710.214 1772.2 711.052 1772.2C711.885 1772.2 712.631 1771.99 713.289 1771.57C713.952 1771.15 714.473 1770.53 714.852 1769.72C715.235 1768.91 715.427 1767.91 715.427 1766.73ZM710.171 1758L711.833 1754.72H714.07L711.869 1758H710.171Z" fill="black"/>
<path d="M597 1320.5H890C895.247 1320.5 899.5 1324.75 899.5 1330V1448.34C899.5 1451.41 898.01 1454.3 895.503 1456.08L822.812 1507.74C821.204 1508.89 819.281 1509.5 817.309 1509.5H597C591.753 1509.5 587.5 1505.25 587.5 1500V1330C587.5 1324.75 591.753 1320.5 597 1320.5Z" fill="#FFEDC5" stroke="black"/>
<path d="M171 1654.5H485.477C492.134 1654.5 496.726 1661.17 494.352 1667.39L455.669 1768.69L415.892 1872.4C414.483 1876.08 410.955 1878.5 407.021 1878.5H171C165.753 1878.5 161.5 1874.25 161.5 1869V1664L161.513 1663.51C161.767 1658.49 165.917 1654.5 171 1654.5Z" fill="#FFEDC5" stroke="black"/>
<path d="M230.598 1774V1759.45H232.793V1766.4H232.97L239.071 1759.45H241.834L235.967 1766L241.855 1774H239.213L234.511 1767.5L232.793 1769.48V1774H230.598ZM246.074 1759.45V1774H243.879V1759.45H246.074ZM257.203 1763.28C257.127 1762.6 256.815 1762.08 256.266 1761.71C255.716 1761.34 255.025 1761.15 254.192 1761.15C253.595 1761.15 253.079 1761.25 252.643 1761.44C252.208 1761.62 251.869 1761.88 251.628 1762.2C251.391 1762.53 251.273 1762.89 251.273 1763.3C251.273 1763.65 251.353 1763.95 251.514 1764.2C251.68 1764.45 251.895 1764.66 252.161 1764.83C252.43 1765 252.719 1765.14 253.027 1765.25C253.335 1765.36 253.631 1765.45 253.915 1765.52L255.335 1765.89C255.799 1766 256.275 1766.16 256.763 1766.35C257.25 1766.54 257.703 1766.8 258.119 1767.12C258.536 1767.44 258.872 1767.83 259.128 1768.3C259.388 1768.77 259.518 1769.33 259.518 1769.98C259.518 1770.8 259.305 1771.54 258.879 1772.17C258.458 1772.81 257.845 1773.32 257.04 1773.69C256.24 1774.06 255.271 1774.24 254.135 1774.24C253.046 1774.24 252.104 1774.07 251.308 1773.72C250.513 1773.38 249.89 1772.89 249.44 1772.25C248.991 1771.61 248.742 1770.86 248.695 1769.98H250.896C250.939 1770.51 251.109 1770.94 251.408 1771.29C251.711 1771.64 252.097 1771.9 252.565 1772.07C253.039 1772.23 253.557 1772.32 254.121 1772.32C254.741 1772.32 255.293 1772.22 255.776 1772.03C256.263 1771.83 256.647 1771.55 256.926 1771.2C257.205 1770.85 257.345 1770.43 257.345 1769.96C257.345 1769.53 257.222 1769.18 256.976 1768.9C256.734 1768.63 256.405 1768.4 255.989 1768.22C255.577 1768.04 255.11 1767.88 254.589 1767.74L252.871 1767.27C251.706 1766.96 250.783 1766.49 250.101 1765.88C249.424 1765.26 249.085 1764.45 249.085 1763.43C249.085 1762.59 249.313 1761.86 249.767 1761.24C250.222 1760.61 250.837 1760.13 251.614 1759.78C252.39 1759.43 253.266 1759.26 254.241 1759.26C255.226 1759.26 256.095 1759.43 256.848 1759.77C257.606 1760.12 258.202 1760.6 258.638 1761.2C259.073 1761.8 259.301 1762.49 259.32 1763.28H257.203ZM266.717 1761.34V1759.45H277.974V1761.34H273.435V1774H271.248V1761.34H266.717ZM279.971 1774H277.642L282.876 1759.45H285.412L290.646 1774H288.316L284.204 1762.1H284.091L279.971 1774ZM280.362 1768.3H287.919V1770.15H280.362V1768.3ZM283.267 1758L284.929 1754.72H287.166L284.964 1758H283.267ZM292.746 1774V1759.45H297.931C299.058 1759.45 299.993 1759.65 300.737 1760.04C301.485 1760.43 302.043 1760.96 302.413 1761.65C302.782 1762.33 302.967 1763.12 302.967 1764.01C302.967 1764.9 302.78 1765.69 302.406 1766.37C302.036 1767.04 301.478 1767.56 300.729 1767.93C299.986 1768.31 299.051 1768.5 297.924 1768.5H293.996V1766.61H297.725C298.435 1766.61 299.013 1766.5 299.458 1766.3C299.908 1766.1 300.237 1765.8 300.445 1765.41C300.654 1765.03 300.758 1764.56 300.758 1764.01C300.758 1763.46 300.651 1762.99 300.438 1762.59C300.23 1762.18 299.901 1761.88 299.451 1761.66C299.006 1761.45 298.421 1761.34 297.697 1761.34H294.941V1774H292.746ZM299.927 1767.44L303.521 1774H301.021L297.498 1767.44H299.927ZM315.481 1764.05C315.344 1763.62 315.159 1763.23 314.927 1762.89C314.7 1762.55 314.427 1762.25 314.11 1762.01C313.793 1761.77 313.431 1761.58 313.023 1761.45C312.621 1761.32 312.178 1761.26 311.695 1761.26C310.876 1761.26 310.138 1761.47 309.479 1761.89C308.821 1762.31 308.3 1762.93 307.917 1763.74C307.538 1764.55 307.349 1765.55 307.349 1766.72C307.349 1767.9 307.54 1768.9 307.924 1769.71C308.308 1770.52 308.833 1771.14 309.501 1771.56C310.168 1771.99 310.928 1772.2 311.781 1772.2C312.571 1772.2 313.26 1772.04 313.847 1771.71C314.439 1771.39 314.896 1770.94 315.218 1770.35C315.545 1769.76 315.708 1769.06 315.708 1768.26L316.276 1768.37H312.114V1766.56H317.832V1768.21C317.832 1769.43 317.571 1770.49 317.05 1771.39C316.534 1772.29 315.819 1772.98 314.906 1773.47C313.996 1773.96 312.955 1774.2 311.781 1774.2C310.464 1774.2 309.309 1773.9 308.315 1773.29C307.325 1772.68 306.553 1771.82 305.999 1770.71C305.445 1769.59 305.168 1768.27 305.168 1766.73C305.168 1765.57 305.329 1764.53 305.651 1763.61C305.973 1762.69 306.425 1761.9 307.008 1761.26C307.595 1760.61 308.284 1760.12 309.075 1759.77C309.87 1759.43 310.739 1759.26 311.681 1759.26C312.467 1759.26 313.199 1759.37 313.876 1759.6C314.558 1759.84 315.164 1760.16 315.694 1760.59C316.229 1761.02 316.672 1761.52 317.022 1762.11C317.372 1762.69 317.609 1763.34 317.732 1764.05H315.481ZM319.007 1759.45H321.5L325.3 1766.07H325.456L329.256 1759.45H331.749L326.472 1768.29V1774H324.284V1768.29L319.007 1759.45ZM333.565 1774H331.235L336.47 1759.45H339.005L344.24 1774H341.91L337.798 1762.1H337.684L333.565 1774ZM333.956 1768.3H341.512V1770.15H333.956V1768.3ZM346.34 1774V1759.45H348.535V1772.11H355.126V1774H346.34ZM369.698 1766.73C369.698 1768.28 369.414 1769.62 368.846 1770.73C368.277 1771.85 367.498 1772.7 366.509 1773.3C365.524 1773.9 364.404 1774.2 363.15 1774.2C361.89 1774.2 360.766 1773.9 359.776 1773.3C358.791 1772.7 358.015 1771.84 357.446 1770.73C356.878 1769.61 356.594 1768.28 356.594 1766.73C356.594 1765.17 356.878 1763.84 357.446 1762.73C358.015 1761.61 358.791 1760.75 359.776 1760.16C360.766 1759.56 361.89 1759.26 363.15 1759.26C364.404 1759.26 365.524 1759.56 366.509 1760.16C367.498 1760.75 368.277 1761.61 368.846 1762.73C369.414 1763.84 369.698 1765.17 369.698 1766.73ZM367.525 1766.73C367.525 1765.54 367.333 1764.55 366.949 1763.74C366.57 1762.92 366.05 1762.31 365.387 1761.89C364.729 1761.47 363.983 1761.26 363.15 1761.26C362.311 1761.26 361.563 1761.47 360.905 1761.89C360.247 1762.31 359.726 1762.92 359.343 1763.74C358.964 1764.55 358.775 1765.54 358.775 1766.73C358.775 1767.91 358.964 1768.91 359.343 1769.72C359.726 1770.53 360.247 1771.15 360.905 1771.57C361.563 1771.99 362.311 1772.2 363.15 1772.2C363.983 1772.2 364.729 1771.99 365.387 1771.57C366.05 1771.15 366.57 1770.53 366.949 1769.72C367.333 1768.91 367.525 1767.91 367.525 1766.73ZM362.269 1758L363.931 1754.72H366.168L363.966 1758H362.269Z" fill="black"/>
<path d="M706.869 1407.45L710.918 1419.3H711.081L715.129 1407.45H717.501L712.267 1422H709.732L704.497 1407.45H706.869ZM718.897 1422.13C718.509 1422.13 718.175 1422 717.896 1421.72C717.616 1421.44 717.477 1421.11 717.477 1420.71C717.477 1420.33 717.616 1419.99 717.896 1419.72C718.175 1419.44 718.509 1419.3 718.897 1419.3C719.285 1419.3 719.619 1419.44 719.898 1419.72C720.178 1419.99 720.317 1420.33 720.317 1420.71C720.317 1420.97 720.251 1421.21 720.119 1421.43C719.991 1421.64 719.82 1421.82 719.607 1421.94C719.394 1422.07 719.157 1422.13 718.897 1422.13ZM730.586 1407.45V1422H728.391V1407.45H730.586ZM733.782 1422V1407.45H738.966C740.093 1407.45 741.028 1407.65 741.772 1408.04C742.52 1408.43 743.078 1408.96 743.448 1409.65C743.817 1410.33 744.002 1411.12 744.002 1412.01C744.002 1412.9 743.815 1413.69 743.441 1414.37C743.071 1415.04 742.513 1415.56 741.765 1415.93C741.021 1416.31 740.086 1416.5 738.959 1416.5H735.032V1414.61H738.76C739.471 1414.61 740.048 1414.5 740.493 1414.3C740.943 1414.1 741.272 1413.8 741.48 1413.41C741.689 1413.03 741.793 1412.56 741.793 1412.01C741.793 1411.46 741.686 1410.99 741.473 1410.59C741.265 1410.18 740.936 1409.88 740.486 1409.66C740.041 1409.45 739.456 1409.34 738.732 1409.34H735.976V1422H733.782ZM740.962 1415.44L744.556 1422H742.056L738.533 1415.44H740.962ZM759.307 1414.73C759.307 1416.28 759.023 1417.62 758.455 1418.73C757.887 1419.85 757.108 1420.7 756.118 1421.3C755.133 1421.9 754.014 1422.2 752.759 1422.2C751.499 1422.2 750.375 1421.9 749.385 1421.3C748.4 1420.7 747.624 1419.84 747.056 1418.73C746.488 1417.61 746.203 1416.28 746.203 1414.73C746.203 1413.17 746.488 1411.84 747.056 1410.73C747.624 1409.61 748.4 1408.75 749.385 1408.16C750.375 1407.56 751.499 1407.26 752.759 1407.26C754.014 1407.26 755.133 1407.56 756.118 1408.16C757.108 1408.75 757.887 1409.61 758.455 1410.73C759.023 1411.84 759.307 1413.17 759.307 1414.73ZM757.134 1414.73C757.134 1413.54 756.942 1412.55 756.559 1411.74C756.18 1410.92 755.659 1410.31 754.996 1409.89C754.338 1409.47 753.592 1409.26 752.759 1409.26C751.921 1409.26 751.173 1409.47 750.515 1409.89C749.856 1410.31 749.336 1410.92 748.952 1411.74C748.573 1412.55 748.384 1413.54 748.384 1414.73C748.384 1415.91 748.573 1416.91 748.952 1417.72C749.336 1418.53 749.856 1419.15 750.515 1419.57C751.173 1419.99 751.921 1420.2 752.759 1420.2C753.592 1420.2 754.338 1419.99 754.996 1419.57C755.659 1419.15 756.18 1418.53 756.559 1417.72C756.942 1416.91 757.134 1415.91 757.134 1414.73ZM766.752 1422H762.043V1407.45H766.901C768.326 1407.45 769.55 1407.75 770.573 1408.33C771.596 1408.91 772.379 1409.74 772.924 1410.82C773.473 1411.9 773.748 1413.2 773.748 1414.71C773.748 1416.22 773.471 1417.52 772.917 1418.61C772.368 1419.7 771.572 1420.54 770.531 1421.13C769.489 1421.71 768.229 1422 766.752 1422ZM764.238 1420.08H766.631C767.739 1420.08 768.66 1419.87 769.394 1419.46C770.128 1419.04 770.677 1418.43 771.042 1417.63C771.406 1416.83 771.589 1415.86 771.589 1414.71C771.589 1413.56 771.406 1412.6 771.042 1411.8C770.682 1411.01 770.145 1410.4 769.43 1409.99C768.715 1409.58 767.827 1409.37 766.766 1409.37H764.238V1420.08ZM776.983 1422H774.653L779.888 1407.45H782.423L787.658 1422H785.328L781.216 1410.1H781.102L776.983 1422ZM777.374 1416.3H784.93V1418.15H777.374V1416.3Z" fill="black"/>
<path d="M171 493.5H315C320.247 493.5 324.5 497.753 324.5 503V567.812C324.5 569.181 324.204 570.535 323.632 571.779L287.223 650.969C285.673 654.34 282.302 656.5 278.592 656.5H171C165.753 656.5 161.5 652.247 161.5 647V503C161.5 497.753 165.753 493.5 171 493.5Z" fill="#FFEDC5" stroke="black"/>
<path d="M725.77 175.343L724.582 31.3477C724.539 26.1012 728.757 21.8129 734.004 21.7697L798.709 21.2362C800.08 21.2249 801.438 21.5103 802.688 22.0735L882.062 57.8256C885.443 59.3488 887.629 62.7011 887.659 66.4096L888.546 174.001C888.59 179.247 884.372 183.535 879.125 183.579L735.348 184.764C730.101 184.807 725.813 180.589 725.77 175.343Z" fill="#FFEDC5" stroke="black"/>
<rect x="724.5" y="542.5" width="188" height="149" rx="9.5" fill="#FFEDC5" stroke="black"/>
<path d="M781.213 98V83.4545H790.233V85.3438H783.408V89.7756H789.587V91.6577H783.408V98H781.213ZM792.932 98V83.4545H802.051V85.3438H795.127V89.7756H801.575V91.6577H795.127V96.1108H802.137V98H792.932ZM796.611 81.9986L798.273 78.7244H800.51L798.308 81.9986H796.611ZM804.983 98V83.4545H810.167C811.294 83.4545 812.229 83.6487 812.973 84.0369C813.721 84.4252 814.28 84.9626 814.649 85.6491C815.018 86.331 815.203 87.1193 815.203 88.0142C815.203 88.9044 815.016 89.688 814.642 90.3651C814.273 91.0374 813.714 91.5606 812.966 91.9347C812.222 92.3087 811.287 92.4957 810.16 92.4957H806.233V90.6065H809.961C810.672 90.6065 811.249 90.5047 811.694 90.3011C812.144 90.0975 812.473 89.8016 812.682 89.4134C812.89 89.0251 812.994 88.5587 812.994 88.0142C812.994 87.465 812.888 86.9891 812.675 86.5866C812.466 86.1842 812.137 85.8764 811.687 85.6634C811.242 85.4455 810.657 85.3366 809.933 85.3366H807.177V98H804.983ZM812.163 91.4375L815.757 98H813.257L809.734 91.4375H812.163ZM817.873 98V83.4545H826.893V85.3438H820.068V89.7756H826.247V91.6577H820.068V98H817.873ZM831.787 83.4545V98H829.592V83.4545H831.787ZM770.1 107.455H772.763L777.394 118.761H777.564L782.195 107.455H784.858V122H782.77V111.474H782.635L778.346 121.979H776.613L772.323 111.467H772.188V122H770.1V107.455ZM800.684 114.727C800.684 116.28 800.4 117.616 799.832 118.733C799.264 119.846 798.485 120.703 797.495 121.304C796.51 121.901 795.391 122.199 794.136 122.199C792.876 122.199 791.752 121.901 790.762 121.304C789.777 120.703 789.001 119.843 788.433 118.726C787.865 117.608 787.58 116.276 787.58 114.727C787.58 113.174 787.865 111.841 788.433 110.729C789.001 109.611 789.777 108.754 790.762 108.158C791.752 107.556 792.876 107.256 794.136 107.256C795.391 107.256 796.51 107.556 797.495 108.158C798.485 108.754 799.264 109.611 799.832 110.729C800.4 111.841 800.684 113.174 800.684 114.727ZM798.511 114.727C798.511 113.544 798.319 112.547 797.936 111.737C797.557 110.923 797.036 110.307 796.373 109.891C795.715 109.469 794.969 109.259 794.136 109.259C793.298 109.259 792.55 109.469 791.892 109.891C791.233 110.307 790.713 110.923 790.329 111.737C789.95 112.547 789.761 113.544 789.761 114.727C789.761 115.911 789.95 116.91 790.329 117.724C790.713 118.534 791.233 119.15 791.892 119.571C792.55 119.988 793.298 120.196 794.136 120.196C794.969 120.196 795.715 119.988 796.373 119.571C797.036 119.15 797.557 118.534 797.936 117.724C798.319 116.91 798.511 115.911 798.511 114.727ZM811.354 111.276C811.278 110.603 810.965 110.082 810.416 109.713C809.867 109.339 809.175 109.152 808.342 109.152C807.746 109.152 807.229 109.247 806.794 109.436C806.358 109.621 806.02 109.876 805.778 110.203C805.541 110.525 805.423 110.892 805.423 111.304C805.423 111.65 805.504 111.948 805.665 112.199C805.83 112.45 806.046 112.661 806.311 112.831C806.581 112.997 806.87 113.136 807.177 113.25C807.485 113.359 807.781 113.449 808.065 113.52L809.486 113.889C809.95 114.003 810.425 114.157 810.913 114.351C811.401 114.545 811.853 114.801 812.27 115.118C812.686 115.435 813.023 115.828 813.278 116.297C813.539 116.766 813.669 117.327 813.669 117.98C813.669 118.804 813.456 119.536 813.03 120.175C812.608 120.814 811.995 121.318 811.19 121.688C810.39 122.057 809.422 122.241 808.285 122.241C807.196 122.241 806.254 122.069 805.459 121.723C804.663 121.377 804.041 120.887 803.591 120.253C803.141 119.614 802.892 118.856 802.845 117.98H805.047C805.089 118.506 805.26 118.944 805.558 119.294C805.861 119.64 806.247 119.898 806.716 120.068C807.189 120.234 807.708 120.317 808.271 120.317C808.891 120.317 809.443 120.22 809.926 120.026C810.414 119.827 810.797 119.552 811.077 119.202C811.356 118.847 811.496 118.432 811.496 117.959C811.496 117.528 811.372 117.175 811.126 116.901C810.885 116.626 810.556 116.399 810.139 116.219C809.727 116.039 809.261 115.88 808.74 115.743L807.021 115.274C805.856 114.957 804.933 114.491 804.251 113.875C803.574 113.259 803.236 112.445 803.236 111.432C803.236 110.594 803.463 109.862 803.917 109.237C804.372 108.612 804.988 108.127 805.764 107.781C806.541 107.431 807.416 107.256 808.392 107.256C809.377 107.256 810.246 107.429 810.998 107.774C811.756 108.12 812.353 108.596 812.788 109.202C813.224 109.803 813.451 110.494 813.47 111.276H811.354ZM821 122H816.291V107.455H821.149C822.575 107.455 823.798 107.746 824.821 108.328C825.844 108.906 826.628 109.737 827.172 110.821C827.721 111.901 827.996 113.196 827.996 114.706C827.996 116.221 827.719 117.523 827.165 118.612C826.616 119.701 825.82 120.539 824.779 121.126C823.737 121.709 822.477 122 821 122ZM818.486 120.082H820.879C821.987 120.082 822.908 119.874 823.642 119.457C824.376 119.036 824.925 118.428 825.29 117.632C825.655 116.832 825.837 115.857 825.837 114.706C825.837 113.565 825.655 112.597 825.29 111.801C824.93 111.006 824.393 110.402 823.678 109.99C822.963 109.578 822.075 109.372 821.014 109.372H818.486V120.082ZM843.36 114.727C843.36 116.28 843.076 117.616 842.508 118.733C841.939 119.846 841.161 120.703 840.171 121.304C839.186 121.901 838.066 122.199 836.812 122.199C835.552 122.199 834.428 121.901 833.438 121.304C832.453 120.703 831.677 119.843 831.108 118.726C830.54 117.608 830.256 116.276 830.256 114.727C830.256 113.174 830.54 111.841 831.108 110.729C831.677 109.611 832.453 108.754 833.438 108.158C834.428 107.556 835.552 107.256 836.812 107.256C838.066 107.256 839.186 107.556 840.171 108.158C841.161 108.754 841.939 109.611 842.508 110.729C843.076 111.841 843.36 113.174 843.36 114.727ZM841.187 114.727C841.187 113.544 840.995 112.547 840.611 111.737C840.233 110.923 839.712 110.307 839.049 109.891C838.391 109.469 837.645 109.259 836.812 109.259C835.974 109.259 835.225 109.469 834.567 109.891C833.909 110.307 833.388 110.923 833.005 111.737C832.626 112.547 832.437 113.544 832.437 114.727C832.437 115.911 832.626 116.91 833.005 117.724C833.388 118.534 833.909 119.15 834.567 119.571C835.225 119.988 835.974 120.196 836.812 120.196C837.645 120.196 838.391 119.988 839.049 119.571C839.712 119.15 840.233 118.534 840.611 117.724C840.995 116.91 841.187 115.911 841.187 114.727ZM835.931 105.999L837.593 102.724H839.83L837.628 105.999H835.931Z" fill="black"/>
<path d="M777.549 598.455V613H775.532L768.138 602.332H768.004V613H765.809V598.455H767.84L775.241 609.136H775.376V598.455H777.549ZM779.628 598.455H782.121L785.921 605.067H786.077L789.877 598.455H792.37L787.093 607.29V613H784.905V607.29L779.628 598.455ZM806.335 605.727C806.335 607.28 806.05 608.616 805.482 609.733C804.914 610.846 804.135 611.703 803.146 612.304C802.161 612.901 801.041 613.199 799.786 613.199C798.527 613.199 797.402 612.901 796.413 612.304C795.428 611.703 794.651 610.843 794.083 609.726C793.515 608.608 793.231 607.276 793.231 605.727C793.231 604.174 793.515 602.841 794.083 601.729C794.651 600.611 795.428 599.754 796.413 599.158C797.402 598.556 798.527 598.256 799.786 598.256C801.041 598.256 802.161 598.556 803.146 599.158C804.135 599.754 804.914 600.611 805.482 601.729C806.05 602.841 806.335 604.174 806.335 605.727ZM804.161 605.727C804.161 604.544 803.969 603.547 803.586 602.737C803.207 601.923 802.686 601.307 802.023 600.891C801.365 600.469 800.62 600.259 799.786 600.259C798.948 600.259 798.2 600.469 797.542 600.891C796.884 601.307 796.363 601.923 795.979 602.737C795.601 603.547 795.411 604.544 795.411 605.727C795.411 606.911 795.601 607.91 795.979 608.724C796.363 609.534 796.884 610.15 797.542 610.571C798.2 610.988 798.948 611.196 799.786 611.196C800.62 611.196 801.365 610.988 802.023 610.571C802.686 610.15 803.207 609.534 803.586 608.724C803.969 607.91 804.161 606.911 804.161 605.727ZM809.071 598.455H811.734L816.365 609.761H816.535L821.166 598.455H823.829V613H821.741V602.474H821.606L817.316 612.979H815.583L811.294 602.467H811.159V613H809.071V598.455ZM826.303 600.344V598.455H837.56V600.344H833.021V613H830.834V600.344H826.303ZM839.557 613H837.228L842.462 598.455H844.998L850.232 613H847.902L843.79 601.097H843.676L839.557 613ZM839.948 607.304H847.505V609.151H839.948V607.304ZM849.896 600.344V598.455H861.153V600.344H856.615V613H854.428V600.344H849.896ZM875.651 605.727C875.651 607.28 875.367 608.616 874.799 609.733C874.23 610.846 873.452 611.703 872.462 612.304C871.477 612.901 870.357 613.199 869.103 613.199C867.843 613.199 866.719 612.901 865.729 612.304C864.744 611.703 863.968 610.843 863.4 609.726C862.831 608.608 862.547 607.276 862.547 605.727C862.547 604.174 862.831 602.841 863.4 601.729C863.968 600.611 864.744 599.754 865.729 599.158C866.719 598.556 867.843 598.256 869.103 598.256C870.357 598.256 871.477 598.556 872.462 599.158C873.452 599.754 874.23 600.611 874.799 601.729C875.367 602.841 875.651 604.174 875.651 605.727ZM873.478 605.727C873.478 604.544 873.286 603.547 872.902 602.737C872.524 601.923 872.003 601.307 871.34 600.891C870.682 600.469 869.936 600.259 869.103 600.259C868.265 600.259 867.516 600.469 866.858 600.891C866.2 601.307 865.679 601.923 865.296 602.737C864.917 603.547 864.728 604.544 864.728 605.727C864.728 606.911 864.917 607.91 865.296 608.724C865.679 609.534 866.2 610.15 866.858 610.571C867.516 610.988 868.265 611.196 869.103 611.196C869.936 611.196 870.682 610.988 871.34 610.571C872.003 610.15 872.524 609.534 872.902 608.724C873.286 607.91 873.478 606.911 873.478 605.727ZM868.222 596.999L869.884 593.724H872.121L869.919 596.999H868.222ZM775.28 637H772.95L778.185 622.455H780.72L785.955 637H783.625L779.513 625.097H779.399L775.28 637ZM775.67 631.304H783.227V633.151H775.67V631.304ZM778.575 620.999L780.237 617.724H782.474L780.273 620.999H778.575ZM788.055 637V622.455H790.25V635.111H796.841V637H788.055ZM799.344 637V622.455H801.539V635.111H808.13V637H799.344ZM822.702 629.727C822.702 631.28 822.418 632.616 821.849 633.733C821.281 634.846 820.502 635.703 819.513 636.304C818.528 636.901 817.408 637.199 816.153 637.199C814.894 637.199 813.769 636.901 812.78 636.304C811.795 635.703 811.018 634.843 810.45 633.726C809.882 632.608 809.598 631.276 809.598 629.727C809.598 628.174 809.882 626.841 810.45 625.729C811.018 624.611 811.795 623.754 812.78 623.158C813.769 622.556 814.894 622.256 816.153 622.256C817.408 622.256 818.528 622.556 819.513 623.158C820.502 623.754 821.281 624.611 821.849 625.729C822.418 626.841 822.702 628.174 822.702 629.727ZM820.528 629.727C820.528 628.544 820.337 627.547 819.953 626.737C819.574 625.923 819.054 625.307 818.391 624.891C817.732 624.469 816.987 624.259 816.153 624.259C815.315 624.259 814.567 624.469 813.909 624.891C813.251 625.307 812.73 625.923 812.347 626.737C811.968 627.547 811.778 628.544 811.778 629.727C811.778 630.911 811.968 631.91 812.347 632.724C812.73 633.534 813.251 634.15 813.909 634.571C814.567 634.988 815.315 635.196 816.153 635.196C816.987 635.196 817.732 634.988 818.391 634.571C819.054 634.15 819.574 633.534 819.953 632.724C820.337 631.91 820.528 630.911 820.528 629.727ZM825.438 622.455H828.101L832.732 633.761H832.902L837.533 622.455H840.196V637H838.108V626.474H837.973L833.684 636.979H831.951L827.661 626.467H827.526V637H825.438V622.455ZM844.616 637H842.286L847.521 622.455H850.056L855.29 637H852.961L848.849 625.097H848.735L844.616 637ZM845.006 631.304H852.563V633.151H845.006V631.304ZM847.911 620.999L849.573 617.724H851.81L849.609 620.999H847.911ZM865.207 626.276C865.131 625.603 864.819 625.082 864.27 624.713C863.72 624.339 863.029 624.152 862.196 624.152C861.599 624.152 861.083 624.247 860.647 624.436C860.212 624.621 859.873 624.876 859.632 625.203C859.395 625.525 859.277 625.892 859.277 626.304C859.277 626.65 859.357 626.948 859.518 627.199C859.684 627.45 859.899 627.661 860.164 627.831C860.434 627.997 860.723 628.136 861.031 628.25C861.339 628.359 861.635 628.449 861.919 628.52L863.339 628.889C863.803 629.003 864.279 629.157 864.767 629.351C865.254 629.545 865.707 629.801 866.123 630.118C866.54 630.435 866.876 630.828 867.132 631.297C867.392 631.766 867.522 632.327 867.522 632.98C867.522 633.804 867.309 634.536 866.883 635.175C866.462 635.814 865.849 636.318 865.044 636.688C864.243 637.057 863.275 637.241 862.139 637.241C861.05 637.241 860.108 637.069 859.312 636.723C858.517 636.377 857.894 635.887 857.444 635.253C856.994 634.614 856.746 633.856 856.699 632.98H858.9C858.943 633.506 859.113 633.944 859.412 634.294C859.715 634.64 860.1 634.898 860.569 635.068C861.043 635.234 861.561 635.317 862.125 635.317C862.745 635.317 863.297 635.22 863.779 635.026C864.267 634.827 864.651 634.552 864.93 634.202C865.209 633.847 865.349 633.432 865.349 632.959C865.349 632.528 865.226 632.175 864.98 631.901C864.738 631.626 864.409 631.399 863.993 631.219C863.581 631.039 863.114 630.88 862.593 630.743L860.875 630.274C859.71 629.957 858.787 629.491 858.105 628.875C857.428 628.259 857.089 627.445 857.089 626.432C857.089 625.594 857.316 624.862 857.771 624.237C858.225 623.612 858.841 623.127 859.618 622.781C860.394 622.431 861.27 622.256 862.245 622.256C863.23 622.256 864.099 622.429 864.852 622.774C865.609 623.12 866.206 623.596 866.642 624.202C867.077 624.803 867.305 625.494 867.324 626.276H865.207Z" fill="black"/>
<rect x="724.5" y="792.5" width="188" height="241" rx="9.5" fill="#FFEDC5" stroke="black"/>
<path d="M781.131 913V898.455H786.316C787.448 898.455 788.385 898.661 789.128 899.072C789.872 899.484 790.428 900.048 790.797 900.763C791.167 901.473 791.351 902.273 791.351 903.163C791.351 904.058 791.164 904.863 790.79 905.578C790.421 906.288 789.862 906.852 789.114 907.268C788.371 907.68 787.436 907.886 786.309 907.886H782.743V906.026H786.11C786.825 906.026 787.405 905.902 787.85 905.656C788.295 905.405 788.622 905.064 788.83 904.634C789.038 904.203 789.143 903.713 789.143 903.163C789.143 902.614 789.038 902.126 788.83 901.7C788.622 901.274 788.293 900.94 787.843 900.699C787.398 900.457 786.811 900.337 786.081 900.337H783.326V913H781.131ZM796.119 898.455V913H793.924V898.455H796.119ZM799.315 913V898.455H801.509V904.776H808.761V898.455H810.963V913H808.761V906.658H801.509V913H799.315ZM814.159 913V898.455H823.278V900.344H816.353V904.776H822.802V906.658H816.353V911.111H823.363V913H814.159ZM837.949 898.455V913H835.932L828.539 902.332H828.404V913H826.209V898.455H828.241L835.641 909.136H835.776V898.455H837.949ZM853.786 905.727C853.786 907.28 853.502 908.616 852.933 909.733C852.365 910.846 851.586 911.703 850.597 912.304C849.612 912.901 848.492 913.199 847.237 913.199C845.978 913.199 844.853 912.901 843.864 912.304C842.879 911.703 842.102 910.843 841.534 909.726C840.966 908.608 840.682 907.276 840.682 905.727C840.682 904.174 840.966 902.841 841.534 901.729C842.102 900.611 842.879 899.754 843.864 899.158C844.853 898.556 845.978 898.256 847.237 898.256C848.492 898.256 849.612 898.556 850.597 899.158C851.586 899.754 852.365 900.611 852.933 901.729C853.502 902.841 853.786 904.174 853.786 905.727ZM851.612 905.727C851.612 904.544 851.421 903.547 851.037 902.737C850.658 901.923 850.137 901.307 849.475 900.891C848.816 900.469 848.071 900.259 847.237 900.259C846.399 900.259 845.651 900.469 844.993 900.891C844.335 901.307 843.814 901.923 843.431 902.737C843.052 903.547 842.862 904.544 842.862 905.727C842.862 906.911 843.052 907.91 843.431 908.724C843.814 909.534 844.335 910.15 844.993 910.571C845.651 910.988 846.399 911.196 847.237 911.196C848.071 911.196 848.816 910.988 849.475 910.571C850.137 910.15 850.658 909.534 851.037 908.724C851.421 907.91 851.612 906.911 851.612 905.727ZM847.692 897.24L849.901 894.25H852.003L849.389 897.24H847.692ZM844.531 897.24L846.222 894.25H848.303L846.122 897.24H844.531ZM861.09 897.773L856.403 915.188H854.507L859.194 897.773H861.09ZM779.393 937V922.455H781.588V929.401H781.765L787.866 922.455H790.629L784.762 929.003L790.65 937H788.008L783.306 930.501L781.588 932.476V937H779.393ZM804.586 929.727C804.586 931.28 804.302 932.616 803.734 933.733C803.166 934.846 802.387 935.703 801.398 936.304C800.413 936.901 799.293 937.199 798.038 937.199C796.779 937.199 795.654 936.901 794.665 936.304C793.68 935.703 792.903 934.843 792.335 933.726C791.767 932.608 791.483 931.276 791.483 929.727C791.483 928.174 791.767 926.841 792.335 925.729C792.903 924.611 793.68 923.754 794.665 923.158C795.654 922.556 796.779 922.256 798.038 922.256C799.293 922.256 800.413 922.556 801.398 923.158C802.387 923.754 803.166 924.611 803.734 925.729C804.302 926.841 804.586 928.174 804.586 929.727ZM802.413 929.727C802.413 928.544 802.221 927.547 801.838 926.737C801.459 925.923 800.938 925.307 800.275 924.891C799.617 924.469 798.872 924.259 798.038 924.259C797.2 924.259 796.452 924.469 795.794 924.891C795.136 925.307 794.615 925.923 794.231 926.737C793.853 927.547 793.663 928.544 793.663 929.727C793.663 930.911 793.853 931.91 794.231 932.724C794.615 933.534 795.136 934.15 795.794 934.571C796.452 934.988 797.2 935.196 798.038 935.196C798.872 935.196 799.617 934.988 800.275 934.571C800.938 934.15 801.459 933.534 801.838 932.724C802.221 931.91 802.413 930.911 802.413 929.727ZM819.063 922.455V937H817.046L809.652 926.332H809.517V937H807.323V922.455H809.354L816.754 933.136H816.889V922.455H819.063ZM821.142 922.455H823.635L827.434 929.067H827.591L831.39 922.455H833.883L828.606 931.29V937H826.419V931.29L821.142 922.455ZM835.955 937V922.455H838.15V928.776H845.401V922.455H847.603V937H845.401V930.658H838.15V937H835.955ZM852.028 937H849.698L854.933 922.455H857.468L862.703 937H860.373L856.261 925.097H856.147L852.028 937ZM852.419 931.304H859.975V933.151H852.419V931.304Z" fill="black"/>
<path d="M171 21.5H477C482.247 21.5 486.5 25.7533 486.5 31V175C486.5 180.247 482.247 184.5 477 184.5H171C165.753 184.5 161.5 180.247 161.5 175V31C161.5 25.7533 165.753 21.5 171 21.5Z" fill="#FFEDC5" stroke="black"/>
<rect x="487" y="692" width="426" height="100" rx="10" fill="#D9D9D9"/>
<rect x="161" y="980" width="426" height="100" rx="10" fill="#D9D9D9"/>
<rect x="724.5" y="324.5" width="188" height="149" rx="9.5" fill="#FFEDC5" stroke="black"/>
<rect x="161.5" y="738.5" width="188" height="241" rx="9.5" fill="#FFEDC5" stroke="black"/>
<path d="M223.941 843.276C223.866 842.603 223.553 842.082 223.004 841.713C222.455 841.339 221.763 841.152 220.93 841.152C220.333 841.152 219.817 841.247 219.382 841.436C218.946 841.621 218.608 841.876 218.366 842.203C218.129 842.525 218.011 842.892 218.011 843.304C218.011 843.65 218.092 843.948 218.252 844.199C218.418 844.45 218.634 844.661 218.899 844.831C219.169 844.997 219.458 845.136 219.765 845.25C220.073 845.359 220.369 845.449 220.653 845.52L222.074 845.889C222.538 846.003 223.013 846.157 223.501 846.351C223.989 846.545 224.441 846.801 224.858 847.118C225.274 847.435 225.61 847.828 225.866 848.297C226.127 848.766 226.257 849.327 226.257 849.98C226.257 850.804 226.044 851.536 225.618 852.175C225.196 852.814 224.583 853.318 223.778 853.688C222.978 854.057 222.01 854.241 220.873 854.241C219.784 854.241 218.842 854.069 218.047 853.723C217.251 853.377 216.628 852.887 216.179 852.253C215.729 851.614 215.48 850.856 215.433 849.98H217.635C217.677 850.506 217.848 850.944 218.146 851.294C218.449 851.64 218.835 851.898 219.304 852.068C219.777 852.234 220.296 852.317 220.859 852.317C221.479 852.317 222.031 852.22 222.514 852.026C223.002 851.827 223.385 851.552 223.664 851.202C223.944 850.847 224.083 850.432 224.083 849.959C224.083 849.528 223.96 849.175 223.714 848.901C223.473 848.626 223.144 848.399 222.727 848.219C222.315 848.039 221.849 847.88 221.328 847.743L219.609 847.274C218.444 846.957 217.521 846.491 216.839 845.875C216.162 845.259 215.824 844.445 215.824 843.432C215.824 842.594 216.051 841.862 216.505 841.237C216.96 840.612 217.575 840.127 218.352 839.781C219.128 839.431 220.004 839.256 220.98 839.256C221.965 839.256 222.833 839.429 223.586 839.774C224.344 840.12 224.94 840.596 225.376 841.202C225.812 841.803 226.039 842.494 226.058 843.276H223.941ZM228.503 854V852.537L236.152 841.344H228.439V839.455H238.837V840.918L231.188 852.111H238.901V854H228.503ZM241.653 854V839.455H250.772V841.344H243.847V845.776H250.296V847.658H243.847V852.111H250.857V854H241.653ZM253.703 854V839.455H258.888C260.015 839.455 260.95 839.649 261.694 840.037C262.442 840.425 263 840.963 263.37 841.649C263.739 842.331 263.924 843.119 263.924 844.014C263.924 844.904 263.737 845.688 263.363 846.365C262.993 847.037 262.435 847.561 261.686 847.935C260.943 848.309 260.008 848.496 258.881 848.496H254.953V846.607H258.682C259.392 846.607 259.97 846.505 260.415 846.301C260.865 846.098 261.194 845.802 261.402 845.413C261.611 845.025 261.715 844.559 261.715 844.014C261.715 843.465 261.608 842.989 261.395 842.587C261.187 842.184 260.858 841.876 260.408 841.663C259.963 841.446 259.378 841.337 258.654 841.337H255.898V854H253.703ZM260.884 847.438L264.478 854H261.978L258.455 847.438H260.884ZM267.514 839.455L271.562 851.301H271.725L275.774 839.455H278.146L272.912 854H270.376L265.142 839.455H267.514ZM280.246 854V839.455H289.366V841.344H282.441V845.776H288.89V847.658H282.441V852.111H289.451V854H280.246ZM292.297 854V839.455H297.482C298.609 839.455 299.544 839.649 300.287 840.037C301.035 840.425 301.594 840.963 301.963 841.649C302.333 842.331 302.517 843.119 302.517 844.014C302.517 844.904 302.33 845.688 301.956 846.365C301.587 847.037 301.028 847.561 300.28 847.935C299.537 848.309 298.602 848.496 297.475 848.496H293.547V846.607H297.276C297.986 846.607 298.564 846.505 299.009 846.301C299.459 846.098 299.788 845.802 299.996 845.413C300.204 845.025 300.309 844.559 300.309 844.014C300.309 843.465 300.202 842.989 299.989 842.587C299.781 842.184 299.452 841.876 299.002 841.663C298.557 841.446 297.972 841.337 297.248 841.337H294.492V854H292.297ZM299.478 847.438L303.071 854H300.571L297.049 847.438H299.478ZM234.82 867.276C234.745 866.603 234.432 866.082 233.883 865.713C233.334 865.339 232.642 865.152 231.809 865.152C231.212 865.152 230.696 865.247 230.261 865.436C229.825 865.621 229.487 865.876 229.245 866.203C229.008 866.525 228.89 866.892 228.89 867.304C228.89 867.65 228.97 867.948 229.131 868.199C229.297 868.45 229.513 868.661 229.778 868.831C230.048 868.997 230.336 869.136 230.644 869.25C230.952 869.359 231.248 869.449 231.532 869.52L232.952 869.889C233.416 870.003 233.892 870.157 234.38 870.351C234.868 870.545 235.32 870.801 235.737 871.118C236.153 871.435 236.489 871.828 236.745 872.297C237.005 872.766 237.136 873.327 237.136 873.98C237.136 874.804 236.923 875.536 236.496 876.175C236.075 876.814 235.462 877.318 234.657 877.688C233.857 878.057 232.888 878.241 231.752 878.241C230.663 878.241 229.721 878.069 228.925 877.723C228.13 877.377 227.507 876.887 227.058 876.253C226.608 875.614 226.359 874.856 226.312 873.98H228.513C228.556 874.506 228.727 874.944 229.025 875.294C229.328 875.64 229.714 875.898 230.183 876.068C230.656 876.234 231.174 876.317 231.738 876.317C232.358 876.317 232.91 876.22 233.393 876.026C233.88 875.827 234.264 875.552 234.543 875.202C234.823 874.847 234.962 874.432 234.962 873.959C234.962 873.528 234.839 873.175 234.593 872.901C234.352 872.626 234.022 872.399 233.606 872.219C233.194 872.039 232.728 871.88 232.207 871.743L230.488 871.274C229.323 870.957 228.4 870.491 227.718 869.875C227.041 869.259 226.702 868.445 226.702 867.432C226.702 866.594 226.93 865.862 227.384 865.237C227.839 864.612 228.454 864.127 229.231 863.781C230.007 863.431 230.883 863.256 231.859 863.256C232.844 863.256 233.712 863.429 234.465 863.774C235.223 864.12 235.819 864.596 236.255 865.202C236.691 865.803 236.918 866.494 236.937 867.276H234.82ZM239.382 878V876.537L247.031 865.344H239.318V863.455H249.716V864.918L242.066 876.111H249.779V878H239.382ZM264.483 870.727C264.483 872.28 264.199 873.616 263.631 874.733C263.063 875.846 262.284 876.703 261.294 877.304C260.309 877.901 259.189 878.199 257.935 878.199C256.675 878.199 255.551 877.901 254.561 877.304C253.576 876.703 252.8 875.843 252.232 874.726C251.663 873.608 251.379 872.276 251.379 870.727C251.379 869.174 251.663 867.841 252.232 866.729C252.8 865.611 253.576 864.754 254.561 864.158C255.551 863.556 256.675 863.256 257.935 863.256C259.189 863.256 260.309 863.556 261.294 864.158C262.284 864.754 263.063 865.611 263.631 866.729C264.199 867.841 264.483 869.174 264.483 870.727ZM262.31 870.727C262.31 869.544 262.118 868.547 261.734 867.737C261.356 866.923 260.835 866.307 260.172 865.891C259.514 865.469 258.768 865.259 257.935 865.259C257.097 865.259 256.348 865.469 255.69 865.891C255.032 866.307 254.511 866.923 254.128 867.737C253.749 868.547 253.56 869.544 253.56 870.727C253.56 871.911 253.749 872.91 254.128 873.724C254.511 874.534 255.032 875.15 255.69 875.571C256.348 875.988 257.097 876.196 257.935 876.196C258.768 876.196 259.514 875.988 260.172 875.571C260.835 875.15 261.356 874.534 261.734 873.724C262.118 872.91 262.31 871.911 262.31 870.727ZM267.219 878V863.455H272.546C273.578 863.455 274.433 863.625 275.11 863.966C275.787 864.302 276.293 864.759 276.63 865.337C276.966 865.91 277.134 866.556 277.134 867.276C277.134 867.882 277.023 868.393 276.8 868.81C276.578 869.222 276.279 869.553 275.905 869.804C275.536 870.05 275.129 870.23 274.684 870.344V870.486C275.167 870.509 275.638 870.666 276.097 870.955C276.561 871.239 276.944 871.643 277.248 872.169C277.551 872.695 277.702 873.334 277.702 874.087C277.702 874.83 277.527 875.498 277.176 876.089C276.831 876.677 276.296 877.143 275.571 877.489C274.847 877.83 273.921 878 272.794 878H267.219ZM269.414 876.118H272.581C273.632 876.118 274.385 875.914 274.84 875.507C275.294 875.1 275.522 874.591 275.522 873.98C275.522 873.521 275.406 873.099 275.174 872.716C274.942 872.332 274.61 872.027 274.179 871.8C273.753 871.572 273.247 871.459 272.659 871.459H269.414V876.118ZM269.414 869.747H272.354C272.846 869.747 273.289 869.652 273.682 869.463C274.08 869.274 274.395 869.009 274.627 868.668C274.864 868.322 274.982 867.915 274.982 867.446C274.982 866.845 274.771 866.34 274.35 865.933C273.928 865.526 273.282 865.322 272.411 865.322H269.414V869.747ZM281.534 878H279.204L284.439 863.455H286.974L292.208 878H289.879L285.767 866.097H285.653L281.534 878ZM281.924 872.304H289.481V874.151H281.924V872.304Z" fill="black"/>
<rect x="161.5" y="1080.5" width="188" height="241" rx="9.5" fill="#FFEDC5" stroke="black"/>
<path d="M243.231 1195V1180.45H245.425V1186.78H252.677V1180.45H254.879V1195H252.677V1188.66H245.425V1195H243.231ZM258.075 1195V1180.45H263.259C264.386 1180.45 265.321 1180.65 266.065 1181.04C266.813 1181.43 267.371 1181.96 267.741 1182.65C268.11 1183.33 268.295 1184.12 268.295 1185.01C268.295 1185.9 268.108 1186.69 267.734 1187.37C267.364 1188.04 266.806 1188.56 266.058 1188.93C265.314 1189.31 264.379 1189.5 263.252 1189.5H259.325V1187.61H263.053C263.763 1187.61 264.341 1187.5 264.786 1187.3C265.236 1187.1 265.565 1186.8 265.773 1186.41C265.982 1186.03 266.086 1185.56 266.086 1185.01C266.086 1184.46 265.979 1183.99 265.766 1183.59C265.558 1183.18 265.229 1182.88 264.779 1182.66C264.334 1182.45 263.749 1182.34 263.025 1182.34H260.269V1195H258.075ZM265.255 1188.44L268.849 1195H266.349L262.826 1188.44H265.255ZM224.616 1211.73C224.616 1213.28 224.332 1214.62 223.763 1215.73C223.195 1216.85 222.416 1217.7 221.427 1218.3C220.442 1218.9 219.322 1219.2 218.067 1219.2C216.808 1219.2 215.683 1218.9 214.694 1218.3C213.709 1217.7 212.933 1216.84 212.364 1215.73C211.796 1214.61 211.512 1213.28 211.512 1211.73C211.512 1210.17 211.796 1208.84 212.364 1207.73C212.933 1206.61 213.709 1205.75 214.694 1205.16C215.683 1204.56 216.808 1204.26 218.067 1204.26C219.322 1204.26 220.442 1204.56 221.427 1205.16C222.416 1205.75 223.195 1206.61 223.763 1207.73C224.332 1208.84 224.616 1210.17 224.616 1211.73ZM222.442 1211.73C222.442 1210.54 222.251 1209.55 221.867 1208.74C221.488 1207.92 220.968 1207.31 220.305 1206.89C219.647 1206.47 218.901 1206.26 218.067 1206.26C217.229 1206.26 216.481 1206.47 215.823 1206.89C215.165 1207.31 214.644 1207.92 214.261 1208.74C213.882 1209.55 213.692 1210.54 213.692 1211.73C213.692 1212.91 213.882 1213.91 214.261 1214.72C214.644 1215.53 215.165 1216.15 215.823 1216.57C216.481 1216.99 217.229 1217.2 218.067 1217.2C218.901 1217.2 219.647 1216.99 220.305 1216.57C220.968 1216.15 221.488 1215.53 221.867 1214.72C222.251 1213.91 222.442 1212.91 222.442 1211.73ZM235.285 1208.28C235.209 1207.6 234.897 1207.08 234.348 1206.71C233.798 1206.34 233.107 1206.15 232.274 1206.15C231.677 1206.15 231.161 1206.25 230.725 1206.44C230.29 1206.62 229.951 1206.88 229.71 1207.2C229.473 1207.53 229.355 1207.89 229.355 1208.3C229.355 1208.65 229.435 1208.95 229.596 1209.2C229.762 1209.45 229.977 1209.66 230.243 1209.83C230.512 1210 230.801 1210.14 231.109 1210.25C231.417 1210.36 231.713 1210.45 231.997 1210.52L233.417 1210.89C233.881 1211 234.357 1211.16 234.845 1211.35C235.333 1211.54 235.785 1211.8 236.201 1212.12C236.618 1212.44 236.954 1212.83 237.21 1213.3C237.47 1213.77 237.6 1214.33 237.6 1214.98C237.6 1215.8 237.387 1216.54 236.961 1217.17C236.54 1217.81 235.927 1218.32 235.122 1218.69C234.322 1219.06 233.353 1219.24 232.217 1219.24C231.128 1219.24 230.186 1219.07 229.39 1218.72C228.595 1218.38 227.972 1217.89 227.522 1217.25C227.073 1216.61 226.824 1215.86 226.777 1214.98H228.978C229.021 1215.51 229.191 1215.94 229.49 1216.29C229.793 1216.64 230.179 1216.9 230.647 1217.07C231.121 1217.23 231.639 1217.32 232.203 1217.32C232.823 1217.32 233.375 1217.22 233.858 1217.03C234.345 1216.83 234.729 1216.55 235.008 1216.2C235.288 1215.85 235.427 1215.43 235.427 1214.96C235.427 1214.53 235.304 1214.18 235.058 1213.9C234.816 1213.63 234.487 1213.4 234.071 1213.22C233.659 1213.04 233.192 1212.88 232.672 1212.74L230.953 1212.27C229.788 1211.96 228.865 1211.49 228.183 1210.88C227.506 1210.26 227.167 1209.45 227.167 1208.43C227.167 1207.59 227.395 1206.86 227.849 1206.24C228.304 1205.61 228.919 1205.13 229.696 1204.78C230.472 1204.43 231.348 1204.26 232.324 1204.26C233.308 1204.26 234.177 1204.43 234.93 1204.77C235.688 1205.12 236.284 1205.6 236.72 1206.2C237.155 1206.8 237.383 1207.49 237.402 1208.28H235.285ZM239.847 1219V1217.54L247.496 1206.34H239.783V1204.45H250.18V1205.92L242.531 1217.11H250.244V1219H239.847ZM252.279 1206.34V1204.45H263.536V1206.34H258.998V1219H256.81V1206.34H252.279ZM265.534 1219H263.204L268.439 1204.45H270.974L276.208 1219H273.879L269.767 1207.1H269.653L265.534 1219ZM265.924 1213.3H273.481V1215.15H265.924V1213.3ZM268.829 1203L270.491 1199.72H272.728L270.527 1203H268.829ZM278.309 1219V1204.45H280.504V1217.11H287.094V1219H278.309ZM287.402 1204.45H289.895L293.694 1211.07H293.85L297.65 1204.45H300.143L294.866 1213.29V1219H292.679V1213.29L287.402 1204.45Z" fill="black"/>
<path d="M171 1373.5H286.595C290.019 1373.5 293.179 1375.34 294.864 1378.33L343.271 1463.96C344.077 1465.38 344.5 1466.99 344.5 1468.63V1561C344.5 1566.25 340.247 1570.5 335 1570.5H171C165.753 1570.5 161.5 1566.25 161.5 1561V1383L161.513 1382.51C161.767 1377.49 165.917 1373.5 171 1373.5Z" fill="#FFEDC5" stroke="black"/>
<path d="M233.487 555.455V570H231.469L224.076 559.332H223.941V570H221.746V555.455H223.778L231.178 566.136H231.313V555.455H233.487ZM249.323 562.727C249.323 564.28 249.039 565.616 248.471 566.733C247.902 567.846 247.123 568.703 246.134 569.304C245.149 569.901 244.029 570.199 242.775 570.199C241.515 570.199 240.391 569.901 239.401 569.304C238.416 568.703 237.64 567.843 237.071 566.726C236.503 565.608 236.219 564.276 236.219 562.727C236.219 561.174 236.503 559.841 237.071 558.729C237.64 557.611 238.416 556.754 239.401 556.158C240.391 555.556 241.515 555.256 242.775 555.256C244.029 555.256 245.149 555.556 246.134 556.158C247.123 556.754 247.902 557.611 248.471 558.729C249.039 559.841 249.323 561.174 249.323 562.727ZM247.15 562.727C247.15 561.544 246.958 560.547 246.574 559.737C246.195 558.923 245.675 558.307 245.012 557.891C244.354 557.469 243.608 557.259 242.775 557.259C241.936 557.259 241.188 557.469 240.53 557.891C239.872 558.307 239.351 558.923 238.968 559.737C238.589 560.547 238.4 561.544 238.4 562.727C238.4 563.911 238.589 564.91 238.968 565.724C239.351 566.534 239.872 567.15 240.53 567.571C241.188 567.988 241.936 568.196 242.775 568.196C243.608 568.196 244.354 567.988 245.012 567.571C245.675 567.15 246.195 566.534 246.574 565.724C246.958 564.91 247.15 563.911 247.15 562.727ZM243.229 554.24L245.438 551.25H247.54L244.926 554.24H243.229ZM240.069 554.24L241.759 551.25H243.84L241.659 554.24H240.069ZM254.254 555.455V570H252.059V555.455H254.254ZM201.6 579.455H204.263L208.894 590.761H209.064L213.695 579.455H216.358V594H214.27V583.474H214.135L209.846 593.979H208.113L203.823 583.467H203.688V594H201.6V579.455ZM232.184 586.727C232.184 588.28 231.9 589.616 231.332 590.733C230.764 591.846 229.985 592.703 228.995 593.304C228.01 593.901 226.891 594.199 225.636 594.199C224.376 594.199 223.252 593.901 222.262 593.304C221.277 592.703 220.501 591.843 219.933 590.726C219.365 589.608 219.08 588.276 219.08 586.727C219.08 585.174 219.365 583.841 219.933 582.729C220.501 581.611 221.277 580.754 222.262 580.158C223.252 579.556 224.376 579.256 225.636 579.256C226.891 579.256 228.01 579.556 228.995 580.158C229.985 580.754 230.764 581.611 231.332 582.729C231.9 583.841 232.184 585.174 232.184 586.727ZM230.011 586.727C230.011 585.544 229.819 584.547 229.436 583.737C229.057 582.923 228.536 582.307 227.873 581.891C227.215 581.469 226.469 581.259 225.636 581.259C224.798 581.259 224.05 581.469 223.392 581.891C222.733 582.307 222.213 582.923 221.829 583.737C221.45 584.547 221.261 585.544 221.261 586.727C221.261 587.911 221.45 588.91 221.829 589.724C222.213 590.534 222.733 591.15 223.392 591.571C224.05 591.988 224.798 592.196 225.636 592.196C226.469 592.196 227.215 591.988 227.873 591.571C228.536 591.15 229.057 590.534 229.436 589.724C229.819 588.91 230.011 587.911 230.011 586.727ZM242.854 583.276C242.778 582.603 242.465 582.082 241.916 581.713C241.367 581.339 240.675 581.152 239.842 581.152C239.246 581.152 238.729 581.247 238.294 581.436C237.858 581.621 237.52 581.876 237.278 582.203C237.041 582.525 236.923 582.892 236.923 583.304C236.923 583.65 237.004 583.948 237.165 584.199C237.33 584.45 237.546 584.661 237.811 584.831C238.081 584.997 238.37 585.136 238.677 585.25C238.985 585.359 239.281 585.449 239.565 585.52L240.986 585.889C241.45 586.003 241.925 586.157 242.413 586.351C242.901 586.545 243.353 586.801 243.77 587.118C244.186 587.435 244.523 587.828 244.778 588.297C245.039 588.766 245.169 589.327 245.169 589.98C245.169 590.804 244.956 591.536 244.53 592.175C244.108 592.814 243.495 593.318 242.69 593.688C241.89 594.057 240.922 594.241 239.785 594.241C238.696 594.241 237.754 594.069 236.959 593.723C236.163 593.377 235.541 592.887 235.091 592.253C234.641 591.614 234.392 590.856 234.345 589.98H236.547C236.589 590.506 236.76 590.944 237.058 591.294C237.361 591.64 237.747 591.898 238.216 592.068C238.689 592.234 239.208 592.317 239.771 592.317C240.391 592.317 240.943 592.22 241.426 592.026C241.914 591.827 242.297 591.552 242.577 591.202C242.856 590.847 242.996 590.432 242.996 589.959C242.996 589.528 242.872 589.175 242.626 588.901C242.385 588.626 242.056 588.399 241.639 588.219C241.227 588.039 240.761 587.88 240.24 587.743L238.521 587.274C237.356 586.957 236.433 586.491 235.751 585.875C235.074 585.259 234.736 584.445 234.736 583.432C234.736 582.594 234.963 581.862 235.417 581.237C235.872 580.612 236.488 580.127 237.264 579.781C238.041 579.431 238.916 579.256 239.892 579.256C240.877 579.256 241.746 579.429 242.498 579.774C243.256 580.12 243.853 580.596 244.288 581.202C244.724 581.803 244.951 582.494 244.97 583.276H242.854ZM252.5 594H247.791V579.455H252.649C254.075 579.455 255.298 579.746 256.321 580.328C257.344 580.906 258.128 581.737 258.672 582.821C259.221 583.901 259.496 585.196 259.496 586.706C259.496 588.221 259.219 589.523 258.665 590.612C258.116 591.701 257.32 592.539 256.279 593.126C255.237 593.709 253.977 594 252.5 594ZM249.986 592.082H252.379C253.487 592.082 254.408 591.874 255.142 591.457C255.876 591.036 256.425 590.428 256.79 589.632C257.155 588.832 257.337 587.857 257.337 586.706C257.337 585.565 257.155 584.597 256.79 583.801C256.43 583.006 255.893 582.402 255.178 581.99C254.463 581.578 253.575 581.372 252.514 581.372H249.986V592.082ZM274.86 586.727C274.86 588.28 274.576 589.616 274.008 590.733C273.439 591.846 272.661 592.703 271.671 593.304C270.686 593.901 269.566 594.199 268.312 594.199C267.052 594.199 265.928 593.901 264.938 593.304C263.953 592.703 263.177 591.843 262.608 590.726C262.04 589.608 261.756 588.276 261.756 586.727C261.756 585.174 262.04 583.841 262.608 582.729C263.177 581.611 263.953 580.754 264.938 580.158C265.928 579.556 267.052 579.256 268.312 579.256C269.566 579.256 270.686 579.556 271.671 580.158C272.661 580.754 273.439 581.611 274.008 582.729C274.576 583.841 274.86 585.174 274.86 586.727ZM272.687 586.727C272.687 585.544 272.495 584.547 272.111 583.737C271.733 582.923 271.212 582.307 270.549 581.891C269.891 581.469 269.145 581.259 268.312 581.259C267.474 581.259 266.725 581.469 266.067 581.891C265.409 582.307 264.888 582.923 264.505 583.737C264.126 584.547 263.937 585.544 263.937 586.727C263.937 587.911 264.126 588.91 264.505 589.724C264.888 590.534 265.409 591.15 266.067 591.571C266.725 591.988 267.474 592.196 268.312 592.196C269.145 592.196 269.891 591.988 270.549 591.571C271.212 591.15 271.733 590.534 272.111 589.724C272.495 588.91 272.687 587.911 272.687 586.727ZM267.431 577.999L269.093 574.724H271.33L269.128 577.999H267.431Z" fill="black"/>
<path d="M769.793 391.455V406H767.598V391.455H769.793ZM775.183 391.455V406H772.989V391.455H775.183ZM780.574 391.455V406H778.379V391.455H780.574ZM784.999 406.135C784.61 406.135 784.277 405.998 783.997 405.723C783.718 405.444 783.578 405.107 783.578 404.714C783.578 404.326 783.718 403.995 783.997 403.72C784.277 403.441 784.61 403.301 784.999 403.301C785.387 403.301 785.721 403.441 786 403.72C786.279 403.995 786.419 404.326 786.419 404.714C786.419 404.975 786.353 405.214 786.22 405.432C786.092 405.645 785.922 405.815 785.709 405.943C785.496 406.071 785.259 406.135 784.999 406.135ZM794.493 406V391.455H799.677C800.804 391.455 801.739 391.649 802.483 392.037C803.231 392.425 803.789 392.963 804.159 393.649C804.528 394.331 804.713 395.119 804.713 396.014C804.713 396.904 804.526 397.688 804.152 398.365C803.782 399.037 803.224 399.561 802.475 399.935C801.732 400.309 800.797 400.496 799.67 400.496H795.743V398.607H799.471C800.181 398.607 800.759 398.505 801.204 398.301C801.654 398.098 801.983 397.802 802.191 397.413C802.4 397.025 802.504 396.559 802.504 396.014C802.504 395.465 802.397 394.989 802.184 394.587C801.976 394.184 801.647 393.876 801.197 393.663C800.752 393.446 800.167 393.337 799.443 393.337H796.687V406H794.493ZM801.673 399.438L805.267 406H802.767L799.244 399.438H801.673ZM808.612 406H806.282L811.517 391.455H814.052L819.287 406H816.957L812.845 394.097H812.731L808.612 406ZM809.002 400.304H816.559V402.151H809.002V400.304ZM821.387 406V391.455H823.582V398.401H823.759L829.86 391.455H832.623L826.756 398.003L832.644 406H830.002L825.3 399.501L823.582 401.476V406H821.387ZM833.951 393.344V391.455H845.208V393.344H840.67V406H838.482V393.344H833.951ZM847.206 406H844.876L850.11 391.455H852.646L857.88 406H855.551L851.439 394.097H851.325L847.206 406ZM847.596 400.304H855.153V402.151H847.596V400.304ZM850.501 389.999L852.163 386.724H854.4L852.199 389.999H850.501ZM859.981 406V391.455H865.165C866.292 391.455 867.228 391.649 867.971 392.037C868.719 392.425 869.278 392.963 869.647 393.649C870.016 394.331 870.201 395.119 870.201 396.014C870.201 396.904 870.014 397.688 869.64 398.365C869.271 399.037 868.712 399.561 867.964 399.935C867.22 400.309 866.285 400.496 865.158 400.496H861.231V398.607H864.96C865.67 398.607 866.247 398.505 866.692 398.301C867.142 398.098 867.471 397.802 867.68 397.413C867.888 397.025 867.992 396.559 867.992 396.014C867.992 395.465 867.886 394.989 867.673 394.587C867.464 394.184 867.135 393.876 866.685 393.663C866.24 393.446 865.656 393.337 864.931 393.337H862.175V406H859.981ZM867.161 399.438L870.755 406H868.255L864.732 399.438H867.161Z" fill="black"/>
<path d="M245.869 95.4545L249.918 107.301H250.081L254.129 95.4545H256.501L251.267 110H248.732L243.497 95.4545H245.869ZM258.602 110V95.4545H267.721V97.3438H260.797V101.776H267.245V103.658H260.797V108.111H267.806V110H258.602ZM270.276 110V108.537L277.925 97.3438H270.212V95.4545H280.61V96.9176L272.961 108.111H280.674V110H270.276ZM283.426 110V95.4545H292.545V97.3438H285.621V101.776H292.07V103.658H285.621V108.111H292.631V110H283.426ZM294.76 97.3438V95.4545H306.017V97.3438H301.478V110H299.291V97.3438H294.76ZM320.514 102.727C320.514 104.28 320.23 105.616 319.662 106.733C319.094 107.846 318.315 108.703 317.325 109.304C316.34 109.901 315.221 110.199 313.966 110.199C312.706 110.199 311.582 109.901 310.592 109.304C309.607 108.703 308.831 107.843 308.263 106.726C307.695 105.608 307.411 104.276 307.411 102.727C307.411 101.174 307.695 99.8414 308.263 98.7287C308.831 97.6113 309.607 96.7543 310.592 96.1577C311.582 95.5563 312.706 95.2557 313.966 95.2557C315.221 95.2557 316.34 95.5563 317.325 96.1577C318.315 96.7543 319.094 97.6113 319.662 98.7287C320.23 99.8414 320.514 101.174 320.514 102.727ZM318.341 102.727C318.341 101.544 318.149 100.547 317.766 99.7372C317.387 98.9228 316.866 98.3073 316.203 97.8906C315.545 97.4692 314.799 97.2585 313.966 97.2585C313.128 97.2585 312.38 97.4692 311.722 97.8906C311.063 98.3073 310.543 98.9228 310.159 99.7372C309.78 100.547 309.591 101.544 309.591 102.727C309.591 103.911 309.78 104.91 310.159 105.724C310.543 106.534 311.063 107.15 311.722 107.571C312.38 107.988 313.128 108.196 313.966 108.196C314.799 108.196 315.545 107.988 316.203 107.571C316.866 107.15 317.387 106.534 317.766 105.724C318.149 104.91 318.341 103.911 318.341 102.727ZM314.42 94.2401L316.629 91.25H318.732L316.118 94.2401H314.42ZM311.26 94.2401L312.95 91.25H315.031L312.851 94.2401H311.26ZM325.445 95.4545V110H323.25V95.4545H325.445ZM336.129 95.4545V110H333.934V95.4545H336.129ZM339.325 110V95.4545H344.509C345.636 95.4545 346.571 95.6487 347.315 96.0369C348.063 96.4252 348.621 96.9626 348.991 97.6491C349.36 98.331 349.545 99.1193 349.545 100.014C349.545 100.904 349.358 101.688 348.984 102.365C348.614 103.037 348.056 103.561 347.308 103.935C346.564 104.309 345.629 104.496 344.502 104.496H340.575V102.607H344.303C345.013 102.607 345.591 102.505 346.036 102.301C346.486 102.098 346.815 101.802 347.023 101.413C347.232 101.025 347.336 100.559 347.336 100.014C347.336 99.465 347.229 98.9891 347.016 98.5866C346.808 98.1842 346.479 97.8764 346.029 97.6634C345.584 97.4455 344.999 97.3366 344.275 97.3366H341.519V110H339.325ZM346.505 103.438L350.099 110H347.599L344.076 103.438H346.505ZM364.85 102.727C364.85 104.28 364.566 105.616 363.998 106.733C363.43 107.846 362.651 108.703 361.661 109.304C360.676 109.901 359.557 110.199 358.302 110.199C357.042 110.199 355.918 109.901 354.928 109.304C353.943 108.703 353.167 107.843 352.599 106.726C352.031 105.608 351.746 104.276 351.746 102.727C351.746 101.174 352.031 99.8414 352.599 98.7287C353.167 97.6113 353.943 96.7543 354.928 96.1577C355.918 95.5563 357.042 95.2557 358.302 95.2557C359.557 95.2557 360.676 95.5563 361.661 96.1577C362.651 96.7543 363.43 97.6113 363.998 98.7287C364.566 99.8414 364.85 101.174 364.85 102.727ZM362.677 102.727C362.677 101.544 362.485 100.547 362.102 99.7372C361.723 98.9228 361.202 98.3073 360.539 97.8906C359.881 97.4692 359.135 97.2585 358.302 97.2585C357.464 97.2585 356.716 97.4692 356.058 97.8906C355.399 98.3073 354.879 98.9228 354.495 99.7372C354.116 100.547 353.927 101.544 353.927 102.727C353.927 103.911 354.116 104.91 354.495 105.724C354.879 106.534 355.399 107.15 356.058 107.571C356.716 107.988 357.464 108.196 358.302 108.196C359.135 108.196 359.881 107.988 360.539 107.571C361.202 107.15 361.723 106.534 362.102 105.724C362.485 104.91 362.677 103.911 362.677 102.727ZM372.295 110H367.586V95.4545H372.444C373.869 95.4545 375.093 95.7457 376.116 96.3281C377.139 96.9058 377.922 97.7367 378.467 98.821C379.016 99.9006 379.291 101.196 379.291 102.706C379.291 104.221 379.014 105.523 378.46 106.612C377.911 107.701 377.115 108.539 376.074 109.126C375.032 109.709 373.772 110 372.295 110ZM369.781 108.082H372.174C373.282 108.082 374.203 107.874 374.937 107.457C375.671 107.036 376.22 106.428 376.585 105.632C376.949 104.832 377.132 103.857 377.132 102.706C377.132 101.565 376.949 100.597 376.585 99.8011C376.225 99.0057 375.688 98.402 374.973 97.9901C374.258 97.5781 373.37 97.3722 372.309 97.3722H369.781V108.082ZM382.526 110H380.196L385.431 95.4545H387.966L393.201 110H390.871L386.759 98.0966H386.645L382.526 110ZM382.917 104.304H390.473V106.151H382.917V104.304Z" fill="black"/>
<path d="M213.793 1464.45V1479H211.598V1464.45H213.793ZM219.183 1464.45V1479H216.989V1464.45H219.183ZM223.608 1479.13C223.22 1479.13 222.886 1479 222.607 1478.72C222.327 1478.44 222.188 1478.11 222.188 1477.71C222.188 1477.33 222.327 1476.99 222.607 1476.72C222.886 1476.44 223.22 1476.3 223.608 1476.3C223.996 1476.3 224.33 1476.44 224.609 1476.72C224.889 1476.99 225.028 1477.33 225.028 1477.71C225.028 1477.97 224.962 1478.21 224.83 1478.43C224.702 1478.64 224.531 1478.82 224.318 1478.94C224.105 1479.07 223.868 1479.13 223.608 1479.13ZM233.102 1479V1464.45H238.429C239.461 1464.45 240.315 1464.62 240.993 1464.97C241.67 1465.3 242.176 1465.76 242.512 1466.34C242.849 1466.91 243.017 1467.56 243.017 1468.28C243.017 1468.88 242.905 1469.39 242.683 1469.81C242.46 1470.22 242.162 1470.55 241.788 1470.8C241.419 1471.05 241.011 1471.23 240.566 1471.34V1471.49C241.049 1471.51 241.52 1471.67 241.98 1471.95C242.444 1472.24 242.827 1472.64 243.13 1473.17C243.433 1473.69 243.585 1474.33 243.585 1475.09C243.585 1475.83 243.41 1476.5 243.059 1477.09C242.714 1477.68 242.179 1478.14 241.454 1478.49C240.73 1478.83 239.804 1479 238.677 1479H233.102ZM235.297 1477.12H238.464C239.515 1477.12 240.268 1476.91 240.723 1476.51C241.177 1476.1 241.404 1475.59 241.404 1474.98C241.404 1474.52 241.288 1474.1 241.056 1473.72C240.824 1473.33 240.493 1473.03 240.062 1472.8C239.636 1472.57 239.129 1472.46 238.542 1472.46H235.297V1477.12ZM235.297 1470.75H238.237C238.729 1470.75 239.172 1470.65 239.565 1470.46C239.963 1470.27 240.278 1470.01 240.51 1469.67C240.746 1469.32 240.865 1468.91 240.865 1468.45C240.865 1467.84 240.654 1467.34 240.233 1466.93C239.811 1466.53 239.165 1466.32 238.294 1466.32H235.297V1470.75ZM255.542 1464.45H257.743V1474.02C257.743 1475.04 257.504 1475.94 257.026 1476.73C256.548 1477.51 255.875 1478.12 255.009 1478.57C254.142 1479.02 253.127 1479.24 251.962 1479.24C250.802 1479.24 249.789 1479.02 248.922 1478.57C248.056 1478.12 247.383 1477.51 246.905 1476.73C246.427 1475.94 246.188 1475.04 246.188 1474.02V1464.45H248.382V1473.84C248.382 1474.5 248.527 1475.09 248.816 1475.6C249.109 1476.11 249.524 1476.51 250.059 1476.81C250.594 1477.09 251.228 1477.24 251.962 1477.24C252.701 1477.24 253.337 1477.09 253.873 1476.81C254.412 1476.51 254.824 1476.11 255.108 1475.6C255.397 1475.09 255.542 1474.5 255.542 1473.84V1464.45ZM249.881 1462.74C249.545 1462.74 249.251 1462.62 249 1462.37C248.749 1462.12 248.624 1461.83 248.624 1461.51C248.624 1461.15 248.749 1460.86 249 1460.62C249.251 1460.38 249.545 1460.26 249.881 1460.26C250.236 1460.26 250.532 1460.38 250.769 1460.62C251.01 1460.86 251.131 1461.15 251.131 1461.51C251.131 1461.83 251.01 1462.12 250.769 1462.37C250.532 1462.62 250.236 1462.74 249.881 1462.74ZM254.057 1462.74C253.721 1462.74 253.427 1462.62 253.176 1462.37C252.926 1462.12 252.8 1461.83 252.8 1461.51C252.8 1461.15 252.926 1460.86 253.176 1460.62C253.427 1460.38 253.721 1460.26 254.057 1460.26C254.412 1460.26 254.708 1460.38 254.945 1460.62C255.186 1460.86 255.307 1461.15 255.307 1461.51C255.307 1461.83 255.186 1462.12 254.945 1462.37C254.708 1462.62 254.412 1462.74 254.057 1462.74ZM260.934 1479V1464.45H269.954V1466.34H263.129V1470.78H269.308V1472.66H263.129V1479H260.934ZM272.653 1479V1464.45H281.772V1466.34H274.847V1470.78H281.296V1472.66H274.847V1477.11H281.857V1479H272.653ZM276.332 1463L277.994 1459.72H280.231L278.029 1463H276.332Z" fill="black"/>
<path d="M90.6875 295.188C91.5163 295.188 92.3112 294.858 92.8972 294.272C93.4833 293.686 93.8125 292.891 93.8125 292.062V273.044L97.8531 277.084C98.4425 277.654 99.2319 277.969 100.051 277.961C100.871 277.954 101.654 277.626 102.234 277.046C102.813 276.467 103.142 275.683 103.149 274.864C103.156 274.044 102.841 273.255 102.272 272.666L92.8969 263.291C92.3109 262.705 91.5161 262.376 90.6875 262.376C89.8589 262.376 89.0641 262.705 88.4781 263.291L79.1031 272.666C78.8047 272.954 78.5666 273.299 78.4028 273.68C78.239 274.061 78.1528 274.471 78.1492 274.886C78.1456 275.301 78.2247 275.713 78.3818 276.097C78.5389 276.481 78.771 276.83 79.0644 277.123C79.3578 277.417 79.7067 277.649 80.0908 277.806C80.4748 277.963 80.8863 278.042 81.3013 278.038C81.7162 278.035 82.1263 277.948 82.5075 277.785C82.8888 277.621 83.2336 277.383 83.5219 277.084L87.5625 273.044V292.062C87.5625 292.891 87.8917 293.686 88.4778 294.272C89.0638 294.858 89.8587 295.188 90.6875 295.188ZM134.438 265.5C134.438 264.671 134.108 263.876 133.522 263.29C132.936 262.704 132.141 262.375 131.312 262.375C130.484 262.375 129.689 262.704 129.103 263.29C128.517 263.876 128.188 264.671 128.188 265.5V284.519L124.147 280.478C123.557 279.909 122.768 279.594 121.949 279.601C121.129 279.608 120.346 279.937 119.766 280.516C119.187 281.096 118.858 281.879 118.851 282.699C118.844 283.518 119.159 284.307 119.728 284.897L129.103 294.272C129.689 294.858 130.484 295.187 131.312 295.187C132.141 295.187 132.936 294.858 133.522 294.272L142.897 284.897C143.466 284.307 143.781 283.518 143.774 282.699C143.767 281.879 143.438 281.096 142.859 280.516C142.279 279.937 141.496 279.608 140.676 279.601C139.857 279.594 139.068 279.909 138.478 280.478L134.438 284.519V265.5ZM81.3125 240.5C77.5829 240.5 74.006 241.982 71.3688 244.619C68.7316 247.256 67.25 250.833 67.25 254.562V301.438C67.25 305.167 68.7316 308.744 71.3688 311.381C74.006 314.018 77.5829 315.5 81.3125 315.5H140.688C144.417 315.5 147.994 314.018 150.631 311.381C153.268 308.744 154.75 305.167 154.75 301.438V254.562C154.75 250.833 153.268 247.256 150.631 244.619C147.994 241.982 144.417 240.5 140.688 240.5H81.3125ZM73.5 254.562C73.5 252.49 74.3231 250.503 75.7882 249.038C77.2534 247.573 79.2405 246.75 81.3125 246.75H107.875V309.25H81.3125C79.2405 309.25 77.2534 308.427 75.7882 306.962C74.3231 305.497 73.5 303.51 73.5 301.438V254.562ZM114.125 309.25V246.75H140.688C142.76 246.75 144.747 247.573 146.212 249.038C147.677 250.503 148.5 252.49 148.5 254.562V301.438C148.5 303.51 147.677 305.497 146.212 306.962C144.747 308.427 142.76 309.25 140.688 309.25H114.125Z" fill="black"/>
<path d="M933 303H951.437V289.146H962.167V275.292H972.896V261.333H983V253H964.562V266.854H953.833V280.708H943.104V294.667H933V303ZM928.833 315.5C926.542 315.5 924.581 314.685 922.95 313.054C921.319 311.424 920.503 309.461 920.5 307.167V248.833C920.5 246.542 921.317 244.581 922.95 242.95C924.583 241.319 926.544 240.503 928.833 240.5H987.167C989.458 240.5 991.421 241.317 993.054 242.95C994.687 244.583 995.503 246.544 995.5 248.833V307.167C995.5 309.458 994.685 311.421 993.054 313.054C991.424 314.687 989.461 315.503 987.167 315.5H928.833ZM928.833 307.167H987.167V248.833H928.833V307.167Z" fill="black"/>
<path d="M925 1816H943.437V1802.15H954.167V1788.29H964.896V1774.33H975V1766H956.562V1779.85H945.833V1793.71H935.104V1807.67H925V1816ZM920.833 1828.5C918.542 1828.5 916.581 1827.68 914.95 1826.05C913.319 1824.42 912.503 1822.46 912.5 1820.17V1761.83C912.5 1759.54 913.317 1757.58 914.95 1755.95C916.583 1754.32 918.544 1753.5 920.833 1753.5H979.167C981.458 1753.5 983.421 1754.32 985.054 1755.95C986.687 1757.58 987.503 1759.54 987.5 1761.83V1820.17C987.5 1822.46 986.685 1824.42 985.054 1826.05C983.424 1827.69 981.461 1828.5 979.167 1828.5H920.833ZM920.833 1820.17H979.167V1761.83H920.833V1820.17Z" fill="black"/>
<path d="M537 263C545.284 263 552 269.716 552 278C552 286.284 545.284 293 537 293C528.716 293 522 286.284 522 278C522 269.716 528.716 263 537 263Z" fill="white" stroke="black"/>
<path d="M487 53C495.284 53 502 59.716 502 68C502 76.284 495.284 83 487 83C478.716 83 472 76.284 472 68C472 59.716 478.716 53 487 53Z" fill="white" stroke="black"/>
<path d="M724 53C732.284 53 739 59.716 739 68C739 76.284 732.284 83 724 83C715.716 83 709 76.284 709 68C709 59.716 715.716 53 724 53Z" fill="white" stroke="black"/>
<path d="M537 53C545.284 53 552 59.716 552 68C552 76.284 545.284 83 537 83C528.716 83 522 76.284 522 68C522 59.716 528.716 53 537 53Z" fill="white" stroke="black"/>
<path d="M161 263C169.284 263 176 269.716 176 278C176 286.284 169.284 293 161 293C152.716 293 146 286.284 146 278C146 269.716 152.716 263 161 263Z" fill="white" stroke="black"/>
<path d="M210 478C218.284 478 225 484.716 225 493C225 501.284 218.284 508 210 508C201.716 508 195 501.284 195 493C195 484.716 201.716 478 210 478Z" fill="white" stroke="black"/>
<path d="M210 263C218.284 263 225 269.716 225 278C225 286.284 218.284 293 210 293C201.716 293 195 286.284 195 278C195 269.716 201.716 263 210 263Z" fill="white" stroke="black"/>
<path d="M908 263C916.284 263 923 269.716 923 278C923 286.284 916.284 293 908 293C899.716 293 893 286.284 893 278C893 269.716 899.716 263 908 263Z" fill="white" stroke="black"/>
<path d="M819 316C827.284 316 834 322.716 834 331C834 339.284 827.284 346 819 346C810.716 346 804 339.284 804 331C804 322.716 810.716 316 819 316Z" fill="white" stroke="black"/>
<path d="M819 263C827.284 263 834 269.716 834 278C834 286.284 827.284 293 819 293C810.716 293 804 286.284 804 278C804 269.716 810.716 263 819 263Z" fill="white" stroke="black"/>
<path d="M537 727C545.284 727 552 733.716 552 742C552 750.284 545.284 757 537 757C528.716 757 522 750.284 522 742C522 733.716 528.716 727 537 727Z" fill="white" stroke="black"/>
<path d="M537 1015C545.284 1015 552 1021.72 552 1030C552 1038.28 545.284 1045 537 1045C528.716 1045 522 1038.28 522 1030C522 1021.72 528.716 1015 537 1015Z" fill="white" stroke="black"/>
<path d="M537 1598C545.284 1598 552 1604.72 552 1613C552 1621.28 545.284 1628 537 1628C528.716 1628 522 1621.28 522 1613C522 1604.72 528.716 1598 537 1598Z" fill="white" stroke="black"/>
<path d="M858 1598C866.284 1598 873 1604.72 873 1613C873 1621.28 866.284 1628 858 1628C849.716 1628 843 1621.28 843 1613C843 1604.72 849.716 1598 858 1598Z" fill="white" stroke="black"/>
<path d="M858 1776C866.284 1776 873 1782.72 873 1791C873 1799.28 866.284 1806 858 1806C849.716 1806 843 1799.28 843 1791C843 1782.72 849.716 1776 858 1776Z" fill="white" stroke="black"/>
<path d="M903 1776C911.284 1776 918 1782.72 918 1791C918 1799.28 911.284 1806 903 1806C894.716 1806 888 1799.28 888 1791C888 1782.72 894.716 1776 903 1776Z" fill="white" stroke="black"/>
<path d="M656 1598C664.284 1598 671 1604.72 671 1613C671 1621.28 664.284 1628 656 1628C647.716 1628 641 1621.28 641 1613C641 1604.72 647.716 1598 656 1598Z" fill="white" stroke="black"/>
<path d="M656 1639C664.284 1639 671 1645.72 671 1654C671 1662.28 664.284 1669 656 1669C647.716 1669 641 1662.28 641 1654C641 1645.72 647.716 1639 656 1639Z" fill="white" stroke="black"/>
<path d="M331 1639C339.284 1639 346 1645.72 346 1654C346 1662.28 339.284 1669 331 1669C322.716 1669 316 1662.28 316 1654C316 1645.72 322.716 1639 331 1639Z" fill="white" stroke="black"/>
<path d="M331 1598C339.284 1598 346 1604.72 346 1613C346 1621.28 339.284 1628 331 1628C322.716 1628 316 1621.28 316 1613C316 1604.72 322.716 1598 331 1598Z" fill="white" stroke="black"/>
<path d="M247 1556C255.284 1556 262 1562.72 262 1571C262 1579.28 255.284 1586 247 1586C238.716 1586 232 1579.28 232 1571C232 1562.72 238.716 1556 247 1556Z" fill="white" stroke="black"/>
<path d="M247 1598C255.284 1598 262 1604.72 262 1613C262 1621.28 255.284 1628 247 1628C238.716 1628 232 1621.28 232 1613C232 1604.72 238.716 1598 247 1598Z" fill="white" stroke="black"/>
<path d="M537 1400C545.284 1400 552 1406.72 552 1415C552 1423.28 545.284 1430 537 1430C528.716 1430 522 1423.28 522 1415C522 1406.72 528.716 1400 537 1400Z" fill="white" stroke="black"/>
<path d="M587 1400C595.284 1400 602 1406.72 602 1415C602 1423.28 595.284 1430 587 1430C578.716 1430 572 1423.28 572 1415C572 1406.72 578.716 1400 587 1400Z" fill="white" stroke="black"/>
<path d="M537 1152C545.284 1152 552 1158.72 552 1167C552 1175.28 545.284 1182 537 1182C528.716 1182 522 1175.28 522 1167C522 1158.72 528.716 1152 537 1152Z" fill="white" stroke="black"/>
<path d="M587 1152C595.284 1152 602 1158.72 602 1167C602 1175.28 595.284 1182 587 1182C578.716 1182 572 1175.28 572 1167C572 1158.72 578.716 1152 587 1152Z" fill="white" stroke="black"/>
<path d="M256 1015C264.284 1015 271 1021.72 271 1030C271 1038.28 264.284 1045 256 1045C247.716 1045 241 1038.28 241 1030C241 1021.72 247.716 1015 256 1015Z" fill="white" stroke="black"/>
<path d="M256 1069C264.284 1069 271 1075.72 271 1084C271 1092.28 264.284 1099 256 1099C247.716 1099 241 1092.28 241 1084C241 1075.72 247.716 1069 256 1069Z" fill="white" stroke="black"/>
<path d="M256 965C264.284 965 271 971.716 271 980C271 988.284 264.284 995 256 995C247.716 995 241 988.284 241 980C241 971.716 247.716 965 256 965Z" fill="white" stroke="black"/>
<path d="M819 727C827.284 727 834 733.716 834 742C834 750.284 827.284 757 819 757C810.716 757 804 750.284 804 742C804 733.716 810.716 727 819 727Z" fill="white" stroke="black"/>
<path d="M819 778C827.284 778 834 784.716 834 793C834 801.284 827.284 808 819 808C810.716 808 804 801.284 804 793C804 784.716 810.716 778 819 778Z" fill="white" stroke="black"/>
<path d="M819 677C827.284 677 834 683.716 834 692C834 700.284 827.284 707 819 707C810.716 707 804 700.284 804 692C804 683.716 810.716 677 819 677Z" fill="white" stroke="black"/>
</svg>
