<svg width="1080" height="1920" viewBox="0 0 1080 1920" fill="none" xmlns="http://www.w3.org/2000/svg">
<rect width="1080" height="1920" fill="#1E1E1E"/>
<rect width="1080" height="1920" fill="white"/>
<path d="M487 21H587V1654H487V21Z" fill="#D9D9D9"/>
<path d="M811.5 1703.5V1878.5H477.5V1703.5H811.5Z" fill="#FFEDC5" stroke="black"/>
<path d="M607.793 1786.45V1801H605.598V1786.45H607.793ZM612.217 1801.13C611.829 1801.13 611.495 1801 611.216 1800.72C610.937 1800.44 610.797 1800.11 610.797 1799.71C610.797 1799.33 610.937 1798.99 611.216 1798.72C611.495 1798.44 611.829 1798.3 612.217 1798.3C612.606 1798.3 612.939 1798.44 613.219 1798.72C613.498 1798.99 613.638 1799.33 613.638 1799.71C613.638 1799.97 613.571 1800.21 613.439 1800.43C613.311 1800.64 613.141 1800.82 612.928 1800.94C612.714 1801.07 612.478 1801.13 612.217 1801.13ZM623.906 1786.45V1801H621.711V1786.45H623.906ZM627.102 1801V1786.45H632.287C633.413 1786.45 634.349 1786.65 635.092 1787.04C635.84 1787.43 636.399 1787.96 636.768 1788.65C637.137 1789.33 637.322 1790.12 637.322 1791.01C637.322 1791.9 637.135 1792.69 636.761 1793.37C636.392 1794.04 635.833 1794.56 635.085 1794.93C634.342 1795.31 633.406 1795.5 632.279 1795.5H628.352V1793.61H632.081C632.791 1793.61 633.368 1793.5 633.814 1793.3C634.263 1793.1 634.592 1792.8 634.801 1792.41C635.009 1792.03 635.113 1791.56 635.113 1791.01C635.113 1790.46 635.007 1789.99 634.794 1789.59C634.585 1789.18 634.256 1788.88 633.806 1788.66C633.361 1788.45 632.777 1788.34 632.052 1788.34H629.297V1801H627.102ZM634.282 1794.44L637.876 1801H635.376L631.853 1794.44H634.282ZM652.627 1793.73C652.627 1795.28 652.343 1796.62 651.775 1797.73C651.207 1798.85 650.428 1799.7 649.439 1800.3C648.454 1800.9 647.334 1801.2 646.079 1801.2C644.82 1801.2 643.695 1800.9 642.706 1800.3C641.721 1799.7 640.944 1798.84 640.376 1797.73C639.808 1796.61 639.524 1795.28 639.524 1793.73C639.524 1792.17 639.808 1790.84 640.376 1789.73C640.944 1788.61 641.721 1787.75 642.706 1787.16C643.695 1786.56 644.82 1786.26 646.079 1786.26C647.334 1786.26 648.454 1786.56 649.439 1787.16C650.428 1787.75 651.207 1788.61 651.775 1789.73C652.343 1790.84 652.627 1792.17 652.627 1793.73ZM650.454 1793.73C650.454 1792.54 650.262 1791.55 649.879 1790.74C649.5 1789.92 648.979 1789.31 648.316 1788.89C647.658 1788.47 646.913 1788.26 646.079 1788.26C645.241 1788.26 644.493 1788.47 643.835 1788.89C643.177 1789.31 642.656 1789.92 642.272 1790.74C641.894 1791.55 641.704 1792.54 641.704 1793.73C641.704 1794.91 641.894 1795.91 642.272 1796.72C642.656 1797.53 643.177 1798.15 643.835 1798.57C644.493 1798.99 645.241 1799.2 646.079 1799.2C646.913 1799.2 647.658 1798.99 648.316 1798.57C648.979 1798.15 649.5 1797.53 649.879 1796.72C650.262 1795.91 650.454 1794.91 650.454 1793.73ZM660.072 1801H655.364V1786.45H660.222C661.647 1786.45 662.871 1786.75 663.893 1787.33C664.916 1787.91 665.7 1788.74 666.244 1789.82C666.794 1790.9 667.068 1792.2 667.068 1793.71C667.068 1795.22 666.791 1796.52 666.237 1797.61C665.688 1798.7 664.893 1799.54 663.851 1800.13C662.809 1800.71 661.55 1801 660.072 1801ZM657.558 1799.08H659.952C661.06 1799.08 661.981 1798.87 662.714 1798.46C663.448 1798.04 663.998 1797.43 664.362 1796.63C664.727 1795.83 664.909 1794.86 664.909 1793.71C664.909 1792.56 664.727 1791.6 664.362 1790.8C664.002 1790.01 663.465 1789.4 662.75 1788.99C662.035 1788.58 661.147 1788.37 660.087 1788.37H657.558V1799.08ZM670.303 1801H667.974L673.208 1786.45H675.744L680.978 1801H678.648L674.536 1789.1H674.423L670.303 1801ZM670.694 1795.3H678.251V1797.15H670.694V1795.3Z" fill="black"/>
<path d="M0 1571H812V1654H0V1571Z" fill="#D9D9D9"/>
<path d="M252.5 1597.5C260.784 1597.5 267.5 1604.22 267.5 1612.5C267.5 1620.78 260.784 1627.5 252.5 1627.5C244.216 1627.5 237.5 1620.78 237.5 1612.5C237.5 1604.22 244.216 1597.5 252.5 1597.5Z" fill="white" stroke="black"/>
<rect x="812" y="1571" width="91" height="308" fill="#D9D9D9"/>
<rect x="161" y="231" width="752" height="93" fill="#D9D9D9"/>
<rect x="815" y="324" width="98" height="301" fill="#D9D9D9"/>
<path d="M957.5 938.5V625.5H769.5V938.5H957.5Z" fill="#FFEDC5" stroke="black"/>
<path d="M813.341 1069.5L900.5 1131.26V1258.5H587.5V1069.5H813.341Z" fill="#FFEDC5" stroke="black"/>
<path d="M687.881 1161.34V1159.45H699.138V1161.34H694.599V1174H692.412V1161.34H687.881ZM703.82 1159.45V1174H701.625V1159.45H703.82ZM706.299 1161.34V1159.45H717.556V1161.34H713.017V1174H710.83V1161.34H706.299ZM720.043 1174V1159.45H722.238V1166.4H722.415L728.516 1159.45H731.279L725.413 1166L731.3 1174H728.658L723.957 1167.5L722.238 1169.48V1174H720.043ZM734.553 1174H732.224L737.458 1159.45H739.994L745.228 1174H742.898L738.786 1162.1H738.673L734.553 1174ZM734.944 1168.3H742.501V1170.15H734.944V1168.3ZM737.849 1158L739.511 1154.72H741.748L739.546 1158H737.849ZM747.328 1174V1159.45H752.513C753.64 1159.45 754.575 1159.65 755.319 1160.04C756.067 1160.43 756.625 1160.96 756.995 1161.65C757.364 1162.33 757.549 1163.12 757.549 1164.01C757.549 1164.9 757.362 1165.69 756.988 1166.37C756.618 1167.04 756.06 1167.56 755.311 1167.93C754.568 1168.31 753.633 1168.5 752.506 1168.5H748.578V1166.61H752.307C753.017 1166.61 753.595 1166.5 754.04 1166.3C754.49 1166.1 754.819 1165.8 755.027 1165.41C755.236 1165.03 755.34 1164.56 755.34 1164.01C755.34 1163.46 755.233 1162.99 755.02 1162.59C754.812 1162.18 754.483 1161.88 754.033 1161.66C753.588 1161.45 753.003 1161.34 752.279 1161.34H749.523V1174H747.328ZM754.509 1167.44L758.103 1174H755.603L752.08 1167.44H754.509ZM768.152 1163.28C768.077 1162.6 767.764 1162.08 767.215 1161.71C766.666 1161.34 765.974 1161.15 765.141 1161.15C764.544 1161.15 764.028 1161.25 763.593 1161.44C763.157 1161.62 762.819 1161.88 762.577 1162.2C762.34 1162.53 762.222 1162.89 762.222 1163.3C762.222 1163.65 762.302 1163.95 762.463 1164.2C762.629 1164.45 762.845 1164.66 763.11 1164.83C763.38 1165 763.668 1165.14 763.976 1165.25C764.284 1165.36 764.58 1165.45 764.864 1165.52L766.284 1165.89C766.748 1166 767.224 1166.16 767.712 1166.35C768.2 1166.54 768.652 1166.8 769.069 1167.12C769.485 1167.44 769.821 1167.83 770.077 1168.3C770.337 1168.77 770.468 1169.33 770.468 1169.98C770.468 1170.8 770.255 1171.54 769.828 1172.17C769.407 1172.81 768.794 1173.32 767.989 1173.69C767.189 1174.06 766.221 1174.24 765.084 1174.24C763.995 1174.24 763.053 1174.07 762.257 1173.72C761.462 1173.38 760.839 1172.89 760.39 1172.25C759.94 1171.61 759.691 1170.86 759.644 1169.98H761.846C761.888 1170.51 762.059 1170.94 762.357 1171.29C762.66 1171.64 763.046 1171.9 763.515 1172.07C763.988 1172.23 764.507 1172.32 765.07 1172.32C765.69 1172.32 766.242 1172.22 766.725 1172.03C767.212 1171.83 767.596 1171.55 767.875 1171.2C768.155 1170.85 768.294 1170.43 768.294 1169.96C768.294 1169.53 768.171 1169.18 767.925 1168.9C767.684 1168.63 767.355 1168.4 766.938 1168.22C766.526 1168.04 766.06 1167.88 765.539 1167.74L763.82 1167.27C762.655 1166.96 761.732 1166.49 761.05 1165.88C760.373 1165.26 760.034 1164.45 760.034 1163.43C760.034 1162.59 760.262 1161.86 760.716 1161.24C761.171 1160.61 761.786 1160.13 762.563 1159.78C763.339 1159.43 764.215 1159.26 765.191 1159.26C766.176 1159.26 767.044 1159.43 767.797 1159.77C768.555 1160.12 769.151 1160.6 769.587 1161.2C770.023 1161.8 770.25 1162.49 770.269 1163.28H768.152ZM774.202 1174H771.872L777.107 1159.45H779.642L784.876 1174H782.547L778.435 1162.1H778.321L774.202 1174ZM774.592 1168.3H782.149V1170.15H774.592V1168.3ZM777.497 1158L779.159 1154.72H781.396L779.195 1158H777.497ZM796.137 1164.05C796 1163.62 795.815 1163.23 795.583 1162.89C795.356 1162.55 795.084 1162.25 794.766 1162.01C794.449 1161.77 794.087 1161.58 793.68 1161.45C793.277 1161.32 792.835 1161.26 792.352 1161.26C791.532 1161.26 790.794 1161.47 790.136 1161.89C789.478 1162.31 788.957 1162.93 788.573 1163.74C788.194 1164.55 788.005 1165.55 788.005 1166.72C788.005 1167.9 788.197 1168.9 788.58 1169.71C788.964 1170.52 789.489 1171.14 790.157 1171.56C790.825 1171.99 791.585 1172.2 792.437 1172.2C793.228 1172.2 793.916 1172.04 794.504 1171.71C795.095 1171.39 795.552 1170.94 795.874 1170.35C796.201 1169.76 796.364 1169.06 796.364 1168.26L796.933 1168.37H792.771V1166.56H798.488V1168.21C798.488 1169.43 798.228 1170.49 797.707 1171.39C797.191 1172.29 796.476 1172.98 795.562 1173.47C794.653 1173.96 793.611 1174.2 792.437 1174.2C791.121 1174.2 789.965 1173.9 788.971 1173.29C787.981 1172.68 787.21 1171.82 786.656 1170.71C786.102 1169.59 785.825 1168.27 785.825 1166.73C785.825 1165.57 785.986 1164.53 786.308 1163.61C786.629 1162.69 787.082 1161.9 787.664 1161.26C788.251 1160.61 788.94 1160.12 789.731 1159.77C790.526 1159.43 791.395 1159.26 792.337 1159.26C793.123 1159.26 793.855 1159.37 794.532 1159.6C795.214 1159.84 795.82 1160.16 796.35 1160.59C796.885 1161.02 797.328 1161.52 797.678 1162.11C798.029 1162.69 798.265 1163.34 798.388 1164.05H796.137Z" fill="black"/>
<path d="M899.5 1320.5V1453.24L820.341 1509.5H587.5V1320.5H899.5Z" fill="#FFEDC5" stroke="black"/>
<path d="M708.793 1407.45V1422H706.598V1407.45H708.793ZM714.183 1407.45V1422H711.989V1407.45H714.183ZM718.608 1422.13C718.22 1422.13 717.886 1422 717.607 1421.72C717.327 1421.44 717.188 1421.11 717.188 1420.71C717.188 1420.33 717.327 1419.99 717.607 1419.72C717.886 1419.44 718.22 1419.3 718.608 1419.3C718.996 1419.3 719.33 1419.44 719.609 1419.72C719.889 1419.99 720.028 1420.33 720.028 1420.71C720.028 1420.97 719.962 1421.21 719.83 1421.43C719.702 1421.64 719.531 1421.82 719.318 1421.94C719.105 1422.07 718.868 1422.13 718.608 1422.13ZM730.297 1407.45V1422H728.102V1407.45H730.297ZM733.493 1422V1407.45H738.677C739.804 1407.45 740.739 1407.65 741.483 1408.04C742.231 1408.43 742.789 1408.96 743.159 1409.65C743.528 1410.33 743.713 1411.12 743.713 1412.01C743.713 1412.9 743.526 1413.69 743.152 1414.37C742.782 1415.04 742.224 1415.56 741.475 1415.93C740.732 1416.31 739.797 1416.5 738.67 1416.5H734.743V1414.61H738.471C739.181 1414.61 739.759 1414.5 740.204 1414.3C740.654 1414.1 740.983 1413.8 741.191 1413.41C741.4 1413.03 741.504 1412.56 741.504 1412.01C741.504 1411.46 741.397 1410.99 741.184 1410.59C740.976 1410.18 740.647 1409.88 740.197 1409.66C739.752 1409.45 739.167 1409.34 738.443 1409.34H735.687V1422H733.493ZM740.673 1415.44L744.267 1422H741.767L738.244 1415.44H740.673ZM759.018 1414.73C759.018 1416.28 758.734 1417.62 758.166 1418.73C757.598 1419.85 756.819 1420.7 755.829 1421.3C754.844 1421.9 753.725 1422.2 752.47 1422.2C751.21 1422.2 750.086 1421.9 749.096 1421.3C748.111 1420.7 747.335 1419.84 746.767 1418.73C746.199 1417.61 745.914 1416.28 745.914 1414.73C745.914 1413.17 746.199 1411.84 746.767 1410.73C747.335 1409.61 748.111 1408.75 749.096 1408.16C750.086 1407.56 751.21 1407.26 752.47 1407.26C753.725 1407.26 754.844 1407.56 755.829 1408.16C756.819 1408.75 757.598 1409.61 758.166 1410.73C758.734 1411.84 759.018 1413.17 759.018 1414.73ZM756.845 1414.73C756.845 1413.54 756.653 1412.55 756.27 1411.74C755.891 1410.92 755.37 1410.31 754.707 1409.89C754.049 1409.47 753.303 1409.26 752.47 1409.26C751.632 1409.26 750.884 1409.47 750.225 1409.89C749.567 1410.31 749.047 1410.92 748.663 1411.74C748.284 1412.55 748.095 1413.54 748.095 1414.73C748.095 1415.91 748.284 1416.91 748.663 1417.72C749.047 1418.53 749.567 1419.15 750.225 1419.57C750.884 1419.99 751.632 1420.2 752.47 1420.2C753.303 1420.2 754.049 1419.99 754.707 1419.57C755.37 1419.15 755.891 1418.53 756.27 1417.72C756.653 1416.91 756.845 1415.91 756.845 1414.73ZM766.463 1422H761.754V1407.45H766.612C768.037 1407.45 769.261 1407.75 770.284 1408.33C771.307 1408.91 772.09 1409.74 772.635 1410.82C773.184 1411.9 773.459 1413.2 773.459 1414.71C773.459 1416.22 773.182 1417.52 772.628 1418.61C772.079 1419.7 771.283 1420.54 770.241 1421.13C769.2 1421.71 767.94 1422 766.463 1422ZM763.949 1420.08H766.342C767.45 1420.08 768.371 1419.87 769.105 1419.46C769.839 1419.04 770.388 1418.43 770.753 1417.63C771.117 1416.83 771.3 1415.86 771.3 1414.71C771.3 1413.56 771.117 1412.6 770.753 1411.8C770.393 1411.01 769.856 1410.4 769.141 1409.99C768.426 1409.58 767.538 1409.37 766.477 1409.37H763.949V1420.08ZM776.694 1422H774.364L779.599 1407.45H782.134L787.369 1422H785.039L780.927 1410.1H780.813L776.694 1422ZM777.085 1416.3H784.641V1418.15H777.085V1416.3Z" fill="black"/>
<rect x="587.5" y="21.5" width="325" height="163" fill="#FFEDC5" stroke="black"/>
<path d="M683.598 110V95.4545H692.618V97.3438H685.793V101.776H691.972V103.658H685.793V110H683.598ZM695.317 110V95.4545H704.436V97.3438H697.511V101.776H703.96V103.658H697.511V108.111H704.521V110H695.317ZM698.996 93.9986L700.658 90.7244H702.895L700.693 93.9986H698.996ZM707.368 110V95.4545H712.552C713.679 95.4545 714.614 95.6487 715.358 96.0369C716.106 96.4252 716.664 96.9626 717.034 97.6491C717.403 98.331 717.588 99.1193 717.588 100.014C717.588 100.904 717.401 101.688 717.027 102.365C716.657 103.037 716.099 103.561 715.35 103.935C714.607 104.309 713.672 104.496 712.545 104.496H708.618V102.607H712.346C713.056 102.607 713.634 102.505 714.079 102.301C714.529 102.098 714.858 101.802 715.066 101.413C715.275 101.025 715.379 100.559 715.379 100.014C715.379 99.465 715.272 98.9891 715.059 98.5866C714.851 98.1842 714.522 97.8764 714.072 97.6634C713.627 97.4455 713.042 97.3366 712.318 97.3366H709.562V110H707.368ZM714.548 103.438L718.142 110H715.642L712.119 103.438H714.548ZM720.258 110V95.4545H729.278V97.3438H722.453V101.776H728.632V103.658H722.453V110H720.258ZM734.172 95.4545V110H731.977V95.4545H734.172ZM742.661 95.4545H745.324L749.955 106.761H750.125L754.756 95.4545H757.419V110H755.331V99.4744H755.196L750.906 109.979H749.173L744.884 99.4673H744.749V110H742.661V95.4545ZM773.245 102.727C773.245 104.28 772.961 105.616 772.392 106.733C771.824 107.846 771.045 108.703 770.056 109.304C769.071 109.901 767.951 110.199 766.696 110.199C765.437 110.199 764.312 109.901 763.323 109.304C762.338 108.703 761.561 107.843 760.993 106.726C760.425 105.608 760.141 104.276 760.141 102.727C760.141 101.174 760.425 99.8414 760.993 98.7287C761.561 97.6113 762.338 96.7543 763.323 96.1577C764.312 95.5563 765.437 95.2557 766.696 95.2557C767.951 95.2557 769.071 95.5563 770.056 96.1577C771.045 96.7543 771.824 97.6113 772.392 98.7287C772.961 99.8414 773.245 101.174 773.245 102.727ZM771.071 102.727C771.071 101.544 770.88 100.547 770.496 99.7372C770.117 98.9228 769.596 98.3073 768.934 97.8906C768.275 97.4692 767.53 97.2585 766.696 97.2585C765.858 97.2585 765.11 97.4692 764.452 97.8906C763.794 98.3073 763.273 98.9228 762.89 99.7372C762.511 100.547 762.321 101.544 762.321 102.727C762.321 103.911 762.511 104.91 762.89 105.724C763.273 106.534 763.794 107.15 764.452 107.571C765.11 107.988 765.858 108.196 766.696 108.196C767.53 108.196 768.275 107.988 768.934 107.571C769.596 107.15 770.117 106.534 770.496 105.724C770.88 104.91 771.071 103.911 771.071 102.727ZM783.914 99.2756C783.838 98.6032 783.526 98.0824 782.977 97.7131C782.427 97.339 781.736 97.152 780.903 97.152C780.306 97.152 779.79 97.2467 779.354 97.4361C778.919 97.6207 778.58 97.8764 778.339 98.2031C778.102 98.5251 777.984 98.892 777.984 99.304C777.984 99.6496 778.064 99.9479 778.225 100.199C778.391 100.45 778.606 100.661 778.871 100.831C779.141 100.997 779.43 101.136 779.738 101.25C780.046 101.359 780.342 101.449 780.626 101.52L782.046 101.889C782.51 102.003 782.986 102.157 783.474 102.351C783.961 102.545 784.414 102.801 784.83 103.118C785.247 103.435 785.583 103.828 785.839 104.297C786.099 104.766 786.229 105.327 786.229 105.98C786.229 106.804 786.016 107.536 785.59 108.175C785.169 108.814 784.556 109.318 783.751 109.688C782.951 110.057 781.982 110.241 780.846 110.241C779.757 110.241 778.815 110.069 778.019 109.723C777.224 109.377 776.601 108.887 776.151 108.253C775.701 107.614 775.453 106.856 775.406 105.98H777.607C777.65 106.506 777.82 106.944 778.119 107.294C778.422 107.64 778.808 107.898 779.276 108.068C779.75 108.234 780.268 108.317 780.832 108.317C781.452 108.317 782.004 108.22 782.487 108.026C782.974 107.827 783.358 107.552 783.637 107.202C783.916 106.847 784.056 106.432 784.056 105.959C784.056 105.528 783.933 105.175 783.687 104.901C783.445 104.626 783.116 104.399 782.7 104.219C782.288 104.039 781.821 103.88 781.3 103.743L779.582 103.274C778.417 102.957 777.494 102.491 776.812 101.875C776.135 101.259 775.796 100.445 775.796 99.4318C775.796 98.5937 776.023 97.8622 776.478 97.2372C776.933 96.6122 777.548 96.1269 778.325 95.7812C779.101 95.4309 779.977 95.2557 780.952 95.2557C781.937 95.2557 782.806 95.4285 783.559 95.7741C784.317 96.1198 784.913 96.5956 785.349 97.2017C785.784 97.803 786.012 98.4943 786.031 99.2756H783.914ZM793.561 110H788.852V95.4545H793.71C795.135 95.4545 796.359 95.7457 797.382 96.3281C798.404 96.9058 799.188 97.7367 799.733 98.821C800.282 99.9006 800.556 101.196 800.556 102.706C800.556 104.221 800.279 105.523 799.725 106.612C799.176 107.701 798.381 108.539 797.339 109.126C796.297 109.709 795.038 110 793.561 110ZM791.047 108.082H793.44C794.548 108.082 795.469 107.874 796.203 107.457C796.937 107.036 797.486 106.428 797.85 105.632C798.215 104.832 798.397 103.857 798.397 102.706C798.397 101.565 798.215 100.597 797.85 99.8011C797.491 99.0057 796.953 98.402 796.238 97.9901C795.523 97.5781 794.636 97.3722 793.575 97.3722H791.047V108.082ZM815.92 102.727C815.92 104.28 815.636 105.616 815.068 106.733C814.5 107.846 813.721 108.703 812.732 109.304C811.747 109.901 810.627 110.199 809.372 110.199C808.113 110.199 806.988 109.901 805.999 109.304C805.014 108.703 804.237 107.843 803.669 106.726C803.101 105.608 802.817 104.276 802.817 102.727C802.817 101.174 803.101 99.8414 803.669 98.7287C804.237 97.6113 805.014 96.7543 805.999 96.1577C806.988 95.5563 808.113 95.2557 809.372 95.2557C810.627 95.2557 811.747 95.5563 812.732 96.1577C813.721 96.7543 814.5 97.6113 815.068 98.7287C815.636 99.8414 815.92 101.174 815.92 102.727ZM813.747 102.727C813.747 101.544 813.555 100.547 813.172 99.7372C812.793 98.9228 812.272 98.3073 811.609 97.8906C810.951 97.4692 810.205 97.2585 809.372 97.2585C808.534 97.2585 807.786 97.4692 807.128 97.8906C806.47 98.3073 805.949 98.9228 805.565 99.7372C805.187 100.547 804.997 101.544 804.997 102.727C804.997 103.911 805.187 104.91 805.565 105.724C805.949 106.534 806.47 107.15 807.128 107.571C807.786 107.988 808.534 108.196 809.372 108.196C810.205 108.196 810.951 107.988 811.609 107.571C812.272 107.15 812.793 106.534 813.172 105.724C813.555 104.91 813.747 103.911 813.747 102.727ZM808.491 93.9986L810.153 90.7244H812.391L810.189 93.9986H808.491Z" fill="black"/>
<path d="M486.5 21.5V184.5H161.5V21.5H486.5Z" fill="#FFEDC5" stroke="black"/>
<rect x="161" y="858" width="426" height="100" fill="#D9D9D9"/>
<rect x="161.5" y="544.5" width="188" height="313" fill="#FFEDC5" stroke="black"/>
<path d="M344.5 958.5V1271.5H161.5V958.5H344.5Z" fill="#FFEDC5" stroke="black"/>
<path d="M586.5 1148.5C594.784 1148.5 601.5 1155.22 601.5 1163.5C601.5 1171.78 594.784 1178.5 586.5 1178.5C578.216 1178.5 571.5 1171.78 571.5 1163.5C571.5 1155.22 578.216 1148.5 586.5 1148.5Z" fill="white" stroke="black"/>
<path d="M857.5 1597.5C865.784 1597.5 872.5 1604.22 872.5 1612.5C872.5 1620.78 865.784 1627.5 857.5 1627.5C849.216 1627.5 842.5 1620.78 842.5 1612.5C842.5 1604.22 849.216 1597.5 857.5 1597.5Z" fill="white" stroke="black"/>
<path d="M857.5 1775.5C865.784 1775.5 872.5 1782.22 872.5 1790.5C872.5 1798.78 865.784 1805.5 857.5 1805.5C849.216 1805.5 842.5 1798.78 842.5 1790.5C842.5 1782.22 849.216 1775.5 857.5 1775.5Z" fill="white" stroke="black"/>
<path d="M536.5 1597.5C544.784 1597.5 551.5 1604.22 551.5 1612.5C551.5 1620.78 544.784 1627.5 536.5 1627.5C528.216 1627.5 521.5 1620.78 521.5 1612.5C521.5 1604.22 528.216 1597.5 536.5 1597.5Z" fill="white" stroke="black"/>
<path d="M536.5 1399.5C544.784 1399.5 551.5 1406.22 551.5 1414.5C551.5 1422.78 544.784 1429.5 536.5 1429.5C528.216 1429.5 521.5 1422.78 521.5 1414.5C521.5 1406.22 528.216 1399.5 536.5 1399.5Z" fill="white" stroke="black"/>
<path d="M536.5 1148.5C544.784 1148.5 551.5 1155.22 551.5 1163.5C551.5 1171.78 544.784 1178.5 536.5 1178.5C528.216 1178.5 521.5 1171.78 521.5 1163.5C521.5 1155.22 528.216 1148.5 536.5 1148.5Z" fill="white" stroke="black"/>
<path d="M56.5 1597.5C64.7843 1597.5 71.5 1604.22 71.5 1612.5C71.5 1620.78 64.7843 1627.5 56.5 1627.5C48.2157 1627.5 41.5 1620.78 41.5 1612.5C41.5 1604.22 48.2157 1597.5 56.5 1597.5Z" fill="#FF7C7C" stroke="black"/>
<path d="M863.5 609.5C871.784 609.5 878.5 616.216 878.5 624.5C878.5 632.784 871.784 639.5 863.5 639.5C855.216 639.5 848.5 632.784 848.5 624.5C848.5 616.216 855.216 609.5 863.5 609.5Z" fill="white" stroke="black"/>
<path d="M252.5 942.5C260.784 942.5 267.5 949.216 267.5 957.5C267.5 965.784 260.784 972.5 252.5 972.5C244.216 972.5 237.5 965.784 237.5 957.5C237.5 949.216 244.216 942.5 252.5 942.5Z" fill="white" stroke="black"/>
<path d="M252.5 842.5C260.784 842.5 267.5 849.216 267.5 857.5C267.5 865.784 260.784 872.5 252.5 872.5C244.216 872.5 237.5 865.784 237.5 857.5C237.5 849.216 244.216 842.5 252.5 842.5Z" fill="white" stroke="black"/>
<path d="M536.5 892.5C544.784 892.5 551.5 899.216 551.5 907.5C551.5 915.784 544.784 922.5 536.5 922.5C528.216 922.5 521.5 915.784 521.5 907.5C521.5 899.216 528.216 892.5 536.5 892.5Z" fill="white" stroke="black"/>
<path d="M536.5 495.5C544.784 495.5 551.5 502.216 551.5 510.5C551.5 518.784 544.784 525.5 536.5 525.5C528.216 525.5 521.5 518.784 521.5 510.5C521.5 502.216 528.216 495.5 536.5 495.5Z" fill="white" stroke="black"/>
<path d="M252.5 892.5C260.784 892.5 267.5 899.216 267.5 907.5C267.5 915.784 260.784 922.5 252.5 922.5C244.216 922.5 237.5 915.784 237.5 907.5C237.5 899.216 244.216 892.5 252.5 892.5Z" fill="white" stroke="black"/>
<path d="M586.5 1399.5C594.784 1399.5 601.5 1406.22 601.5 1414.5C601.5 1422.78 594.784 1429.5 586.5 1429.5C578.216 1429.5 571.5 1422.78 571.5 1414.5C571.5 1406.22 578.216 1399.5 586.5 1399.5Z" fill="white" stroke="black"/>
<path d="M811.5 1775.5C819.784 1775.5 826.5 1782.22 826.5 1790.5C826.5 1798.78 819.784 1805.5 811.5 1805.5C803.216 1805.5 796.5 1798.78 796.5 1790.5C796.5 1782.22 803.216 1775.5 811.5 1775.5Z" fill="white" stroke="black"/>
<path d="M586.5 87.5C594.784 87.5 601.5 94.2157 601.5 102.5C601.5 110.784 594.784 117.5 586.5 117.5C578.216 117.5 571.5 110.784 571.5 102.5C571.5 94.2157 578.216 87.5 586.5 87.5Z" fill="white" stroke="black"/>
<path d="M486.5 87.5C494.784 87.5 501.5 94.2157 501.5 102.5C501.5 110.784 494.784 117.5 486.5 117.5C478.216 117.5 471.5 110.784 471.5 102.5C471.5 94.2157 478.216 87.5 486.5 87.5Z" fill="white" stroke="black"/>
<path d="M536.5 262.5C544.784 262.5 551.5 269.216 551.5 277.5C551.5 285.784 544.784 292.5 536.5 292.5C528.216 292.5 521.5 285.784 521.5 277.5C521.5 269.216 528.216 262.5 536.5 262.5Z" fill="white" stroke="black"/>
<path d="M536.5 87.5C544.784 87.5 551.5 94.2157 551.5 102.5C551.5 110.784 544.784 117.5 536.5 117.5C528.216 117.5 521.5 110.784 521.5 102.5C521.5 94.2157 528.216 87.5 536.5 87.5Z" fill="white" stroke="black"/>
<path d="M255.5 262.5C263.784 262.5 270.5 269.216 270.5 277.5C270.5 285.784 263.784 292.5 255.5 292.5C247.216 292.5 240.5 285.784 240.5 277.5C240.5 269.216 247.216 262.5 255.5 262.5Z" fill="white" stroke="black"/>
<path d="M863.5 262.5C871.784 262.5 878.5 269.216 878.5 277.5C878.5 285.784 871.784 292.5 863.5 292.5C855.216 292.5 848.5 285.784 848.5 277.5C848.5 269.216 855.216 262.5 863.5 262.5Z" fill="white" stroke="black"/>
<rect x="161.5" y="324.5" width="188" height="149" fill="#FFEDC5" stroke="black"/>
<rect x="587.5" y="436.5" width="188" height="149" fill="#FFEDC5" stroke="black"/>
<path d="M255.5 308.5C263.784 308.5 270.5 315.216 270.5 323.5C270.5 331.784 263.784 338.5 255.5 338.5C247.216 338.5 240.5 331.784 240.5 323.5C240.5 315.216 247.216 308.5 255.5 308.5Z" fill="white" stroke="black"/>
<path d="M292.137 1373.5L344.5 1466.13V1570.5H161.5V1373.5H292.137Z" fill="#FFEDC5" stroke="black"/>
<path d="M252.5 1555.5C260.784 1555.5 267.5 1562.22 267.5 1570.5C267.5 1578.78 260.784 1585.5 252.5 1585.5C244.216 1585.5 237.5 1578.78 237.5 1570.5C237.5 1562.22 244.216 1555.5 252.5 1555.5Z" fill="white" stroke="black"/>
<path d="M278.338 95.4545V110H276.321L268.928 99.3324H268.793V110H266.598V95.4545H268.629L276.03 106.136H276.165V95.4545H278.338ZM294.174 102.727C294.174 104.28 293.89 105.616 293.322 106.733C292.754 107.846 291.975 108.703 290.985 109.304C290.001 109.901 288.881 110.199 287.626 110.199C286.367 110.199 285.242 109.901 284.252 109.304C283.268 108.703 282.491 107.843 281.923 106.726C281.355 105.608 281.071 104.276 281.071 102.727C281.071 101.174 281.355 99.8414 281.923 98.7287C282.491 97.6113 283.268 96.7543 284.252 96.1577C285.242 95.5563 286.367 95.2557 287.626 95.2557C288.881 95.2557 290.001 95.5563 290.985 96.1577C291.975 96.7543 292.754 97.6113 293.322 98.7287C293.89 99.8414 294.174 101.174 294.174 102.727ZM292.001 102.727C292.001 101.544 291.809 100.547 291.426 99.7372C291.047 98.9228 290.526 98.3073 289.863 97.8906C289.205 97.4692 288.459 97.2585 287.626 97.2585C286.788 97.2585 286.04 97.4692 285.382 97.8906C284.724 98.3073 284.203 98.9228 283.819 99.7372C283.44 100.547 283.251 101.544 283.251 102.727C283.251 103.911 283.44 104.91 283.819 105.724C284.203 106.534 284.724 107.15 285.382 107.571C286.04 107.988 286.788 108.196 287.626 108.196C288.459 108.196 289.205 107.988 289.863 107.571C290.526 107.15 291.047 106.534 291.426 105.724C291.809 104.91 292.001 103.911 292.001 102.727ZM288.081 94.2401L290.289 91.25H292.392L289.778 94.2401H288.081ZM284.92 94.2401L286.61 91.25H288.691L286.511 94.2401H284.92ZM299.105 95.4545V110H296.911V95.4545H299.105ZM307.594 95.4545H310.257L314.888 106.761H315.059L319.689 95.4545H322.353V110H320.265V99.4744H320.13L315.84 109.979H314.107L309.817 99.4673H309.682V110H307.594V95.4545ZM338.178 102.727C338.178 104.28 337.894 105.616 337.326 106.733C336.758 107.846 335.979 108.703 334.989 109.304C334.004 109.901 332.885 110.199 331.63 110.199C330.371 110.199 329.246 109.901 328.256 109.304C327.272 108.703 326.495 107.843 325.927 106.726C325.359 105.608 325.075 104.276 325.075 102.727C325.075 101.174 325.359 99.8414 325.927 98.7287C326.495 97.6113 327.272 96.7543 328.256 96.1577C329.246 95.5563 330.371 95.2557 331.63 95.2557C332.885 95.2557 334.004 95.5563 334.989 96.1577C335.979 96.7543 336.758 97.6113 337.326 98.7287C337.894 99.8414 338.178 101.174 338.178 102.727ZM336.005 102.727C336.005 101.544 335.813 100.547 335.43 99.7372C335.051 98.9228 334.53 98.3073 333.867 97.8906C333.209 97.4692 332.463 97.2585 331.63 97.2585C330.792 97.2585 330.044 97.4692 329.386 97.8906C328.728 98.3073 328.207 98.9228 327.823 99.7372C327.444 100.547 327.255 101.544 327.255 102.727C327.255 103.911 327.444 104.91 327.823 105.724C328.207 106.534 328.728 107.15 329.386 107.571C330.044 107.988 330.792 108.196 331.63 108.196C332.463 108.196 333.209 107.988 333.867 107.571C334.53 107.15 335.051 106.534 335.43 105.724C335.813 104.91 336.005 103.911 336.005 102.727ZM348.848 99.2756C348.772 98.6032 348.459 98.0824 347.91 97.7131C347.361 97.339 346.67 97.152 345.836 97.152C345.24 97.152 344.724 97.2467 344.288 97.4361C343.852 97.6207 343.514 97.8764 343.272 98.2031C343.036 98.5251 342.917 98.892 342.917 99.304C342.917 99.6496 342.998 99.9479 343.159 100.199C343.324 100.45 343.54 100.661 343.805 100.831C344.075 100.997 344.364 101.136 344.672 101.25C344.979 101.359 345.275 101.449 345.559 101.52L346.98 101.889C347.444 102.003 347.92 102.157 348.407 102.351C348.895 102.545 349.347 102.801 349.764 103.118C350.181 103.435 350.517 103.828 350.772 104.297C351.033 104.766 351.163 105.327 351.163 105.98C351.163 106.804 350.95 107.536 350.524 108.175C350.102 108.814 349.489 109.318 348.684 109.688C347.884 110.057 346.916 110.241 345.779 110.241C344.69 110.241 343.748 110.069 342.953 109.723C342.157 109.377 341.535 108.887 341.085 108.253C340.635 107.614 340.386 106.856 340.339 105.98H342.541C342.583 106.506 342.754 106.944 343.052 107.294C343.355 107.64 343.741 107.898 344.21 108.068C344.683 108.234 345.202 108.317 345.765 108.317C346.386 108.317 346.937 108.22 347.42 108.026C347.908 107.827 348.291 107.552 348.571 107.202C348.85 106.847 348.99 106.432 348.99 105.959C348.99 105.528 348.867 105.175 348.62 104.901C348.379 104.626 348.05 104.399 347.633 104.219C347.221 104.039 346.755 103.88 346.234 103.743L344.515 103.274C343.35 102.957 342.427 102.491 341.745 101.875C341.068 101.259 340.73 100.445 340.73 99.4318C340.73 98.5937 340.957 97.8622 341.412 97.2372C341.866 96.6122 342.482 96.1269 343.258 95.7812C344.035 95.4309 344.911 95.2557 345.886 95.2557C346.871 95.2557 347.74 95.4285 348.493 95.7741C349.25 96.1198 349.847 96.5956 350.282 97.2017C350.718 97.803 350.945 98.4943 350.964 99.2756H348.848ZM358.494 110H353.786V95.4545H358.643C360.069 95.4545 361.293 95.7457 362.315 96.3281C363.338 96.9058 364.122 97.7367 364.666 98.821C365.215 99.9006 365.49 101.196 365.49 102.706C365.49 104.221 365.213 105.523 364.659 106.612C364.11 107.701 363.314 108.539 362.273 109.126C361.231 109.709 359.972 110 358.494 110ZM355.98 108.082H358.374C359.482 108.082 360.402 107.874 361.136 107.457C361.87 107.036 362.42 106.428 362.784 105.632C363.149 104.832 363.331 103.857 363.331 102.706C363.331 101.565 363.149 100.597 362.784 99.8011C362.424 99.0057 361.887 98.402 361.172 97.9901C360.457 97.5781 359.569 97.3722 358.509 97.3722H355.98V108.082ZM380.854 102.727C380.854 104.28 380.57 105.616 380.002 106.733C379.434 107.846 378.655 108.703 377.665 109.304C376.68 109.901 375.56 110.199 374.306 110.199C373.046 110.199 371.922 109.901 370.932 109.304C369.947 108.703 369.171 107.843 368.603 106.726C368.034 105.608 367.75 104.276 367.75 102.727C367.75 101.174 368.034 99.8414 368.603 98.7287C369.171 97.6113 369.947 96.7543 370.932 96.1577C371.922 95.5563 373.046 95.2557 374.306 95.2557C375.56 95.2557 376.68 95.5563 377.665 96.1577C378.655 96.7543 379.434 97.6113 380.002 98.7287C380.57 99.8414 380.854 101.174 380.854 102.727ZM378.681 102.727C378.681 101.544 378.489 100.547 378.105 99.7372C377.727 98.9228 377.206 98.3073 376.543 97.8906C375.885 97.4692 375.139 97.2585 374.306 97.2585C373.468 97.2585 372.72 97.4692 372.061 97.8906C371.403 98.3073 370.882 98.9228 370.499 99.7372C370.12 100.547 369.931 101.544 369.931 102.727C369.931 103.911 370.12 104.91 370.499 105.724C370.882 106.534 371.403 107.15 372.061 107.571C372.72 107.988 373.468 108.196 374.306 108.196C375.139 108.196 375.885 107.988 376.543 107.571C377.206 107.15 377.727 106.534 378.105 105.724C378.489 104.91 378.681 103.911 378.681 102.727ZM373.425 93.9986L375.087 90.7244H377.324L375.123 93.9986H373.425Z" fill="black"/>
<path d="M219.793 391.455V406H217.598V391.455H219.793ZM224.217 406.135C223.829 406.135 223.495 405.998 223.216 405.723C222.937 405.444 222.797 405.107 222.797 404.714C222.797 404.326 222.937 403.995 223.216 403.72C223.495 403.441 223.829 403.301 224.217 403.301C224.606 403.301 224.939 403.441 225.219 403.72C225.498 403.995 225.638 404.326 225.638 404.714C225.638 404.975 225.571 405.214 225.439 405.432C225.311 405.645 225.141 405.815 224.928 405.943C224.714 406.071 224.478 406.135 224.217 406.135ZM233.711 406V391.455H238.896C240.023 391.455 240.958 391.649 241.701 392.037C242.449 392.425 243.008 392.963 243.377 393.649C243.747 394.331 243.931 395.119 243.931 396.014C243.931 396.904 243.744 397.688 243.37 398.365C243.001 399.037 242.442 399.561 241.694 399.935C240.951 400.309 240.016 400.496 238.889 400.496H234.961V398.607H238.69C239.4 398.607 239.978 398.505 240.423 398.301C240.873 398.098 241.202 397.802 241.41 397.413C241.618 397.025 241.723 396.559 241.723 396.014C241.723 395.465 241.616 394.989 241.403 394.587C241.195 394.184 240.866 393.876 240.416 393.663C239.971 393.446 239.386 393.337 238.662 393.337H235.906V406H233.711ZM240.892 399.438L244.485 406H241.985L238.463 399.438H240.892ZM247.831 406H245.501L250.735 391.455H253.271L258.505 406H256.176L252.064 394.097H251.95L247.831 406ZM248.221 400.304H255.778V402.151H248.221V400.304ZM260.606 406V391.455H262.8V398.401H262.978L269.079 391.455H271.842L265.975 398.003L271.863 406H269.221L264.519 399.501L262.8 401.476V406H260.606ZM273.17 393.344V391.455H284.427V393.344H279.888V406H277.701V393.344H273.17ZM286.424 406H284.095L289.329 391.455H291.865L297.099 406H294.77L290.657 394.097H290.544L286.424 406ZM286.815 400.304H294.372V402.151H286.815V400.304ZM289.72 389.999L291.382 386.724H293.619L291.417 389.999H289.72ZM299.2 406V391.455H304.384C305.511 391.455 306.446 391.649 307.19 392.037C307.938 392.425 308.496 392.963 308.866 393.649C309.235 394.331 309.42 395.119 309.42 396.014C309.42 396.904 309.233 397.688 308.859 398.365C308.489 399.037 307.931 399.561 307.183 399.935C306.439 400.309 305.504 400.496 304.377 400.496H300.45V398.607H304.178C304.888 398.607 305.466 398.505 305.911 398.301C306.361 398.098 306.69 397.802 306.898 397.413C307.107 397.025 307.211 396.559 307.211 396.014C307.211 395.465 307.104 394.989 306.891 394.587C306.683 394.184 306.354 393.876 305.904 393.663C305.459 393.446 304.874 393.337 304.15 393.337H301.394V406H299.2ZM306.38 399.438L309.974 406H307.474L303.951 399.438H306.38Z" fill="black"/>
<path d="M637.793 503.455V518H635.598V503.455H637.793ZM643.183 503.455V518H640.989V503.455H643.183ZM647.608 518.135C647.22 518.135 646.886 517.998 646.607 517.723C646.327 517.444 646.188 517.107 646.188 516.714C646.188 516.326 646.327 515.995 646.607 515.72C646.886 515.441 647.22 515.301 647.608 515.301C647.996 515.301 648.33 515.441 648.609 515.72C648.889 515.995 649.028 516.326 649.028 516.714C649.028 516.975 648.962 517.214 648.83 517.432C648.702 517.645 648.531 517.815 648.318 517.943C648.105 518.071 647.868 518.135 647.608 518.135ZM657.102 518V503.455H662.287C663.413 503.455 664.349 503.649 665.092 504.037C665.84 504.425 666.399 504.963 666.768 505.649C667.137 506.331 667.322 507.119 667.322 508.014C667.322 508.904 667.135 509.688 666.761 510.365C666.392 511.037 665.833 511.561 665.085 511.935C664.342 512.309 663.406 512.496 662.279 512.496H658.352V510.607H662.081C662.791 510.607 663.368 510.505 663.814 510.301C664.263 510.098 664.592 509.802 664.801 509.413C665.009 509.025 665.113 508.559 665.113 508.014C665.113 507.465 665.007 506.989 664.794 506.587C664.585 506.184 664.256 505.876 663.806 505.663C663.361 505.446 662.777 505.337 662.052 505.337H659.297V518H657.102ZM664.282 511.438L667.876 518H665.376L661.853 511.438H664.282ZM671.221 518H668.892L674.126 503.455H676.662L681.896 518H679.566L675.454 506.097H675.341L671.221 518ZM671.612 512.304H679.169V514.151H671.612V512.304ZM683.996 518V503.455H686.191V510.401H686.369L692.469 503.455H695.232L689.366 510.003L695.254 518H692.612L687.91 511.501L686.191 513.476V518H683.996ZM696.56 505.344V503.455H707.817V505.344H703.279V518H701.092V505.344H696.56ZM709.815 518H707.485L712.72 503.455H715.255L720.49 518H718.16L714.048 506.097H713.934L709.815 518ZM710.206 512.304H717.762V514.151H710.206V512.304ZM713.11 501.999L714.772 498.724H717.01L714.808 501.999H713.11ZM722.59 518V503.455H727.775C728.902 503.455 729.837 503.649 730.58 504.037C731.328 504.425 731.887 504.963 732.256 505.649C732.626 506.331 732.81 507.119 732.81 508.014C732.81 508.904 732.623 509.688 732.249 510.365C731.88 511.037 731.321 511.561 730.573 511.935C729.83 512.309 728.895 512.496 727.768 512.496H723.84V510.607H727.569C728.279 510.607 728.857 510.505 729.302 510.301C729.752 510.098 730.081 509.802 730.289 509.413C730.497 509.025 730.602 508.559 730.602 508.014C730.602 507.465 730.495 506.989 730.282 506.587C730.074 506.184 729.745 505.876 729.295 505.663C728.85 505.446 728.265 505.337 727.54 505.337H724.785V518H722.59ZM729.771 511.438L733.364 518H730.864L727.342 511.438H729.771Z" fill="black"/>
<path d="M228.598 1479V1464.45H233.925C234.957 1464.45 235.812 1464.62 236.489 1464.97C237.166 1465.3 237.672 1465.76 238.009 1466.34C238.345 1466.91 238.513 1467.56 238.513 1468.28C238.513 1468.88 238.402 1469.39 238.179 1469.81C237.956 1470.22 237.658 1470.55 237.284 1470.8C236.915 1471.05 236.508 1471.23 236.062 1471.34V1471.49C236.545 1471.51 237.017 1471.67 237.476 1471.95C237.94 1472.24 238.323 1472.64 238.626 1473.17C238.929 1473.69 239.081 1474.33 239.081 1475.09C239.081 1475.83 238.906 1476.5 238.555 1477.09C238.21 1477.68 237.675 1478.14 236.95 1478.49C236.226 1478.83 235.3 1479 234.173 1479H228.598ZM230.793 1477.12H233.96C235.011 1477.12 235.764 1476.91 236.219 1476.51C236.673 1476.1 236.901 1475.59 236.901 1474.98C236.901 1474.52 236.785 1474.1 236.553 1473.72C236.321 1473.33 235.989 1473.03 235.558 1472.8C235.132 1472.57 234.625 1472.46 234.038 1472.46H230.793V1477.12ZM230.793 1470.75H233.733C234.225 1470.75 234.668 1470.65 235.061 1470.46C235.459 1470.27 235.774 1470.01 236.006 1469.67C236.242 1469.32 236.361 1468.91 236.361 1468.45C236.361 1467.84 236.15 1467.34 235.729 1466.93C235.307 1466.53 234.661 1466.32 233.79 1466.32H230.793V1470.75ZM251.038 1464.45H253.239V1474.02C253.239 1475.04 253 1475.94 252.522 1476.73C252.044 1477.51 251.371 1478.12 250.505 1478.57C249.638 1479.02 248.623 1479.24 247.458 1479.24C246.298 1479.24 245.285 1479.02 244.418 1478.57C243.552 1478.12 242.879 1477.51 242.401 1476.73C241.923 1475.94 241.684 1475.04 241.684 1474.02V1464.45H243.879V1473.84C243.879 1474.5 244.023 1475.09 244.312 1475.6C244.605 1476.11 245.02 1476.51 245.555 1476.81C246.09 1477.09 246.724 1477.24 247.458 1477.24C248.197 1477.24 248.834 1477.09 249.369 1476.81C249.908 1476.51 250.32 1476.11 250.604 1475.6C250.893 1475.09 251.038 1474.5 251.038 1473.84V1464.45ZM245.377 1462.74C245.041 1462.74 244.747 1462.62 244.496 1462.37C244.246 1462.12 244.12 1461.83 244.12 1461.51C244.12 1461.15 244.246 1460.86 244.496 1460.62C244.747 1460.38 245.041 1460.26 245.377 1460.26C245.732 1460.26 246.028 1460.38 246.265 1460.62C246.506 1460.86 246.627 1461.15 246.627 1461.51C246.627 1461.83 246.506 1462.12 246.265 1462.37C246.028 1462.62 245.732 1462.74 245.377 1462.74ZM249.553 1462.74C249.217 1462.74 248.924 1462.62 248.673 1462.37C248.422 1462.12 248.296 1461.83 248.296 1461.51C248.296 1461.15 248.422 1460.86 248.673 1460.62C248.924 1460.38 249.217 1460.26 249.553 1460.26C249.908 1460.26 250.204 1460.38 250.441 1460.62C250.683 1460.86 250.803 1461.15 250.803 1461.51C250.803 1461.83 250.683 1462.12 250.441 1462.37C250.204 1462.62 249.908 1462.74 249.553 1462.74ZM256.43 1479V1464.45H265.45V1466.34H258.625V1470.78H264.804V1472.66H258.625V1479H256.43ZM268.149 1479V1464.45H277.268V1466.34H270.343V1470.78H276.792V1472.66H270.343V1477.11H277.353V1479H268.149ZM271.828 1463L273.49 1459.72H275.727L273.525 1463H271.828Z" fill="black"/>
<path d="M211.793 1107.45V1122H209.598V1107.45H211.793ZM217.183 1107.45V1122H214.989V1107.45H217.183ZM222.574 1107.45V1122H220.379V1107.45H222.574ZM226.999 1122.13C226.61 1122.13 226.277 1122 225.997 1121.72C225.718 1121.44 225.578 1121.11 225.578 1120.71C225.578 1120.33 225.718 1119.99 225.997 1119.72C226.277 1119.44 226.61 1119.3 226.999 1119.3C227.387 1119.3 227.721 1119.44 228 1119.72C228.279 1119.99 228.419 1120.33 228.419 1120.71C228.419 1120.97 228.353 1121.21 228.22 1121.43C228.092 1121.64 227.922 1121.82 227.709 1121.94C227.496 1122.07 227.259 1122.13 226.999 1122.13ZM238.687 1107.45V1122H236.493V1107.45H238.687ZM241.883 1122V1107.45H247.068C248.195 1107.45 249.13 1107.65 249.873 1108.04C250.621 1108.43 251.18 1108.96 251.549 1109.65C251.919 1110.33 252.103 1111.12 252.103 1112.01C252.103 1112.9 251.916 1113.69 251.542 1114.37C251.173 1115.04 250.614 1115.56 249.866 1115.93C249.123 1116.31 248.188 1116.5 247.061 1116.5H243.133V1114.61H246.862C247.572 1114.61 248.15 1114.5 248.595 1114.3C249.045 1114.1 249.374 1113.8 249.582 1113.41C249.79 1113.03 249.895 1112.56 249.895 1112.01C249.895 1111.46 249.788 1110.99 249.575 1110.59C249.367 1110.18 249.038 1109.88 248.588 1109.66C248.143 1109.45 247.558 1109.34 246.833 1109.34H244.078V1122H241.883ZM249.064 1115.44L252.657 1122H250.157L246.635 1115.44H249.064ZM267.409 1114.73C267.409 1116.28 267.125 1117.62 266.556 1118.73C265.988 1119.85 265.209 1120.7 264.22 1121.3C263.235 1121.9 262.115 1122.2 260.86 1122.2C259.601 1122.2 258.476 1121.9 257.487 1121.3C256.502 1120.7 255.725 1119.84 255.157 1118.73C254.589 1117.61 254.305 1116.28 254.305 1114.73C254.305 1113.17 254.589 1111.84 255.157 1110.73C255.725 1109.61 256.502 1108.75 257.487 1108.16C258.476 1107.56 259.601 1107.26 260.86 1107.26C262.115 1107.26 263.235 1107.56 264.22 1108.16C265.209 1108.75 265.988 1109.61 266.556 1110.73C267.125 1111.84 267.409 1113.17 267.409 1114.73ZM265.235 1114.73C265.235 1113.54 265.044 1112.55 264.66 1111.74C264.281 1110.92 263.761 1110.31 263.098 1109.89C262.44 1109.47 261.694 1109.26 260.86 1109.26C260.022 1109.26 259.274 1109.47 258.616 1109.89C257.958 1110.31 257.437 1110.92 257.054 1111.74C256.675 1112.55 256.485 1113.54 256.485 1114.73C256.485 1115.91 256.675 1116.91 257.054 1117.72C257.437 1118.53 257.958 1119.15 258.616 1119.57C259.274 1119.99 260.022 1120.2 260.86 1120.2C261.694 1120.2 262.44 1119.99 263.098 1119.57C263.761 1119.15 264.281 1118.53 264.66 1117.72C265.044 1116.91 265.235 1115.91 265.235 1114.73ZM274.854 1122H270.145V1107.45H275.003C276.428 1107.45 277.652 1107.75 278.675 1108.33C279.697 1108.91 280.481 1109.74 281.026 1110.82C281.575 1111.9 281.849 1113.2 281.849 1114.71C281.849 1116.22 281.572 1117.52 281.018 1118.61C280.469 1119.7 279.674 1120.54 278.632 1121.13C277.59 1121.71 276.331 1122 274.854 1122ZM272.339 1120.08H274.733C275.841 1120.08 276.762 1119.87 277.496 1119.46C278.23 1119.04 278.779 1118.43 279.143 1117.63C279.508 1116.83 279.69 1115.86 279.69 1114.71C279.69 1113.56 279.508 1112.6 279.143 1111.8C278.784 1111.01 278.246 1110.4 277.531 1109.99C276.816 1109.58 275.929 1109.37 274.868 1109.37H272.339V1120.08ZM285.085 1122H282.755L287.989 1107.45H290.525L295.759 1122H293.43L289.317 1110.1H289.204L285.085 1122ZM285.475 1116.3H293.032V1118.15H285.475V1116.3Z" fill="black"/>
<path d="M214.793 693.455V708H212.598V693.455H214.793ZM219.26 693.455L223.308 705.301H223.472L227.52 693.455H229.892L224.658 708H222.122L216.888 693.455H219.26ZM231.288 708.135C230.899 708.135 230.566 707.998 230.286 707.723C230.007 707.444 229.867 707.107 229.867 706.714C229.867 706.326 230.007 705.995 230.286 705.72C230.566 705.441 230.899 705.301 231.288 705.301C231.676 705.301 232.01 705.441 232.289 705.72C232.568 705.995 232.708 706.326 232.708 706.714C232.708 706.975 232.642 707.214 232.509 707.432C232.381 707.645 232.211 707.815 231.998 707.943C231.785 708.071 231.548 708.135 231.288 708.135ZM242.976 693.455V708H240.782V693.455H242.976ZM246.172 708V693.455H251.357C252.484 693.455 253.419 693.649 254.162 694.037C254.91 694.425 255.469 694.963 255.838 695.649C256.208 696.331 256.392 697.119 256.392 698.014C256.392 698.904 256.205 699.688 255.831 700.365C255.462 701.037 254.903 701.561 254.155 701.935C253.412 702.309 252.477 702.496 251.35 702.496H247.422V700.607H251.151C251.861 700.607 252.439 700.505 252.884 700.301C253.334 700.098 253.663 699.802 253.871 699.413C254.079 699.025 254.184 698.559 254.184 698.014C254.184 697.465 254.077 696.989 253.864 696.587C253.656 696.184 253.327 695.876 252.877 695.663C252.432 695.446 251.847 695.337 251.123 695.337H248.367V708H246.172ZM253.353 701.438L256.946 708H254.446L250.924 701.438H253.353ZM271.698 700.727C271.698 702.28 271.414 703.616 270.846 704.733C270.277 705.846 269.498 706.703 268.509 707.304C267.524 707.901 266.404 708.199 265.15 708.199C263.89 708.199 262.766 707.901 261.776 707.304C260.791 706.703 260.015 705.843 259.446 704.726C258.878 703.608 258.594 702.276 258.594 700.727C258.594 699.174 258.878 697.841 259.446 696.729C260.015 695.611 260.791 694.754 261.776 694.158C262.766 693.556 263.89 693.256 265.15 693.256C266.404 693.256 267.524 693.556 268.509 694.158C269.498 694.754 270.277 695.611 270.846 696.729C271.414 697.841 271.698 699.174 271.698 700.727ZM269.525 700.727C269.525 699.544 269.333 698.547 268.949 697.737C268.57 696.923 268.05 696.307 267.387 695.891C266.729 695.469 265.983 695.259 265.15 695.259C264.311 695.259 263.563 695.469 262.905 695.891C262.247 696.307 261.726 696.923 261.343 697.737C260.964 698.547 260.775 699.544 260.775 700.727C260.775 701.911 260.964 702.91 261.343 703.724C261.726 704.534 262.247 705.15 262.905 705.571C263.563 705.988 264.311 706.196 265.15 706.196C265.983 706.196 266.729 705.988 267.387 705.571C268.05 705.15 268.57 704.534 268.949 703.724C269.333 702.91 269.525 701.911 269.525 700.727ZM279.143 708H274.434V693.455H279.292C280.717 693.455 281.941 693.746 282.964 694.328C283.987 694.906 284.77 695.737 285.315 696.821C285.864 697.901 286.138 699.196 286.138 700.706C286.138 702.221 285.862 703.523 285.308 704.612C284.758 705.701 283.963 706.539 282.921 707.126C281.879 707.709 280.62 708 279.143 708ZM276.629 706.082H279.022C280.13 706.082 281.051 705.874 281.785 705.457C282.519 705.036 283.068 704.428 283.433 703.632C283.797 702.832 283.979 701.857 283.979 700.706C283.979 699.565 283.797 698.597 283.433 697.801C283.073 697.006 282.535 696.402 281.82 695.99C281.105 695.578 280.218 695.372 279.157 695.372H276.629V706.082ZM289.374 708H287.044L292.278 693.455H294.814L300.048 708H297.719L293.607 696.097H293.493L289.374 708ZM289.764 702.304H297.321V704.151H289.764V702.304Z" fill="black"/>
<path d="M832.827 777H830.497L835.732 762.455H838.267L843.501 777H841.172L837.06 765.097H836.946L832.827 777ZM833.217 771.304H840.774V773.151H833.217V771.304ZM850.311 777H845.602V762.455H850.46C851.885 762.455 853.109 762.746 854.132 763.328C855.154 763.906 855.938 764.737 856.483 765.821C857.032 766.901 857.306 768.196 857.306 769.706C857.306 771.221 857.029 772.523 856.475 773.612C855.926 774.701 855.131 775.539 854.089 776.126C853.047 776.709 851.788 777 850.311 777ZM847.797 775.082H850.19C851.298 775.082 852.219 774.874 852.953 774.457C853.687 774.036 854.236 773.428 854.6 772.632C854.965 771.832 855.147 770.857 855.147 769.706C855.147 768.565 854.965 767.597 854.6 766.801C854.241 766.006 853.703 765.402 852.988 764.99C852.273 764.578 851.386 764.372 850.325 764.372H847.797V775.082ZM860.036 762.455H862.699L867.33 773.761H867.5L872.131 762.455H874.794V777H872.706V766.474H872.571L868.281 776.979H866.548L862.259 766.467H862.124V777H860.036V762.455ZM880.179 762.455V777H877.985V762.455H880.179ZM895.115 762.455V777H893.098L885.705 766.332H885.57V777H883.375V762.455H885.407L892.807 773.136H892.942V762.455H895.115ZM839.531 790.276C839.455 789.603 839.143 789.082 838.594 788.713C838.045 788.339 837.353 788.152 836.52 788.152C835.923 788.152 835.407 788.247 834.972 788.436C834.536 788.621 834.197 788.876 833.956 789.203C833.719 789.525 833.601 789.892 833.601 790.304C833.601 790.65 833.681 790.948 833.842 791.199C834.008 791.45 834.223 791.661 834.489 791.831C834.759 791.997 835.047 792.136 835.355 792.25C835.663 792.359 835.959 792.449 836.243 792.52L837.663 792.889C838.127 793.003 838.603 793.157 839.091 793.351C839.579 793.545 840.031 793.801 840.447 794.118C840.864 794.435 841.2 794.828 841.456 795.297C841.716 795.766 841.847 796.327 841.847 796.98C841.847 797.804 841.634 798.536 841.207 799.175C840.786 799.814 840.173 800.318 839.368 800.688C838.568 801.057 837.599 801.241 836.463 801.241C835.374 801.241 834.432 801.069 833.636 800.723C832.841 800.377 832.218 799.887 831.768 799.253C831.319 798.614 831.07 797.856 831.023 796.98H833.224C833.267 797.506 833.438 797.944 833.736 798.294C834.039 798.64 834.425 798.898 834.893 799.068C835.367 799.234 835.885 799.317 836.449 799.317C837.069 799.317 837.621 799.22 838.104 799.026C838.591 798.827 838.975 798.552 839.254 798.202C839.534 797.847 839.673 797.432 839.673 796.959C839.673 796.528 839.55 796.175 839.304 795.901C839.063 795.626 838.733 795.399 838.317 795.219C837.905 795.039 837.438 794.88 836.918 794.743L835.199 794.274C834.034 793.957 833.111 793.491 832.429 792.875C831.752 792.259 831.413 791.445 831.413 790.432C831.413 789.594 831.641 788.862 832.095 788.237C832.55 787.612 833.165 787.127 833.942 786.781C834.718 786.431 835.594 786.256 836.57 786.256C837.554 786.256 838.423 786.429 839.176 786.774C839.934 787.12 840.53 787.596 840.966 788.202C841.402 788.803 841.629 789.494 841.648 790.276H839.531ZM844.093 801V799.537L851.742 788.344H844.029V786.455H854.426V787.918L846.777 799.111H854.49V801H844.093ZM869.194 793.727C869.194 795.28 868.91 796.616 868.342 797.733C867.773 798.846 866.995 799.703 866.005 800.304C865.02 800.901 863.9 801.199 862.646 801.199C861.386 801.199 860.262 800.901 859.272 800.304C858.287 799.703 857.511 798.843 856.942 797.726C856.374 796.608 856.09 795.276 856.09 793.727C856.09 792.174 856.374 790.841 856.942 789.729C857.511 788.611 858.287 787.754 859.272 787.158C860.262 786.556 861.386 786.256 862.646 786.256C863.9 786.256 865.02 786.556 866.005 787.158C866.995 787.754 867.773 788.611 868.342 789.729C868.91 790.841 869.194 792.174 869.194 793.727ZM867.021 793.727C867.021 792.544 866.829 791.547 866.445 790.737C866.067 789.923 865.546 789.307 864.883 788.891C864.225 788.469 863.479 788.259 862.646 788.259C861.808 788.259 861.059 788.469 860.401 788.891C859.743 789.307 859.222 789.923 858.839 790.737C858.46 791.547 858.271 792.544 858.271 793.727C858.271 794.911 858.46 795.91 858.839 796.724C859.222 797.534 859.743 798.15 860.401 798.571C861.059 798.988 861.808 799.196 862.646 799.196C863.479 799.196 864.225 798.988 864.883 798.571C865.546 798.15 866.067 797.534 866.445 796.724C866.829 795.91 867.021 794.911 867.021 793.727ZM871.93 801V786.455H877.257C878.289 786.455 879.144 786.625 879.821 786.966C880.498 787.302 881.004 787.759 881.341 788.337C881.677 788.91 881.845 789.556 881.845 790.276C881.845 790.882 881.734 791.393 881.511 791.81C881.288 792.222 880.99 792.553 880.616 792.804C880.247 793.05 879.84 793.23 879.395 793.344V793.486C879.877 793.509 880.349 793.666 880.808 793.955C881.272 794.239 881.655 794.643 881.958 795.169C882.261 795.695 882.413 796.334 882.413 797.087C882.413 797.83 882.238 798.498 881.887 799.089C881.542 799.677 881.007 800.143 880.282 800.489C879.558 800.83 878.632 801 877.505 801H871.93ZM874.125 799.118H877.292C878.343 799.118 879.096 798.914 879.551 798.507C880.005 798.1 880.233 797.591 880.233 796.98C880.233 796.521 880.117 796.099 879.885 795.716C879.653 795.332 879.321 795.027 878.89 794.8C878.464 794.572 877.958 794.459 877.37 794.459H874.125V799.118ZM874.125 792.747H877.065C877.557 792.747 878 792.652 878.393 792.463C878.791 792.274 879.106 792.009 879.338 791.668C879.574 791.322 879.693 790.915 879.693 790.446C879.693 789.845 879.482 789.34 879.061 788.933C878.639 788.526 877.993 788.322 877.122 788.322H874.125V792.747ZM886.245 801H883.915L889.15 786.455H891.685L896.919 801H894.59L890.478 789.097H890.364L886.245 801ZM886.635 795.304H894.192V797.151H886.635V795.304Z" fill="black"/>
<path d="M586.5 495.5C594.784 495.5 601.5 502.216 601.5 510.5C601.5 518.784 594.784 525.5 586.5 525.5C578.216 525.5 571.5 518.784 571.5 510.5C571.5 502.216 578.216 495.5 586.5 495.5Z" fill="white" stroke="black"/>
</svg>
